<svg id="Camada_1" data-name="Camada 1" xmlns="http://www.w3.org/2000/svg" viewBox="0 0 500 500"><defs><style>.cls-1{fill:#1f1f1d;}.cls-1,.cls-2,.cls-3,.cls-4,.cls-5,.cls-8{fill-rule:evenodd;}.cls-2{fill:#0d529e;}.cls-3,.cls-6{fill:#e2131b;}.cls-4,.cls-7{fill:#fff;}.cls-5{fill:#ffe212;}.cls-8{fill:#009741;}.cls-9{fill:#097a42;}.cls-10{fill:#73bb6d;}.cls-11{fill:#13814d;}.cls-12{fill:#059a59;}.cls-13{fill:#a9cf84;}</style></defs><path class="cls-1" d="M255.87,95.9l-2.09,2.72-1.8,2.17h7.93l-1.78-2.16Zm16.36,363a10,10,0,1,1-9.46.1l-3.3-80.9c-13-10.41-38.11-17.31-61.79-28.52-22.69-10.76-36.31-24.11-36.46-39.06,0-67.86-.24-135-.24-202.87h87.48v-13h-2.12l-.66-.08-.65-.25-.56-.37-.49-.49-.39-.57-.29-.64-.18-.71-.06-.71v-.12l.06-.71.18-.7.29-.65.08-.1H240l-.55-.08-.52-.13-.51-.18-.48-.24-.45-.27-.42-.31-.39-.35-.36-.38-.31-.42-.28-.46-.23-.46-.19-.51-.14-.51-.08-.54v-3.6l.08-.54.14-.52.19-.5.23-.48.28-.45.31-.41.36-.39.39-.34.42-.32.45-.26.48-.23.51-.19.52-.13.55-.08h3.07V71.09h49.38v4.12h4.38l.55.08.52.13.51.19.48.23.45.26.42.32.39.34.36.39.31.41.28.45.24.48.18.5.13.52.09.54V83.7l-.09.54-.13.51-.18.51-.24.46-.28.46-.31.42-.36.38-.39.36-.42.3-.45.27-.48.24-.51.18-.52.13-.55.08h-4.76l.07.1.3.65.18.7.06.71v.12l-.06.72-.18.7-.3.65-.38.56-.49.49-.58.38-.65.25-.64.07H288v13h86.52v92.71h0v110c-.28,14.61-16.8,31.48-39.18,40.64-24.71,10.12-47.73,17.09-59.39,25.8l-3.68,82ZM267.69,95.78l-2.27,2.89-1.79,2.17h8.1l-1.79-2.17-2.28-2.89Zm12.37,0-2.28,2.75-1.85,2.35h8l-1.58-2.38Z"/><polygon class="cls-2" points="162.65 109.3 372.8 109.3 372.8 201.99 162.65 201.99 162.65 109.3"/><path class="cls-3" d="M282.21,71.46l-29,.14c-2-5.73-1.89-8.59,1-11.95,0,5.19,1.61,6,2.32,5.07,1.52-10.87,9.12-17,9.12-19.25l1.32,8c5.23-2.31,6.95-8.59,6.88-12.07a21.65,21.65,0,0,0,.59-6.47c0,7.78,5.94,19.13-1.16,26.33a11,11,0,0,0,6.51-6.68c-1.15,4.18-5.07,8.88-9.67,8.88,6.67-6.74,3.88-14.66,3.72-22-.82,3.29-2.51,6.66-5.73,8.11l-1.39-8.3c0,2.31-8.84,9.23-10.42,20.49-.74,1-1.26-.07-1.26-5.44-3.81,5.38-5.11,7.78-3,15.19h-3c-9.26-14.05,2.12-20.36-1.93-28.2l4.82,2.61c2.2-.35,9.12-.17,6.34-19.24l7.4,4.17c2.63-13.17,14.59-17.37,19.94-23.45-6.85,8.46,3.18,21.94-3.22,29.63,2.42,1.15,3.9,1.45,5.66-3.89,2.95,4.05,5.72,9.11.41,16.72,2.43.58,5.25-2.76,6.82-5.66-1.32,9.81.1,16.69-9.45,27.11h-1.41c5.28-7.54,3.3-14.18,3.19-14a10.55,10.55,0,0,1-2,3.33c.33,1,.78,4.65-3.42,10.64Zm-1.77-18.8c3,4.36.41,7.63.41,12.09a7.54,7.54,0,0,0,4.29-3.45,7.14,7.14,0,0,1-2.28,1.47,14,14,0,0,0-2-14.4,20,20,0,0,1-.43,4.29Z"/><path class="cls-4" d="M230,176.34l-2.71,8.78,7.32,5.65-9.19.21-3.14,8.58L219.17,191l-9.2-.42,7.31-5.43-2.5-9,7.53,5.44,7.72-5.23Zm-4.54-33.06H262c.66.13,2.2.13,2.08,2.58v.1a2.1,2.1,0,0,1-1.88,1.67H248.73a2.08,2.08,0,0,0-2.22,1.94,2,2,0,0,0,.14.9v-.08a2.39,2.39,0,0,0,1.28,1.08h.46c2.86-.05,15.32,0,15.68,0H372.79V177.6H248.22a2,2,0,0,1-1.6-2.17v-8.76H222.14L233,155.94Zm.28-26.33L222,125.32l6.7,6.48-9.21-.84-4.17,8.36-1.89-9.2-9.21-1.24,7.94-4.61-1.46-9.19,6.9,6.07,8.1-4.17Zm-34.93-1.71-3.77,8.35,6.69,6.49-9.2-.83-4.17,8.35-1.9-9.19-9.19-1.26,7.94-4.6-1.46-9.21,6.89,6.08,8.17-4.17Zm-9.12,35.94-1.25,8.58,7.32,4.18-8.4,1.26-1.88,8.37L173.75,166l-8.57.83,6.08-6.07-3.34-7.74,7.52,3.76,6.27-5.65Zm35.63-4-3.14,7.09,5.44,5.23-7.52-.63-3.34,6.9-1.68-7.53-7.76-1.17,6.69-3.77-1.26-7.52,5.65,5.06,6.89-3.55Z"/><path class="cls-5" d="M162.69,203.76H372.6c0,36.06.21,70.37.21,106.44-5.06,44.78-95.43,47.13-105,75.55-11.14-28.42-102.37-32.84-105-75.44l-.2-106.55ZM255.8,94.57l2.93,3.52,2.93,3.53H250.14l2.93-3.53,2.72-3.52Zm-11.89-22.4h47.71v3.15H243.91ZM240.68,76h55.71A4.63,4.63,0,0,1,301,80.58V83a4.63,4.63,0,0,1-4.65,4.59H240.68A4.64,4.64,0,0,1,236,83V80.58A4.64,4.64,0,0,1,240.68,76Zm5.78,12.42h43a2.66,2.66,0,0,1,2.49,2.78h0A2.65,2.65,0,0,1,289.41,94h-2.25v13.6H249.29V94h-2.88a2.65,2.65,0,0,1-2.5-2.78h0a2.67,2.67,0,0,1,2.5-2.78Zm28.6,290-3.64,81a9.12,9.12,0,1,1-7.74.08l-3.31-81.09c3.74,3.39,5.41,6.85,7.63,11.39,1.7-3.93,3-6.92,5.73-10.13l1.33-1.24Zm-7.32-284,2.93,3.72,2.93,3.53H261.86l2.91-3.53,2.92-3.72Zm12.37,0L283,97.9l2.47,3.72H274.2l2.93-3.72,2.93-3.53Z"/><path class="cls-3" d="M254.86,280c1.41-.87,5-1.44,9-1.44,5.29,0,9.58,1,9.58,2.23s-4.29,2.2-9.58,2.2-9.57-1-9.57-2.2c0-.27.2-.54.61-.79Z"/><path class="cls-1" d="M262.18,147.65H248.71c-2.81,0-3,3.91-.36,3.87h15.71v-5.94a2,2,0,0,1-1.92,2Z"/><path class="cls-3" d="M249.67,171.57,253.38,158h1.4l4,13.56H257.3l-1.12-4h-4.13l-1,4Zm2.81-5.6,3.28.07-1-3.77c-.29-1.19-.5-2.09-.7-2.86a15.06,15.06,0,0,1-.49,2.58l-1,4Zm7.47,5.6V158h4.34a3.55,3.55,0,0,1,1.95.35,2.42,2.42,0,0,1,1.12,1.26,5.05,5.05,0,0,1,.42,2.1,4,4,0,0,1-.7,2.44,3.18,3.18,0,0,1-2,1.26,4.27,4.27,0,0,1,.77.7,9.33,9.33,0,0,1,1,1.76l1.68,3.7h-1.61l-1.25-2.79c-.31-.65-.65-1.28-1-1.9A3.76,3.76,0,0,0,264,166l-.56-.34a2.22,2.22,0,0,0-.77-.07h-1.47v6H260Zm1.33-7.55H264a3.55,3.55,0,0,0,1.41-.28,1.3,1.3,0,0,0,.76-.84,2.32,2.32,0,0,0,.29-1.18,2.91,2.91,0,0,0-.43-1.58,2,2,0,0,0-1.61-.63h-3v4.54Zm8.26,3.22,1.18-.13a4.91,4.91,0,0,0,.43,1.67,2.8,2.8,0,0,0,2.51,1.47,2.44,2.44,0,0,0,1.26-.35,1.92,1.92,0,0,0,.83-.84A2.07,2.07,0,0,0,276,168a1.9,1.9,0,0,0-.29-1.12,1.57,1.57,0,0,0-.83-.85,15.13,15.13,0,0,0-1.75-.62,8.23,8.23,0,0,1-1.89-.91,2.66,2.66,0,0,1-1-1.25,4.42,4.42,0,0,1-.34-1.68,4.55,4.55,0,0,1,.42-2,2.92,2.92,0,0,1,1.25-1.33,3.71,3.71,0,0,1,1.75-.48,4.3,4.3,0,0,1,2,.48,3.22,3.22,0,0,1,1.26,1.47,6.78,6.78,0,0,1,.49,2.17l-1.26.07a3,3,0,0,0-.69-1.89,1.92,1.92,0,0,0-1.69-.69,2.05,2.05,0,0,0-1.68.63,1.94,1.94,0,0,0-.55,1.39,1.92,1.92,0,0,0,.42,1.26,3.8,3.8,0,0,0,1.89.91,8.39,8.39,0,0,1,2.16.91,3.54,3.54,0,0,1,1.27,1.39,4.66,4.66,0,0,1-.08,4,3.22,3.22,0,0,1-1.26,1.47,4.28,4.28,0,0,1-1.89.49,5.1,5.1,0,0,1-2.17-.49,3.59,3.59,0,0,1-1.4-1.61,5.53,5.53,0,0,1-.55-2.46Zm15.19,4.33V158h7.09v1.61H286.1v4.12h5.37v1.61H286.1V170H292v1.54Zm11.74,0V159.62h-3.21V158h7.68v1.61H297.7v11.95Zm11.06-4.34,1.19-.13a4.89,4.89,0,0,0,.42,1.67,2.81,2.81,0,0,0,2.44,1.5,2.66,2.66,0,0,0,1.32-.35,2.53,2.53,0,0,0,.85-.84A2.06,2.06,0,0,0,314,168a2,2,0,0,0-.27-1.12,2,2,0,0,0-.85-.85,15.13,15.13,0,0,0-1.75-.62,8.37,8.37,0,0,1-1.88-.91,2.64,2.64,0,0,1-1-1.25,4.25,4.25,0,0,1-.35-1.68,4.41,4.41,0,0,1,.43-2,2.88,2.88,0,0,1,1.25-1.33,3.56,3.56,0,0,1,1.74-.48,4.34,4.34,0,0,1,2,.48,4.57,4.57,0,0,1,1.26,1.47,6.72,6.72,0,0,1,.49,2.17l-1.26.07a2.91,2.91,0,0,0-.7-1.89,1.9,1.9,0,0,0-1.67-.69,2.06,2.06,0,0,0-1.69.63,1.94,1.94,0,0,0-.55,1.39,2.42,2.42,0,0,0,.35,1.26,4.47,4.47,0,0,0,2,.91,9.52,9.52,0,0,1,2.16.91,3.45,3.45,0,0,1,1.26,1.39,4.14,4.14,0,0,1,.42,1.89,4.25,4.25,0,0,1-.49,2.1,3.22,3.22,0,0,1-1.26,1.47,4.38,4.38,0,0,1-1.88.49,5.1,5.1,0,0,1-2.17-.49,3.24,3.24,0,0,1-1.4-1.61A5.41,5.41,0,0,1,307.53,167.23Zm16.64-.42,1.24.49a6.62,6.62,0,0,1-1.46,3.35,3.27,3.27,0,0,1-2.52,1.13,3.52,3.52,0,0,1-2.58-.85,6.2,6.2,0,0,1-1.47-2.59,12.66,12.66,0,0,1-.56-3.62,10,10,0,0,1,.63-3.71,4.89,4.89,0,0,1,1.61-2.45,3.8,3.8,0,0,1,2.37-.83,3.15,3.15,0,0,1,2.45,1,5.72,5.72,0,0,1,1.4,2.94l-1.25.41a4.71,4.71,0,0,0-1-2.15,2.24,2.24,0,0,0-1.61-.71,2.61,2.61,0,0,0-1.88.77,4.3,4.3,0,0,0-1,2,10.23,10.23,0,0,0-.36,2.58,12.9,12.9,0,0,0,.36,3,3.9,3.9,0,0,0,1.18,2,2.46,2.46,0,0,0,1.61.63,2.23,2.23,0,0,0,1.81-.92,4.71,4.71,0,0,0,1-2.58Zm3.28,4.75V158h1.25v13.56Zm3.77,0V158h7v1.61h-5.77v4.12h5.38v1.61h-5.38V170h6v1.54Zm9.22,0V158h1.27l5.17,10.7V158H348v13.56h-1.33l-5.06-10.68v10.68Zm12.45,0V159.61h-3.22V158h7.76v1.61h-3.21v11.95Zm6.29,0L359.11,158h1.33v13.56Zm2.65,0L365.54,158h1.4l4,13.56h-1.47l-1.12-4.05h-4l-1.12,4.05Zm2.8-5.6,3.29.07-1-3.77a27.4,27.4,0,0,1-.7-2.86c-.14.91-.35,1.75-.56,2.58l-1,4Z"/><path class="cls-3" d="M328.29,279.71a19.68,19.68,0,0,1,8,11.62A31.65,31.65,0,0,0,334,280.51a21.4,21.4,0,0,0-5.5-7.8l-.24,6.78v.22Z"/><polygon class="cls-3" points="292.9 290.49 327.85 279.75 327.8 279.75 327.8 279.67 327.8 279.67 327.8 279.46 328 272.6 282.72 286.44 292.5 290.35 292.5 290.35 292.9 290.49"/><path class="cls-3" d="M350.76,275.21v12.71l-3,3.56a3.73,3.73,0,0,0-.05-.74,10.77,10.77,0,0,0-.16-1.32,36.81,36.81,0,0,0-1.51-6.73l4.77-7.45Z"/><path class="cls-3" d="M344.62,305l.07,10.91v.56c-1.47,3.8-5.07,7.57-10.07,11.53l-1.95-10.12a48.2,48.2,0,0,0,6.89-6.19,43.6,43.6,0,0,0,5.07-6.71Z"/><polygon class="cls-3" points="356 301.36 356 312.31 345.18 315.42 345.1 304.24 356 301.36"/><polygon class="cls-3" points="355.96 301.07 356 301.08 356 301.18 355.96 301.07"/><polygon class="cls-3" points="313.56 341.6 304.8 334.97 304.08 322.36 313.34 328.5 313.56 341.3 313.56 341.3 313.56 341.6"/><polygon class="cls-3" points="322.98 336.16 323.03 324.1 334.34 328.37 334.34 328.37 334.34 340.69 322.98 336.32 322.98 336.16"/><polygon class="cls-3" points="313.84 328.54 322.54 324.25 322.5 335.94 322.49 335.94 322.49 336.24 314.06 341.64 314.05 341.42 314.05 341.3 314.05 341.3 313.84 328.54"/><path class="cls-3" d="M279.17,299.28c-7.4,4.37-18.43,5.19-28.23,2.2h.1l.12-8v-.12h0l-3.51-2.81.15-7.49c2.85,4.32,12.06,5,16.41,5.15,5.31.26,14.18-.61,17.15-4.61l.16,5.85L279.3,291l-.1.07v8.2Z"/><path class="cls-3" d="M316.21,316.81l-36.47-17.55V292l43.39,20a30.56,30.56,0,0,1-6.89,4.89Z"/><path class="cls-3" d="M311.32,270.92c-21.17-11.24-46.43-13.85-78.45-2.22l-10.13-4.34A104.91,104.91,0,0,1,236.42,259a102,102,0,0,1,14.44-3.41c24.68-4.05,49.63,1,69.22,12.68C317.17,269.16,314.2,270.11,311.32,270.92Z"/><path class="cls-3" d="M215.58,276.66c-7.44,6.53-10.39,14.06-9.24,22.52h0c-3.2-5.84-4-11.33-2.44-16.5s5.49-10.13,11.68-14.67Z"/><path class="cls-3" d="M247.24,280.9c0,.21,0,.42,0,.64l-.22,6.34-1.37.4L216.1,276.49v-8.6l31.17,12.87v.14Z"/><path class="cls-3" d="M250.51,301.25v.1h-.07l-32.63,10.41c-.1-.07-.26-.1-.36-.18-.39-.24-3-2.22-3.38-2.53-1.1-.9-2.18-1.86-3.24-2.86l39.79-12.36-.13,7.39h0Z"/><path class="cls-3" d="M180,302.55v-10.8l7.83,5.31v11L180,302.55Zm8.33-4.77.14.31a79.81,79.81,0,0,0,5.34,9.16,43.58,43.58,0,0,0,7.09,7.95l-4,6.65a31.83,31.83,0,0,1-8.53-13h0v-11Z"/><polygon class="cls-3" points="208.98 335.46 197.3 335.7 197.06 322.22 209.07 322.09 208.98 334.51 208.98 334.51 208.98 335.46"/><polygon class="cls-3" points="219.89 328.48 219.62 341.46 209.47 335.59 209.47 334.62 209.56 322.27 219.89 328.48"/><polygon class="cls-3" points="230.18 319.35 229.24 332.05 220.13 341.36 220.13 340.35 220.37 328.55 230.18 319.35"/><rect class="cls-6" x="230.17" y="318.88" width="0.04" height="0.02"/><path class="cls-3" d="M252,277a14,14,0,0,0-3,1.71,7.88,7.88,0,0,0-1.56,1.6l-31.56-13-.13-.07-.11.09c-6.5,4.72-10.61,9.78-12.24,15.19s-.78,11,2.54,17l.07.13.14.25a.36.36,0,0,0,.28.1l38.95-11.2,1.72-.48v2.46l.09.07,3.21,2.57-40.15,12.4-.39.13.3.29c1.17,1.1,2.36,2.18,3.57,3.17s2.22,1.76,3.35,2.54A65.25,65.25,0,0,0,230,318.81L220.22,328l-10.78-6.41h-.12l-11.82.15,3.88-6.46.11-.18-.15-.13a43.46,43.46,0,0,1-7.14-8,66.1,66.1,0,0,1-5.67-9.91l-.2-.42h0v-.07h-.06l-8-5.21,9.8-2.15c1.95-6.6,7.18-14,14.41-21.77v-6.74l9.5,1.95c28.36-16.79,61.19-20.14,100.86-5.33l7.38-1v4.83a50,50,0,0,1,17.63,13.43l10.64.13-4.94,7.75-.06.1v.1a43.23,43.23,0,0,1,2,13.27l8.26,4.94-10.91,2.91h-.1v.09a44.72,44.72,0,0,1-5.45,7.37,46,46,0,0,1-6.94,6.21l-.12.09v.15l1.93,10L323,323.43l-.33.15-9.08,4.52-9.28-6.16,12.09-4.81A29.09,29.09,0,0,0,323.7,312l.19-.23-.28-.13-44-20.26h0l2.22-1.56.11-.07v-.13l-.07-2.94h0l10.33,4.13q19.44,7.5,38.77,15.32a25.73,25.73,0,0,0,5.83-13.7c.25-7.38-2.57-15.46-8.28-20.34a1.13,1.13,0,0,0-.45-.23l-46.17,14.32h0c-.05-1.94-.1-3.88-.16-5.84v-.06L311,271.45l9.82-2.91.53-.15-.46-.28c-19.75-12-45-17.08-70-13a106.66,106.66,0,0,0-14.52,3.42,103.51,103.51,0,0,0-14.18,5.62h0l-.48.24.49.2c9.94,4.24,20,8.26,29.94,12.41Z"/><path class="cls-3" d="M293.74,391.06c-2.32,0-5.06,2.94-4.84,7.77-17.56-1-24.77-1.16-42.22-.19l.08,0c.21-4.94-2.1-7.61-4.84-7.78-66.77-2.92-94,4.65-149.37,25.22a4.85,4.85,0,0,0-3.13,5.95l2.72,7.09"/><path class="cls-3" d="M443.57,429.32l2.66-7.09c.92-2.43-1.13-5.3-3.12-6"/><path class="cls-3" d="M88.18,446.17,71.41,471.69l63.35-28.14a3.79,3.79,0,0,0,1.5-5.14,3.21,3.21,0,0,0-.19-.31l-2.62-5.85c28.44-10.79,54.16-14.43,84.12-14.93L222,428.54c1.11,1.61,1.31,1.61,3,1.71a203.37,203.37,0,0,1,85.58.15c1.72-.1,1.92-.1,3-1.72l4.45-11.14c30,.45,55.71,4.14,84.16,14.93l-2.68,5.79c-.65,1.22-1.4,3.89,1.37,5.5l63.29,28.09-16.76-25.49"/><path class="cls-3" d="M264.92,287.65c9.79.3,16.76-2.72,16.52-6.14s-7.8-6-17.11-6-16.4,2.85-16.58,6,7.37,5.86,17.22,6.14Z"/><path class="cls-1" d="M254.86,280c1.41-.87,5-1.44,9-1.44,5.29,0,9.58,1,9.58,2.23s-4.29,2.2-9.58,2.2-9.57-1-9.57-2.2c0-.27.2-.54.61-.79Z"/><path class="cls-7" d="M303.88,398.67H307c.32,0,.64,0,.95.05a3.39,3.39,0,0,1,.72.13h0l.22.08.21.09h0a3.07,3.07,0,0,1,.89.75h0a1.33,1.33,0,0,1,.14.19c0,.07.09.14.12.2a3.81,3.81,0,0,1,.46,1.17h0v.05h0l.06.27h0v.28h0a8.88,8.88,0,0,1,0,1.63h0v.62h0a6,6,0,0,1-.37,1.36,4.86,4.86,0,0,1-.47.94,4.57,4.57,0,0,1-.62.76,2.67,2.67,0,0,1-.61.45,5.07,5.07,0,0,1-.75.34,2.88,2.88,0,0,1-.72.15,8.69,8.69,0,0,1-.89.05h-3.47V408l.77-9.12v-.21Zm1.8,2-.46,5.56h1.62l.37-.05h.21a1.36,1.36,0,0,0,.41-.26h0a.92.92,0,0,0,.23-.29h0a3.12,3.12,0,0,0,.23-.49h0l0-.17h0l.06-.19a8.69,8.69,0,0,0,.18-1.23v-.15h0v-.52a3.73,3.73,0,0,0-.06-.88h0v-.27h0a1.62,1.62,0,0,0-.27-.5h0a1.12,1.12,0,0,0-.63-.34h0a2,2,0,0,0-.48-.06h-.86Zm5.73,7.21.76-9.12v-.22h6.77v.26l-.12,1.55v.22h-4.57l-.12,1.54h4.24v.27l-.13,1.53v.23H314l-.17,2h4.73v.25l-.13,1.55v.22h-6.93V408Zm14.72-3,1.68-.09h.26V405a2.58,2.58,0,0,0,.11.73h0a1.28,1.28,0,0,0,.26.47h0l.1.09h0l.1.07h0a1.51,1.51,0,0,0,.77.21h.45a1.41,1.41,0,0,0,.69-.25h0l.1-.09.08-.08h0a.9.9,0,0,0,.23-.73.64.64,0,0,0-.06-.18h0a.54.54,0,0,0-.15-.15,1.49,1.49,0,0,0-.3-.18h0a2.75,2.75,0,0,0-.45-.17l-.83-.3h0l-.35-.13h0l-.34-.13h0a3.21,3.21,0,0,1-1.2-.82,2.42,2.42,0,0,1-.53-.95h0a2.6,2.6,0,0,1-.06-1.11,2.71,2.71,0,0,1,.19-.73h0a3,3,0,0,1,.4-.66h0a1.24,1.24,0,0,1,.14-.18l.16-.16a3.07,3.07,0,0,1,1-.61h0a4.13,4.13,0,0,1,.84-.21,7.69,7.69,0,0,1,1,0,4.67,4.67,0,0,1,1.43.29,2.51,2.51,0,0,1,1,.68h0a2.34,2.34,0,0,1,.54,1,3.41,3.41,0,0,1,.1,1.23v.21h-2.17v-.65h0a1.05,1.05,0,0,0-.22-.45h0a.94.94,0,0,0-.33-.2,1.71,1.71,0,0,0-.55-.09h-.4a1.29,1.29,0,0,0-.66.21h0a.45.45,0,0,0-.12.27h0v.1a.17.17,0,0,0,0,.1h0a.31.31,0,0,0,.11.19h0l.06.05.11.08a7.75,7.75,0,0,0,1.2.49h0a9.66,9.66,0,0,1,1.06.39,4.6,4.6,0,0,1,.76.4h0a4,4,0,0,1,.53.47h0a2.51,2.51,0,0,1,.36.61h0a1.59,1.59,0,0,1,.07.2h0a.67.67,0,0,1,0,.2h0a3.34,3.34,0,0,1,0,1.18h0V406l-.06.23a3.37,3.37,0,0,1-.54,1.07h0l-.16.19h0l-.17.17h0a2.83,2.83,0,0,1-1,.67h0l-.24.08-.26.06a6.4,6.4,0,0,1-1.45.1,4.76,4.76,0,0,1-1.45-.31,2.54,2.54,0,0,1-1-.72h0v-.07h0a2.83,2.83,0,0,1-.2-.28,3.07,3.07,0,0,1-.17-.31h0a4.21,4.21,0,0,1-.35-1.89v-.22h.23Zm15.37,4.5-1.85-.14h-.19v-.18l-.38-1.94-3-.22-.93,1.87-.07.15h-.17l-1.79-.13h-.37l.17-.34,4.63-8.87.07-.14h.16l1.79.14h.18v.18l2,9.36.07.33h-.32ZM338.62,405l-.46-2.44L337,404.9l1.6.12Zm3.6,4.05,1.51-9.11v-.23H344l1.65.16h.15l.06.14,2.1,5.55.86-5.19v-.21H349l1.57.14h.27v.26l-1.5,9.12v.22h-.23l-1.7-.16h-.15l-.05-.14-2-5.41-.83,5.06v.23h-.22l-1.57-.14h-.26v-.26Zm10.27,1.09,1.43-7.29-2.2-.28h-.26l.05-.25.31-1.53v-.24H352l6.61.88h.26v.26l-.31,1.53v.22h-.23l-2.23-.24-1.44,7.3v.22h-.22l-1.67-.22h-.26v-.26Zm12.07,1.92-1.82-.27h-.19v-.19l-.26-2-3-.46-1,1.81-.09.15h-.16l-1.78-.28h-.36l.19-.32,5.16-8.55.09-.14h.16l1.77.27h.18v.19l1.37,9.55,0,.32-.32-.05ZM362,407.5l-.3-2.48-1.28,2.25,1.58.24Zm15.67,3.1,1.44.89.2.12-.11.21a6.15,6.15,0,0,1-.87,1.22h0a3.92,3.92,0,0,1-1,.8h0a1.79,1.79,0,0,1-.32.13l-.34.12h0a4.08,4.08,0,0,1-1.84,0h0a4.19,4.19,0,0,1-.47-.14l-.42-.17a3.42,3.42,0,0,1-1.61-1.62h0v-.05h0c-.07-.14-.12-.29-.18-.44h0a2.18,2.18,0,0,0-.14-.46,6,6,0,0,1,.17-2.77h0a3.28,3.28,0,0,1,.18-.61,4.82,4.82,0,0,1,.22-.57,5.27,5.27,0,0,1,1.65-2.19,4.12,4.12,0,0,1,1.56-.72,4.2,4.2,0,0,1,1.73,0h0a3,3,0,0,1,.43.12h0a2.62,2.62,0,0,1,.39.15,3.16,3.16,0,0,1,1.51,1.33h0a3.09,3.09,0,0,1,.34.87,5.64,5.64,0,0,1,.1,1.08v.23h-.23l-1.76.08H378v-.66h0a1.33,1.33,0,0,0-.26-.68h0a1.17,1.17,0,0,0-.36-.34h0a1.49,1.49,0,0,0-.49-.2h-.52a1.63,1.63,0,0,0-1,.39h0l-.19.16-.17.22a4.92,4.92,0,0,0-.74,1.69,6.19,6.19,0,0,0-.23,1.43,2.39,2.39,0,0,0,.14.95h0a1.14,1.14,0,0,0,.1.19h0c0,.06.07.12.11.17a1.51,1.51,0,0,0,.87.52,1.63,1.63,0,0,0,.54,0,1.42,1.42,0,0,0,.53-.2h0l.13-.1.14-.13h0a3.16,3.16,0,0,0,.68-1l.12-.23.24.14Zm9.29,6.26-1.77-.46-.17,0v-.18l-.1-2-2.89-.73-1.17,1.71-.11.14h-.16l-1.73-.45-.35-.08.21-.29,5.8-8.1.1-.12h.17l1.72.43.17,0v.18l.59,9.73v.32l-.33-.07ZM384.82,412l-.11-2.52-1.45,2.12,1.56.4Zm3.9,4.88,2.24-7.09-2.14-.58-.25-.07.08-.24.48-1.5.06-.22.23.06,6.39,1.74.24.07-.07.24-.48,1.5-.07.24-.22-.06-2.16-.59-2.25,7.09-.07.22-.22-.06-1.62-.45-.26-.07.09-.24Zm11.49,3.54-1.75-.52h-.18V417.7l-2.86-.83-1.22,1.66-.1.14-.16-.05-1.71-.49-.33-.1.21-.29,6.08-7.91.1-.12h.16l1.7.51.16,0v.18l.27,9.76v.34l-.32-.11Zm-2-4.93V413l-1.53,2.12,1.54.44Zm2.72,4.93,3.22-8.74.08-.22.22.07,3.36,1.14h0l.34.12h0l.32.12a4.3,4.3,0,0,1,1.16.66h0a2.44,2.44,0,0,1,.27.29,2.21,2.21,0,0,1,.4,1,2.62,2.62,0,0,1,0,.79,3.39,3.39,0,0,1-.2.82h0c0,.09-.08.18-.13.28l-.13.26h0a2.67,2.67,0,0,1-1,1h0l-.24.13h0l-.27.1a2.82,2.82,0,0,1-1,.13,5.46,5.46,0,0,1,.32.64h0c.07.23.14.47.19.72s.13.65.2,1l.33,2,.08.4-.39-.13-1.9-.64H406v-.13l-.44-2.29c-.08-.42-.15-.75-.21-1a3.68,3.68,0,0,0-.16-.54h0a.64.64,0,0,0-.12-.25.39.39,0,0,0-.15-.16.78.78,0,0,0-.24-.16l-.44-.18h-.1l-1.25,3.43-.09.22-.23-.08-1.59-.54-.23-.08.08-.23Zm4-4.57.94.31c.38.13.69.22.92.29h0a3.4,3.4,0,0,0,.46.09h.19a.75.75,0,0,0,.25-.13h0l.07-.07v-.05a1.57,1.57,0,0,0,.22-.38h0a1.53,1.53,0,0,0,.07-.36.61.61,0,0,0,0-.27.45.45,0,0,0-.12-.21h0a1.3,1.3,0,0,0-.23-.18h-.16a8.58,8.58,0,0,0-1-.34l-1-.34-.65,1.74Zm3.94,7.15,3.22-8.74.08-.22.23.08,1.59.53.24.07-.09.25-3.21,8.74-.08.22-.23-.07-1.59-.54-.23-.09.07-.23Zm3.1,1.12,3.35-8.69.08-.21.23.08,1.54.55.13.05v.14l.84,6,1.89-4.92.09-.22.22.08,1.47.53.23.08-.08.23-3.34,8.65-.08.23-.22-.09-1.59-.56h-.13v-.15l-.84-5.87-1.86,4.75-.08.22-.22-.08-1.47-.52-.23-.09.09-.24ZM427,430l-1.7-.65-.17-.06v-.19l.1-2L422.4,426l-1.31,1.59-.12.13-.16-.07-1.66-.63-.32-.13.22-.27,6.51-7.47.11-.13.17.06,1.65.63.17.06V420l-.38,9.81v.35L427,430Zm-1.64-5.07.15-2.53-1.64,2Z"/><path class="cls-7" d="M189.26,408.62l-.72-9.24v-.24h.24l5.72-.45h.25v.25l.12,1.55v.26h-.24l-3.8.3.13,1.69,3.24-.24h.24v.24l.13,1.57v.24h-.25l-3.24.27.29,3.67v.25h-.24l-1.68.12h-.24v-.24Zm7.09-.5-.59-9.25v-.25H196l6.2-.36h.25v.25l.1,1.57v.24h-.25l-4.26.25.09,1.56,4-.23h.24v.24l.11,1.56V404h-.25l-3.95.22.12,2,4.44-.26H203v.25l.1,1.56V408h-.24l-6.37.37h-.23v-.23ZM204.11,398l3-.06a7.69,7.69,0,0,1,1,0h0a4.66,4.66,0,0,1,.73.13h0l.21.08h0l.22.09h0a3.09,3.09,0,0,1,1,.73h0l.16.2.15.19h0a5.39,5.39,0,0,1,.58,1.18h0a5.07,5.07,0,0,1,.25,1,9.71,9.71,0,0,1,.11,1.21h0v.09a1.71,1.71,0,0,1,0,.32v.3h0a7.61,7.61,0,0,1-.2,1.34h0a.89.89,0,0,1-.09.29l-.11.28h0a4,4,0,0,1-.7,1.17,3.64,3.64,0,0,1-.56.48h0a3.61,3.61,0,0,1-.71.35h-.48a5.68,5.68,0,0,1-1.09.11l-3.18.06h-.24v-.24l-.3-9.26v-.24h.27Zm2,2,.17,5.63h1.6a2.32,2.32,0,0,0,.38-.06h0a1.09,1.09,0,0,0,.31-.14,1.57,1.57,0,0,0,.25-.2h0a1.17,1.17,0,0,0,.19-.3,2.16,2.16,0,0,0,.16-.49h0v0h0v-.36a8.28,8.28,0,0,0,0-1.22v-.36h0v-.27h0a5.14,5.14,0,0,0-.18-.95h0a2.37,2.37,0,0,0-.2-.46h0a1.59,1.59,0,0,0-.25-.33,1.28,1.28,0,0,0-.29-.28,1.63,1.63,0,0,0-.37-.13h0a2.61,2.61,0,0,0-.48-.05h-1.36Zm6.52,7.27L212.5,398v-.25h6.71v2h-4.53v1.57h4.21v2.06H214.7v2h4.71v2h-6.87v-.24Zm12.57-5.76Zm-2.57.11h2a1.74,1.74,0,0,0,.45-.06h.07a.66.66,0,0,0,.24-.23h0a1.6,1.6,0,0,0,.1-.23,1.82,1.82,0,0,0,0-.33,2,2,0,0,0,0-.35.75.75,0,0,0-.13-.25.68.68,0,0,0-.21-.17h0a.67.67,0,0,0-.28-.1h-2.31v1.84Zm14.08,6.26-1.84-.07h-.29l-.06-.17-.65-2-3-.12-.67,1.9-.05.17H230l-1.79-.06h-2.24l-.07-.11-1.21-2-.55-.89c-.1-.16-.21-.31-.32-.46h0a1.37,1.37,0,0,0-.22-.2.57.57,0,0,0-.21-.13,1.4,1.4,0,0,0-.28-.06h0a3.84,3.84,0,0,0-.48,0h-.09v3.86h-2.07v-9.76h.25l3.56.07h.84a3.85,3.85,0,0,1,1.21.26h0l.18.09a1,1,0,0,1,.17.12h0a2.14,2.14,0,0,1,.72.8,2.74,2.74,0,0,1,.3.75h0a3.34,3.34,0,0,1,.11.84h0a3.18,3.18,0,0,1-.16,1l-.06.15h0a2.65,2.65,0,0,1-.4.69h0l-.18.19h0l-.22.17a2.7,2.7,0,0,1-.85.42,3.65,3.65,0,0,1,.52.52,6.51,6.51,0,0,1,.43.6c.16.26.35.58.55.95h0l.8,1.42,3.26-8.7.06-.17h.18l1.79.07h.11l0,.16,3.21,9.39.12.34Zm-3.39-4.29-.77-2.44-.84,2.38Zm4,4.17.14-9.18v-.25h.24l1.69.06h.21v.23l-.12,7.38,4,.15h.24v2.11h-.24l-5.91-.21h-.23v-.29ZM97.72,422.57l1.59-.6.24-.1.08.25,1.55,4.74h0l.1.28h0l.09.26h0a5.85,5.85,0,0,0,.33.82h0a.47.47,0,0,0,.07.12l.07.11h0a1.07,1.07,0,0,0,.5.33h0a.91.91,0,0,0,.43.05h0a1.48,1.48,0,0,0,.55-.13h0l.16-.06.14-.08a1.1,1.1,0,0,0,.48-.45h0v-.2h0a1.23,1.23,0,0,0,0-.54,3.14,3.14,0,0,0-.14-.58c-.06-.25-.16-.54-.28-.89l-1.58-4.85-.08-.22.23-.09,1.59-.6.24-.1.07.24,1.52,4.6c.16.53.3,1,.4,1.37a8.62,8.62,0,0,1,.21,1,4.33,4.33,0,0,1,0,.72,2.6,2.6,0,0,1-.15.67h0a.33.33,0,0,1-.07.16L106,429h0a2.91,2.91,0,0,1-.59.8h0a3.42,3.42,0,0,1-.65.5,7,7,0,0,1-.87.42h0l-.33.12h0c-.1,0-.19.07-.29.09a3.41,3.41,0,0,1-1.27.15h0a2.29,2.29,0,0,1-.68-.14h0a2.49,2.49,0,0,1-.59-.29h0a.83.83,0,0,1-.15-.11h0l-.12-.1h0a2.48,2.48,0,0,1-.55-.66h0a5.09,5.09,0,0,1-.44-.91h0c-.15-.37-.3-.8-.47-1.28l-1.53-4.68-.08-.22.23-.08Zm10.63,6-2.73-8.8-.07-.23.22-.08,1.56-.56h.13l.11.1,4.4,4-1.55-5-.06-.22.22-.08,1.49-.55.24-.08.07.25,2.74,8.8.07.22-.22.08-1.61.58-.15.05-.11-.1-4.3-4,1.52,4.88.06.22-.22.07-1.49.54-.25.1-.07-.25Zm7.93-2.94-2.73-8.8-.06-.21.21-.08,1.6-.58.24-.09.09.24,2.73,8.81.07.22-.22.09-1.6.56-.24.09Zm5.15-1.85L116,415.87l-.18-.27.31-.11,1.74-.58.19-.06.1.16,3.49,5.19v-6.6l.16-.06,1.71-.58.33-.11v.35l-.26,9.83v.17l-.17.06-1.71.59-.18,0-.11-.14Zm5.4-1.95-2.31-8.94-.06-.22.23-.07,6-1.79.24-.07.06.26.38,1.51.08.22-.24.07L127.07,414l.4,1.51,3.82-1.15.25-.07.07.24L132,416l.06.22-.22.07L128,417.47l.5,2,4.26-1.26.26-.07v.24l.39,1.51.06.22-.22.07L127.12,422l-.24.06-.07-.25Zm7.46-2.3-2.17-9v-.23l.23-.06,3.44-1h0l.36-.09.33-.07h0a4.81,4.81,0,0,1,1.31-.11h.2l.2.06h0a2.31,2.31,0,0,1,.87.57,3.37,3.37,0,0,1,.47.65,4.13,4.13,0,0,1,.29.79h0v.05h0a1.41,1.41,0,0,1,0,.29v.29a2.69,2.69,0,0,1-.24,1.34h0a2,2,0,0,1-.13.25h0c0,.08-.11.15-.17.23a2.88,2.88,0,0,1-.73.66h.09a3.35,3.35,0,0,1,.52.3,6.44,6.44,0,0,1,.56.48h0c.22.2.48.44.76.74l1.42,1.48.27.3-.39.11-2,.54h-.13l-.1-.1-1.66-1.64c-.3-.29-.54-.53-.73-.69a3.62,3.62,0,0,0-.42-.36h0a.92.92,0,0,0-.24-.13h0l-.22,0a.76.76,0,0,0-.3,0h0a3.63,3.63,0,0,0-.45.1h-.11l.85,3.51.06.24-.24.06-1.63.44-.24.08-.07-.24Zm.81-6,1-.27c.39-.11.7-.2.95-.29h0a2.26,2.26,0,0,0,.42-.19h0v-.05h0a.66.66,0,0,0,.17-.29h0a.48.48,0,0,0,0-.17h0v-.15h0a.75.75,0,0,0-.05-.26,1,1,0,0,0-.12-.33.86.86,0,0,0-.18-.2.57.57,0,0,0-.22-.11.81.81,0,0,0-.31,0h-.19l-1,.26-1,.29.45,1.8Zm6.5.61,1.56-.6.23-.07.09.21a3.21,3.21,0,0,0,.35.66h0a1.28,1.28,0,0,0,.42.38h0a.23.23,0,0,0,.12.06h.13a1.63,1.63,0,0,0,.82,0h0l.2-.07.18-.06h0a1.32,1.32,0,0,0,.58-.44h0a1,1,0,0,0,.18-.4.81.81,0,0,0,0-.38h0v-.16a.68.68,0,0,0-.17-.21h0a.86.86,0,0,0-.19-.11h0l-.35-.07h-2.26a3.46,3.46,0,0,1-1.29-.4h0l-.26-.18-.23-.2a2.69,2.69,0,0,1-.76-1.39h0a2.77,2.77,0,0,1,.06-1.51h0l.08-.2h0a1,1,0,0,1,.09-.21,2.75,2.75,0,0,1,.72-.87h0a3.42,3.42,0,0,1,.73-.45,5.22,5.22,0,0,1,.89-.32A4.23,4.23,0,0,1,145,407a2.76,2.76,0,0,1,1.19.33h0a2.86,2.86,0,0,1,.87.79h0a3.54,3.54,0,0,1,.51,1.14l.06.23-.22.07-1.63.49-.22.07-.08-.21h0a.51.51,0,0,0-.07-.15h0a1,1,0,0,0-.07-.15h0a1.24,1.24,0,0,0-.41-.44h0a1.24,1.24,0,0,0-.38-.09,2.15,2.15,0,0,0-.56.07h0l-.18.05-.15.07a1.25,1.25,0,0,0-.57.42h0v.06a.76.76,0,0,0,0,.3.53.53,0,0,0,.26.34,1.5,1.5,0,0,0,.36.11h1.16a7.75,7.75,0,0,1,1.13,0,4.9,4.9,0,0,1,.85.16h0a2.76,2.76,0,0,1,.66.29,3,3,0,0,1,.56.46h0a2,2,0,0,1,.13.16h0l.12.19h0a3.42,3.42,0,0,1,.43,1.11h0V413h0v.46h0a3.11,3.11,0,0,1-.5,1.9h0a3.59,3.59,0,0,1-.59.64,3.77,3.77,0,0,1-.8.48,6,6,0,0,1-1,.35h0a4.7,4.7,0,0,1-1.49.15,3.2,3.2,0,0,1-1.25-.35h0a2.61,2.61,0,0,1-.3-.2l-.27-.23a4.24,4.24,0,0,1-1-1.75l-.08-.22.22-.06Zm8.46,1.2-1.88-9.06V406h.23l1.65-.39.23-.06v.25l1.89,9.06v.23l-.23.05-1.66.38-.23.07-.05-.24Zm1.63-10.13,3-.66a7.5,7.5,0,0,1,.93-.15h0a3.05,3.05,0,0,1,.74,0h.23l.23.06a3,3,0,0,1,1,.53h0l.18.15a1.29,1.29,0,0,0,.18.16,4.43,4.43,0,0,1,.76,1.07h0l.13.25c0,.09.08.18.11.26a9.75,9.75,0,0,1,.45,1.64v.06h0a1.6,1.6,0,0,1,0,.31v.3a6.46,6.46,0,0,1,0,1.39h0a4.43,4.43,0,0,1-.21,1,3.79,3.79,0,0,1-.39.87,3,3,0,0,1-.47.58,5.16,5.16,0,0,1-.64.49,3.93,3.93,0,0,1-.66.3,6.28,6.28,0,0,1-.85.23l-3.12.68-.24,0v-.25l-1.74-9.11-.05-.24h.25ZM154,406.8l1,5.54,1-.22a2.07,2.07,0,0,0,.57-.14,2.09,2.09,0,0,0,.35-.13h0a1.54,1.54,0,0,0,.5-.45h0a1.09,1.09,0,0,0,.15-.33h0a3.12,3.12,0,0,0,.08-.52h0v-.18h0v-.3a10.52,10.52,0,0,0-.14-1.11h0l-.06-.27h0l-.07-.26h0a4.2,4.2,0,0,0-.33-1h0l-.08-.14-.07-.12h0a1.56,1.56,0,0,0-.42-.43,1.37,1.37,0,0,0-.32-.16,1.34,1.34,0,0,0-.4-.06h-.47a4.58,4.58,0,0,0-.83.16l-.52.11Zm15.19,4.76-1.81.32h-.17l-.08-.15-1-1.8-3,.53-.33,2v.17h-.17l-1.77.32h-.35l.06-.33,1.77-9.72v-.16h.16l1.76-.31h.17l.08.14,4.78,8.57.17.3h-.34Zm-4-3.5-1.18-2.25-.41,2.52,1.59-.27Zm3.72-6.35,3-.42a7.3,7.3,0,0,1,.94-.09,3.05,3.05,0,0,1,.74,0h0l.22.06h0l.22.06a3.14,3.14,0,0,1,1,.62h0l.17.17h0l.17.19h0a4.43,4.43,0,0,1,.7,1.11h0c0,.09.07.17.1.26h0l.1.28h0a9.34,9.34,0,0,1,.36,1.65h0a10,10,0,0,1,.07,1.09h0v.22h0v.21h0a4.6,4.6,0,0,1-.06.52,5.14,5.14,0,0,1-.28,1,2.88,2.88,0,0,1-.44.83h0a3.26,3.26,0,0,1-.51.54,4.3,4.3,0,0,1-.67.44h0l-.17.08a.67.67,0,0,1-.18.07h0a5.3,5.3,0,0,1-1.18.26l-3.15.44h-.24v-.24l-1.17-9.2v-.23h.24Zm2.18,1.77.72,5.61,1-.14.58-.1h0a1.42,1.42,0,0,0,.35-.11h0l.31-.16a1.31,1.31,0,0,0,.23-.24h0a1.14,1.14,0,0,0,.16-.31h0a3,3,0,0,0,.11-.52h0v-.09h0v-.37h0a6.62,6.62,0,0,0-.07-1.18h0v-.54h0a5.2,5.2,0,0,0-.27-1h0l-.07-.14h0l-.08-.12h0a1.54,1.54,0,0,0-.37-.47h0a1.92,1.92,0,0,0-.31-.18h0a2.74,2.74,0,0,0-.39-.09h0a1.93,1.93,0,0,0-.48,0c-.23,0-.51.05-.85.09l-.5.06Zm7.09,6.31-.87-9.22v-.24h.24l6.19-.61h.24V400l.14,1.55v.24h-.24l-4.26.41.14,1.56,3.95-.38h.24v.25l.14,1.55v.26h-.24l-3.95.38.19,2,4.43-.43h.24v.23l.14,1.56v.24h-.24l-6.32.61H178v-.24Z"/><path class="cls-8" d="M120.09,147.25c-1.29,5.07-3,12.21-3.74,16.56a2.6,2.6,0,0,1-.45-.37c-.6-.59.36-1.54-1.52-1.42.91-2.1,1-5.86-.22-8a16.36,16.36,0,0,0-3.31-4.14,32.16,32.16,0,0,1-3.57-3.53,7.93,7.93,0,0,0-4.22-2.74,11.38,11.38,0,0,1-3.75-1.7,5.37,5.37,0,0,0-5.27.17c-1.63.51-4.76-1.25-7.09-1.86-.28,0-.18.14-.06.2C97.1,145,102.08,151.27,106.65,157c.66,1.09,5.37,6.15,5.57,6.79l.86-.08a1.44,1.44,0,0,1-.18.25c-.61.6-1.93.52-1.85,1.32s1.49.76,2,1.41.37,2.49,1.25,2.49,1.1-1.68,1.66-2.34q-1.41,11.82-2.66,23.09h-.66c-1.28.11-1,2-2.09,2.6-1.29-.93,1.9-7.79-.26-9.73a13.24,13.24,0,0,0-3.63-4.47,27.68,27.68,0,0,1-3.89-3.84,13.43,13.43,0,0,0-4.6-3,27.81,27.81,0,0,1-4-1.84,6.86,6.86,0,0,0-5.74.19c-1.4.65-4.91-1-7.77-2-.25,0-.24.22-.08.28,11.72,4.82,17.22,11.82,22.28,18.23a79.26,79.26,0,0,0,5.56,6.56,1,1,0,0,1,.36.61h.14a.56.56,0,0,0-.11.45c.1.95,1.75.9,2.41,1.66s.47,2.53,1.2,2.87q-1.52,14.13-2.56,27.43a4.43,4.43,0,0,1-.54-.43c-.7-.71.48-1.85-1.89-1.67a1,1,0,0,0-.25,0c1.28-3.12.93-4.91-.16-6.07a43.48,43.48,0,0,1-3.61-4.51,8.37,8.37,0,0,0-3.89-3.84,14,14,0,0,1-4.6-3,5.58,5.58,0,0,0-4-1.85,17,17,0,0,1-5.74.19,52.31,52.31,0,0,1-7.78-2c-1,.13-1,.47-.29,1,11.81,4.05,17.72,10.61,23.12,16.6,1.83,2,3.6,4,5.52,5.77.21.53-.14.74-.75.44-1.86-1.74-3.61-3.66-5.39-5.64-5.32-5.91-11.14-12.38-22.75-16.36-.65,0-.75.33-.32,1.13a35.45,35.45,0,0,1,1.8,4.32,15.18,15.18,0,0,1,.94,4.36,36.79,36.79,0,0,1,.81,4.88,5.8,5.8,0,0,0,3,2.41l6.72,1.49a3.65,3.65,0,0,1,2.51,2.84c-.12,1.83.12,3.61,1.23,4.12a8.54,8.54,0,0,1,2.62,1.29,10,10,0,0,0,4.78,1.28,3.54,3.54,0,0,0,1.65-2,7.67,7.67,0,0,1,1.57-2.18c.75-.53,1.47-.57,1.78.86.71.72.43,2.95,1.47,2.95s1.33-2.14,2-2.85l.13-.12c-.68,9.2-1.16,18.11-1.38,26.77-1.59-.79-.06-2.36-2.42-2.08a.59.59,0,0,0-.23.05c-1.11-.34-1.7-2.85-1.5-7.45.21-2.71-1-4.32-3.85-4.81A7.5,7.5,0,0,1,96,237.66a6.39,6.39,0,0,0-4.92-3.18,9.3,9.3,0,0,1-4.35-2,6.91,6.91,0,0,0-6.08.21c-2.2.23-5.16-.67-8.37-2.18-.75-.21-.87.62-.36,1.25C85,236.1,91.48,243.32,97.38,249.86a86.26,86.26,0,0,0,6.47,6.5c.61,1.06-.21.89-1,.53-2.14-2-4.12-4.15-6.14-6.41-5.83-6.45-12.21-13.54-25-17.84-.56-.12-.67.24-.31,1.07a33.12,33.12,0,0,1,1.93,4.6,13.57,13.57,0,0,1,1,4.66,17.46,17.46,0,0,0,.86,5.22,5.69,5.69,0,0,0,3.24,2.58,50.65,50.65,0,0,0,7.32,1.54,3.28,3.28,0,0,1,2.68,3,4.19,4.19,0,0,0,1.32,4.4,4.43,4.43,0,0,1,2.78,1.37,5.41,5.41,0,0,0,5.07,1.37,5.77,5.77,0,0,0,1.77-2.12A4.66,4.66,0,0,1,101,258c1.33-.11,3.2.78,3.3,1.49.71.72.43,2.94,1.47,2.94s1.33-2.13,2-2.84a1.94,1.94,0,0,1,.31-.26c-.14,8.19,0,16.14.34,23.89a5.88,5.88,0,0,1-.75-.59c-.71-.71.48-1.84-1.9-1.66-1.17.09-1,1.6-1.69,2.32,1-4.74.28-7.2-1.11-8.3a9.66,9.66,0,0,1-4.34-4.37A8.92,8.92,0,0,0,94.11,267a12.57,12.57,0,0,1-5.22-2.65,5.7,5.7,0,0,0-4.54-1.5,22.31,22.31,0,0,1-6.08.85,66.2,66.2,0,0,1-8.51-1.28c-.94-.17-1,1.36-.27,1.61,13.29,2.45,20.67,8.52,27.37,14.07,2.33,1.92,4.58,3.77,7,5.38.45.77.11.85-1,.45-2.24-1.56-4.36-3.32-6.56-5.13-6.64-5.48-13.93-11.48-27-13.9-.55-.06-.39.31-.13.76a40.42,40.42,0,0,0,2.4,4.38,12.24,12.24,0,0,1,1.58,4.54,14.63,14.63,0,0,0,1.4,5.06A5.87,5.87,0,0,0,78,281.88a32.41,32.41,0,0,0,7.35.75c2,.11,3,1,3,2.73-.3,2.64.48,3.88,1.78,4.25a8.89,8.89,0,0,1,2.92,1,9.05,9.05,0,0,0,5.17.82c.9-.19,1.4-1,1.54-2.3a5.53,5.53,0,0,1,1.41-2.4,2.25,2.25,0,0,1,2.7-.53,1.28,1.28,0,0,1,.45.35c.72.71.43,2.94,1.47,2.94s1.33-2.13,2-2.85a3.36,3.36,0,0,1,.77-.52,235.69,235.69,0,0,0,3.09,27c-.5-.24-.67-.32-.9-.69-.43-.61.11-1.54-1.62-1.42s-.84,1.38-1.45,2a2.4,2.4,0,0,1-.84.47c.38-3.23.27-7.23-1.4-9.06a16.63,16.63,0,0,1-4.43-4.3,9,9,0,0,0-4.63-3.54A14.15,14.15,0,0,1,91.13,294a5.88,5.88,0,0,0-4.56-1.41,23.73,23.73,0,0,1-6.08,1A72,72,0,0,1,72,292.52c-.92-.27-.9,1.36-.22,1.48,13.48,2.42,20.92,8.57,27.71,14.18,2.36,1.95,4.44,4.05,6.87,5.68.68.56.14,1.16-.7.68-2.38-1.62-4.42-3.74-6.74-5.66-6.69-5.52-14-11.57-27.28-13.95-.53-.09-.66.17-.13.89A22.34,22.34,0,0,1,74,300.14a38.44,38.44,0,0,1,1.62,4.43c.67,1.94.87,3.64,1.45,5.06a4.18,4.18,0,0,0,3.53,2.16,30.67,30.67,0,0,1,7.46.62c2,.52,3,1.43,3,2.68-.23,1.79.28,3.72,1.87,4.2a7.59,7.59,0,0,1,2.93,1,8.72,8.72,0,0,0,5.2.72,5,5,0,0,0,1.49-2.33,6.54,6.54,0,0,1,1.46-2.59,6.18,6.18,0,0,1,3.25-.86,1.81,1.81,0,0,1,.69.47c.61.62.36,2.51,1.24,2.51s1.19-1.77,1.75-2.42a1.64,1.64,0,0,1,1.11-.71,184.38,184.38,0,0,0,4.67,19.4h.1a5.56,5.56,0,0,0-.55-.52,11.65,11.65,0,0,1-4.42-4.28,11.11,11.11,0,0,0-4.64-3.55,11.49,11.49,0,0,1-5.27-2.55,6.33,6.33,0,0,0-4.55-1.41,22.36,22.36,0,0,1-6.07,1,58.08,58.08,0,0,1-8.52-1.11c-1.09-.25-1.18,1.86-.3,2,13.77,2.35,21.61,8.35,28.09,14.25a31,31,0,0,0,6.08,3.84c.32.55-.17,1.24-.73.88a28.35,28.35,0,0,1-6-4c-6.52-5.69-14.18-11.74-27.66-14.05-.26,0-.29.15-.07.41a19.09,19.09,0,0,1,2.49,4.34l1.59,4.49a20.87,20.87,0,0,1,1.52,5.07,6.22,6.22,0,0,0,3.6,2.2c2.57,1.15,4.94-.2,7.37.6,1.22.44,2.78,1.56,2.63,3.1.24,2,.78,3.51,2.28,3.78a4.1,4.1,0,0,1,2.94,1,8.26,8.26,0,0,0,5.2.72c1,.08,1.08-1.39,1.5-2.33a14.29,14.29,0,0,1,1.35-2.53c.68-.74,2.57-2,3-.68.52.69.34,2.43,1.18,2.43s1-1.26,1.47-2a155.2,155.2,0,0,0,7.9,17.68c-.66.65-.53,1.77-1.39,2.3a7.23,7.23,0,0,0-3.93-6.16,24.8,24.8,0,0,1-5.78-2.14,11.16,11.16,0,0,0-5.68-1.37,15.17,15.17,0,0,1-5.85-.21,5.83,5.83,0,0,0-4.75.56,12.6,12.6,0,0,1-5.09,3.28c-2.85.8-5.63,1.61-8.23,2.41a.77.77,0,0,0,0,1.09.68.68,0,0,0,.39.23c13.25-3.52,22.6-1.11,31.13,1.08,2.32.59,4.59,1.18,6.86,1.61.54.49.24.92-.83.76-2-.42-4.14-1-6.25-1.5-8.41-2.17-17.65-4.54-30.67-1.07-.52.19-.39.58.27,1l4,3a11.93,11.93,0,0,1,3.27,3.48,13.67,13.67,0,0,0,3.44,4.05,8.86,8.86,0,0,0,4,.54,28.15,28.15,0,0,0,7-2.43,3.47,3.47,0,0,1,3.81,1.19c.74,2,1.88,3,3.39,3.1a5.14,5.14,0,0,1,3.1-.27,7.87,7.87,0,0,0,5.06-1.43,2.79,2.79,0,0,0,.42-2.75,3.43,3.43,0,0,1,.23-2.85l1.65-1.21c.21.88.31,1.91,1,1.91,1.15,0,1.44-2.37,2.21-3,6.26,11,11.91,19.48,20.33,28.71,2.7-.64,5.41-1.23,8.1-1.77a108.85,108.85,0,0,1-22.89-27.5c.6-.6.89-2,1.46-2.58s1.64-.67,1.81-1.5c.4.7,1.35.76,1.43,1.92-.08.79,2.81.2,4-.86a6.62,6.62,0,0,1,2.23-1c.84-.83,1.71-1.63,1.67-2.95a2.53,2.53,0,0,1,1.74-2.68,36.68,36.68,0,0,0,5.71-.9,5.58,5.58,0,0,0,2.62-1.87,7.41,7.41,0,0,0,.88-4,7.33,7.33,0,0,1,1-3.59,22.62,22.62,0,0,0,1.68-3.51c.43-.48.54-.88-.2-.87-9.73,3.5-14.78,9.06-19.4,14.18-1.41,1.54-2.77,3-4.22,4.45-.52.55-1,.06-.67-.48,1.48-1.41,2.86-2.94,4.3-4.51,4.7-5.19,9.84-10.86,19.81-14.41.57-.26.5-1.22-.2-.87a17.15,17.15,0,0,1-6.56,1.36,14.94,14.94,0,0,0-4.76-.41,22.44,22.44,0,0,1-3.46,1.37,10.71,10.71,0,0,0-4,2.29,11.42,11.42,0,0,1-3.39,3,8.1,8.1,0,0,0-3.19,3.59,17.66,17.66,0,0,0-.52,6.55h-.35c-1.19.1-1,1.61-1.72,2.33a2.38,2.38,0,0,1-.83.48,161.16,161.16,0,0,1-8.88-19.08.68.68,0,0,0,.39.13c1,0,1.31-2.15,2-2.86s1.52-.66,1.77-1.33c.44,1.7,1,2.9,2.13,3a6.81,6.81,0,0,0,4.05-.86,6.72,6.72,0,0,1,2.22-.95c.93-.65,1.33-1.77,1.2-3.37,0-1,.73-1.72,2.21-2.27,1.79-.64,3.71-.38,5.71-.88a3.76,3.76,0,0,0,2.63-1.89,53.76,53.76,0,0,1,1.85-7.61,15.38,15.38,0,0,1,1.68-3.52c.15-.16.18-.28-.07-.31-9.66,2.45-15.19,7.3-20.25,11.75-1.73,1.53-3.41,3-5.18,4.32-.43.3-.68-.49-.35-.74,1.71-1.28,3.33-2.71,5-4.18,5.13-4.52,10.71-9.44,20.57-11.93.63-.48.49-1.2-.33-1.43-2.1-.13-4.61,1.42-6.57,1.36a21.78,21.78,0,0,1-4.76-.41,4.05,4.05,0,0,0-3.46,1.37,10.33,10.33,0,0,1-4,2.29,7.71,7.71,0,0,0-3.4,3,14.21,14.21,0,0,1-3.2,3.58c-1.14,1.22-.93,3.62-.41,5.37-2.25-.51-2,1.36-2.82,2.28a2.08,2.08,0,0,1-.74.45,189,189,0,0,1-6.32-22.52,16.8,16.8,0,0,1,1-1.86c.55-.56,1.14-.28,1.86-.17a3.49,3.49,0,0,1,1.33,2A2.2,2.2,0,0,0,122,317a5.93,5.93,0,0,0,4.39-.95,6,6,0,0,1,2.44-1c1-.19,1.66-1.12,1.32-3.71a2.77,2.77,0,0,1,2.43-2.47l6.26-1a3.16,3.16,0,0,0,2.88-2,26.7,26.7,0,0,1,1-4.42l1.07-3.94a15,15,0,0,1,1.86-3.86c.29-.41.24-.63-.17-.67-9.86,2.93-15.43,8.1-20.55,12.9a74.72,74.72,0,0,1-6.17,5.36h0c-.77.33-.88-.28-.57-.54,2-1.65,4.25-3.4,6.27-5.41,5.18-4.86,10.83-10.13,20.89-13.11a.75.75,0,0,0,.14-1.05.8.8,0,0,0-.44-.28c-.65-.05-4.73,2-7.19,1.54-1.71,0-3.45-1-5.24-.48a22.38,22.38,0,0,1-3.81,1.51,16.62,16.62,0,0,0-4.34,2.5,25.59,25.59,0,0,1-3.73,3.32,15,15,0,0,0-3.5,3.95,8.72,8.72,0,0,0-.44,5.59,2.3,2.3,0,0,0-1-.07.81.81,0,0,0-.68.37c-1.19-6.41-2.09-12.92-2.76-19.52a.65.65,0,0,0,.56.33c1,0,1.33-2.14,2-2.85.41-1,1.34-1,1.78-1.34a4.05,4.05,0,0,1,2.52.35,2.87,2.87,0,0,1,1.32,2.16,2.66,2.66,0,0,0,1.49,2,8.15,8.15,0,0,0,4.66-1,4.66,4.66,0,0,1,2.54-1.09c1.41-.35,1.66-1.84,1.39-3.87a2.68,2.68,0,0,1,2.53-2.59,10.17,10.17,0,0,0,6.54-1,11.22,11.22,0,0,0,3-2.16,10.25,10.25,0,0,0,1-4.62,11.15,11.15,0,0,1,1.13-4.12,19.79,19.79,0,0,1,1.91-4.06c-11.38,2.76-17.43,8.41-22.94,13.55a78.69,78.69,0,0,1-6.17,5.36c-1,.61-1.19-.13-.46-.63a80.5,80.5,0,0,0,6.07-5.3c5.59-5.22,11.72-10.95,23.3-13.76,1.14-.78.9-2.33-.5-2.12a15.74,15.74,0,0,1-7.51,1.56c-1.67-.62-3.56-1.27-5.47-.47a9.79,9.79,0,0,1-4,1.56,6.74,6.74,0,0,0-4.54,2.63,8.63,8.63,0,0,1-3.89,3.48c-2.26.81-3.45,2.19-3.67,4.11a36.46,36.46,0,0,1-.68,7.87c-.71.23-1.23.32-1.58-.49s.48-1.84-1.89-1.66c-.73.06-.94.67-1.15,1.29-.68-8.9-1-18-.89-27.13.47.53,1.7.6,2.23,1.23.71.72.44,2.94,1.47,2.94s1.89-1.85,2-2.84c.13-.83.94-.83,1.54-1a2.65,2.65,0,0,0-.22,2.61,3.25,3.25,0,0,0,3,.43,1.7,1.7,0,0,1,1.43,2,1.55,1.55,0,0,1,0,.21c.07,1.22.29,2.25,1.49,2a5.94,5.94,0,0,1,4.59-1,2.19,2.19,0,0,0,2.55-1.1c.45-1.29.91-2.58,1.38-3.86a4.91,4.91,0,0,1,2.54-2.61,38.9,38.9,0,0,1,6.53-1,4.38,4.38,0,0,0,3-2.16,19.65,19.65,0,0,0,1-4.62,16.81,16.81,0,0,1,1.12-4.11,19.05,19.05,0,0,1,1.93-4l-.11-.45c-10.73,2.85-16.56,8.3-21.91,13.28a71.59,71.59,0,0,1-6.18,5.37c-1,.62-1.18-.12-.44-.63a72.87,72.87,0,0,0,6.07-5.3c5.42-5.07,11.35-10.59,22.29-13.49,1.09-.47,1-1.94-.39-1.68a14.73,14.73,0,0,1-7.52,1.57,9.56,9.56,0,0,0-5.47-.46,25.72,25.72,0,0,1-4,1.57,10.56,10.56,0,0,0-4.53,2.62,32.13,32.13,0,0,1-3.9,3.47,18.44,18.44,0,0,0-3.6,4.13,7.1,7.1,0,0,0-.45,5.87c-.53-.27-1.56-.41-1.87-1.54-.71-.72.47-1.85-1.9-1.65-1.18.09-1,1.61-1.7,2.32-.54.54-1.56.61-2,1q.12-12.21.92-24.7a2.71,2.71,0,0,1,1,.62c.71.71.42,2.94,1.47,2.94s1.34-2.11,2-2.85a2.13,2.13,0,0,1,1.39-.86,3.57,3.57,0,0,1,2.92.41,6.3,6.3,0,0,1,1.39,2.17,3.13,3.13,0,0,0,1.48,2,5.61,5.61,0,0,0,4.6-1,4.62,4.62,0,0,1,2.54-1.09c1.14-.69,1.52-2,1.38-3.88a3.88,3.88,0,0,1,2.54-2.58c2.25-.47,4.49-.26,6.55-1a5.19,5.19,0,0,0,3-2.15c.54-1.39.56-3.09,1-4.62s.67-2.75,1.11-4.12a26,26,0,0,1,1.94-4c.37-.35.32-.55-.15-.62-10.62,2.85-16.43,8.28-21.74,13.25a76.53,76.53,0,0,1-6.17,5.35c-1,.62-1.19-.12-.45-.62a73,73,0,0,0,6.07-5.31c5.39-5.07,11.29-10.54,22.09-13.44.58-.45.19-1.58-.34-1.5a28.13,28.13,0,0,1-7.53,1.56c-1.82,0-3.64-.52-5.47-.47a8,8,0,0,0-4,1.57,23.7,23.7,0,0,1-4.52,2.63,10,10,0,0,0-3.9,3.47,12.83,12.83,0,0,0-3.67,4.12c-1,2.08.16,7.17-.64,8.1-.54-.28-1.32-.48-1.62-1.3-.71-.71.48-1.86-1.89-1.66-1.19.1-1,1.61-1.7,2.33a2.12,2.12,0,0,1-.67.41c.64-9.69,1.53-19.48,2.58-29.31a4.72,4.72,0,0,1,1.65.85c.71.71.43,2.95,1.47,2.95s1.45-2,2-2.85a1.1,1.1,0,0,1,.89-.57,3,3,0,0,1,2.87.41,7.14,7.14,0,0,1,1.39,2.16,3.76,3.76,0,0,0,1.48,2,6.62,6.62,0,0,0,4.6-1,5.17,5.17,0,0,1,2.54-1.09c1-.43,1.49-1.76,1.39-3.88,0-1.14.74-2,2.53-2.6,2.18-.49,4.36-.21,6.54-1a5.5,5.5,0,0,0,3-2.16,14.88,14.88,0,0,0,1-4.61,13.47,13.47,0,0,1,1.12-4.13c.73-1.34,1.34-2.68,1.93-4.05.26-.36.21-.54-.13-.53-10.74,2.83-16.58,8.3-21.93,13.28a74.72,74.72,0,0,1-6.17,5.36c-1,.62-1.19-.12-.45-.63a74.53,74.53,0,0,0,6.08-5.29c5.41-5.07,11.35-10.61,22.28-13.49a.84.84,0,0,0-.37-1.58,18.48,18.48,0,0,1-7.51,1.56,10.4,10.4,0,0,0-5.47-.47c-6.23,2.27-12.55,5.88-16.08,11.79-1.69,2.31.23,7-.58,7.4-.49-.17-1-.36-1.13-.86-.27-1,.48-1.85-1.89-1.65-1.19.09-1,1.61-1.71,2.31a3.33,3.33,0,0,1-1.22.64l.11-1c.71-.6,1.73-.61,1.73-1.65,0-.8-.7-1.24-1.35-1.71q1.41-12.44,3-25a3.1,3.1,0,0,1,1.24.66c.58.56.35,2.34,1.18,2.34s1-1.7,1.63-2.27a5.93,5.93,0,0,1,1.1-.68c.16.78-1,2.21-.18,2.34a7.89,7.89,0,0,1,3,.41,2.32,2.32,0,0,1,1.38,2.16c-.06,1.57.37,2.35,1.48,2a9.52,9.52,0,0,1,4.59-1,2.4,2.4,0,0,0,2.55-1.09l1.38-3.87A3.89,3.89,0,0,1,140,165.6l6.54-1c1.71-.25,2.72-1,3-2.16l1-4.62,1.11-4.11a9.28,9.28,0,0,1,1.94-4.06c.12-.19.05-.21,0-.22-10.81,2.84-16.67,8.32-22,13.32a80.69,80.69,0,0,1-6.17,5.37c-1,.61-1.19-.13-.46-.64a74.66,74.66,0,0,0,6.08-5.3c5.44-5.06,11.39-10.63,22.38-13.52,1.2-.51.74-2.21-.43-1.89a12.9,12.9,0,0,1-7.53,1.56,16,16,0,0,0-5.47-.47,20.59,20.59,0,0,0-4,1.57,29.77,29.77,0,0,0-12.08,10.21c-.82,1.36-1.33,3.23-.5,6.19-.34-.42-.93-.69-1.31-1.07-.58-.57.37-1.48-1.52-1.33-.95.07-.8,1.29-1.37,1.85a2.62,2.62,0,0,1-.87.47q1.14-8.7,2.31-17.39h.2c1,0,1.33-2.13,2-2.85s1.85-.66,1.85-1.75-1.29-1.51-2-2.23a1.37,1.37,0,0,1-.3-1c1,.14,1.26,1.73,2.7,1a13.91,13.91,0,0,0,3.3-3.33c.55-.83,1-1.56,1.54-2.31.76-1.33.14-2.67-1-4.05-.75-.67-.39-1.92.71-3.56a27.2,27.2,0,0,1,4.93-4.41,3,3,0,0,0,1.34-3.46,19.05,19.05,0,0,0-1.67-4.42,23.33,23.33,0,0,1-1.31-4c-.27-1.48-.45-3-.58-4.43,0-.48-.13-.61-.43-.41-6.75,9.25-7.78,17.35-8.71,24.73a75.64,75.64,0,0,1-1.31,8,2.31,2.31,0,0,0-.79-.08v-.08a74,74,0,0,0,1.31-8c.94-7.51,2-15.74,8.91-25.19.56-1-.28-1.52-1.14-1.11a47.2,47.2,0,0,0-5.44,5.42,10,10,0,0,1-4.62,2.71,3.58,3.58,0,0,0-2.48,3.48,10,10,0,0,1-2.37,4.68,7.28,7.28,0,0,0-1.37,5.06,11.05,11.05,0,0,1-.82,5.45c-1,4.06.47,7,4.77,8.76.8.18,1.72-.25,2.73-1.26.14-.12.29,0,.43.2H121c-1.18.1-1,1.62-1.7,2.32s-2.28.62-2.18,1.57c.09.66.85.85,1.56,1.14a2,2,0,0,1,.85.52,4.33,4.33,0,0,1,.6,1.77Zm-1.91,191.84c.13.41.27.83.41,1.24-2.13,1.15-.77.46-.26-1.24Zm133.58-37.48-21.94,42.76,1.57,2.48,22.78-44.56c-.83-.2-1.63-.44-2.41-.69Zm-59.3-82.44a13.38,13.38,0,0,0-.32-1.51h1.67a12.9,12.9,0,0,1,.82,2.67l1.18.56a12.57,12.57,0,0,1-.57-3.33h1.07a15.79,15.79,0,0,1,1.64,4.35l1,.49a13.27,13.27,0,0,1-.6-3.43h1.08a16.33,16.33,0,0,1,1.65,4.38l.39.2a12.46,12.46,0,0,1-.54-3.32H202a17,17,0,0,1,1.69,4.46l.4.2a12.65,12.65,0,0,1-.57-3.45h1.13a16.48,16.48,0,0,1,1.77,4.63l.33.18-.32-4.2c.38,0,.38-.57.74-.57a14.83,14.83,0,0,1,2,5.89l.63.4L208.64,223h1.25c1.21,1.4,1.68,4.12,2,5.69l.24.24-1.21-5.55h1.36c1.28,1.65,1.79,4.81,2.1,6.73l.2.11-1-5.13h1.19c1,1.51,1.5,4.28,1.77,6.21l.44.24-1.13-5.88H217c1.15,1.7,1.6,5,1.86,6.89l-1.91-1,2.52,1.42-1.07-5.77h1.22c1.17,1.7,1.64,4.94,1.93,6.95l.25.15-1.26-6.51H222c1.32,1.93,1.87,5.64,2.18,7.91l.62.38-1.34-7h1.47c1.43,2.1,2,6.17,2.31,8.53l.12.07L227.2,230l1.5.26c1.09,2.34,1,6.48.92,9l.16.1,1.18-7.91,1.42.49c.68,2.44-.06,6.41-.53,8.85l.23.17,1.16-7.8,1.42.49c.68,2.43,0,6.36-.52,8.8l.26.19,1.1-7.49,1.44.48c.66,2.36,0,6.13-.48,8.58l.55.44,1-7.22,1.42.48c.65,2.35,0,5.94-.49,8.36l.5.42,1.13-7.28,1.44.5c.63,2.35,0,6.08-.49,8.57l.25.22,1.08-7,1.44.5c.62,2.3,0,5.94-.46,8.4l.25.25.9-5.92,1.33.45c.55,2,.08,5.06-.33,7.31l.1.1.9-5.86,1.32.44c.54,2,.08,5.07-.34,7.35l.36.37.94-5.89,1.33.45c.55,2,0,5.25-.38,7.5l.13.15.91-5.54,1.32.45c.53,1.92.12,5.07-.27,7.34l.19.22.76-5.17,1.32.46c.51,1.86.12,4.71-.27,6.92l.37.44.85-5.25,1.32.45c.51,1.86,0,4.78-.44,7l.06.08.77-4.71,1.32.46c.48,1.73.06,4.4-.36,6.57l.24.34.78-4.8c.47.16,1,1.21,1.46,1.36.49,1.75,0,4-.49,5.9l.18.26,1.57-4.61c.43.23.59.7,1,.9a14.68,14.68,0,0,1-1,5.9l.33.49.73-4.48c.83.59,1.27,2.13,1.69,2.28a1.15,1.15,0,0,0,.1.35,1.47,1.47,0,0,1,.08-.35c.43-.15.87-1.69,1.7-2.28l.73,4.48.33-.49a14.68,14.68,0,0,1-1-5.9c.4-.2.55-.67,1-.9l1.51,4.64.18-.26c-.46-1.94-1-4.14-.48-5.9.42-.15,1-1.2,1.44-1.36l.79,4.8.25-.34c-.43-2.17-.84-4.84-.37-6.57l1.33-.46.77,4.71.06-.08c-.44-2.24-1-5.17-.44-7l1.31-.45.86,5.25.36-.44c-.4-2.2-.77-5.07-.27-6.92l1.32-.46.76,5.17.2-.22c-.4-2.29-.81-5.41-.28-7.34l1.33-.45.9,5.54.13-.15c-.42-2.26-.93-5.46-.37-7.5l1.33-.45.93,5.89.37-.37c-.43-2.25-.89-5.35-.35-7.35l1.32-.44.9,5.86.1-.1c-.41-2.25-.88-5.33-.33-7.31l1.32-.45.91,5.92.25-.25c-.48-2.46-1.09-6.07-.46-8.4l1.44-.5,1.08,7,.25-.22c-.47-2.46-1.14-6.22-.49-8.57l1.44-.5,1.12,7.28.5-.42c-.47-2.42-1.14-6-.49-8.36l1.42-.48,1,7.22.54-.44c-.46-2.45-1.13-6.23-.48-8.58l1.44-.48,1.11,7.49.26-.19c-.47-2.44-1.2-6.37-.53-8.8l1.43-.49,1.16,7.8.22-.17c-.46-2.44-1.2-6.4-.54-8.85l1.44-.49,1.18,7.91.15-.1c-.07-2.48-.17-6.62.92-9l1.5-.26-.11,7.68.12-.07c.34-2.36.88-6.43,2.32-8.53h1.47l-1.36,6.95.62-.38c.31-2.27.85-6,2.18-7.91h1.39l-1.25,6.51.26-.15c.29-2,.76-5.25,1.93-6.95h1.22L310,233l.6-.42c.26-1.9.71-5.19,1.87-6.89h1.18l-1.07,5.88.44-.24c.28-1.94.75-4.7,1.78-6.21H316l-1,5.13.2-.11c.31-1.92.82-5.06,2.1-6.73h1.35l-1.21,5.55.25-.24c.28-1.57.74-4.29,2-5.69h1.25l-1.2,4.73c.85-.49,1.22-.63,1.24-.74q.66-2.76,1.34-5.55c.37,0,.37.57.75.57l-.33,4.19L323,226a17.75,17.75,0,0,1,1.85-4.82h1.2a14.73,14.73,0,0,1-.85,3.77l.86-.4a16.81,16.81,0,0,1,1.38-4.49h1.06a15.4,15.4,0,0,1-.78,3.67,2.08,2.08,0,0,0,.87-.71c.46-.69-.23-1.63,1.42-4.1h1.07a13.26,13.26,0,0,1-.59,3.42l1-.48a15.94,15.94,0,0,1,1.65-4.37h1.07a12.58,12.58,0,0,1-.58,3.34l1.18-.56a12.35,12.35,0,0,1,.83-2.67h1.65c-.08.33-.16.72-.25,1.16a3.14,3.14,0,0,1,1-.4l.13.31-.55.35,2,1.49-.46.5-2.43-1.46-.56.3a7.18,7.18,0,0,1,1.73,1.47l-.46.5-2.31-1.38-.5.28a6.28,6.28,0,0,1,1.79,1.49l-.46.51-2.37-1.43-.57.32a6.08,6.08,0,0,1,1.78,1.49l-.44.47L332,222.16l-.34.19a8,8,0,0,1,2.2,1.86l-.6.64-3-1.78-.41.21a8.68,8.68,0,0,1,2.41,2l-.61.66-3.19-1.91-.53.28,3,2.45-.72.79-3.93-2.36-.76.41a16.27,16.27,0,0,1,4.05,2.94l-.91,1-4.73-3-.47.25a12.76,12.76,0,0,1,3.54,3l-.91,1L321.52,228l-.34.19c2.21,1.25,2.67,2.44,4.71,4l-1.36.38-5.57-3H319l-.14.08c2,1.19,2.5,2.35,4.45,3.78l-1.36.39-3.72-2c1,.86,1.67,1.77,3,2.81l-1.35.38-5.25-2.9-.44.26c2.23,1.07,2.78,2,4.94,3.49l-1.28.68-5.68-2.94-.08.05c2.56,1.33,3.3,2.5,5.82,4.29l-1.51.87-6.6-3.73-.58.36c2.43,1.31,3.39,2.46,5.84,4.2l-1.52.67-6.42-3.71-.3.21c2.57,1.3,3.7,2.62,6.32,4.34l-1.65.87-7.16-3.51h0c2.58,1.32,3.33,2.6,6,4.34l-1.65.87L302,240.08l-.12.08c3.2,1.54,4.42,3,7.51,5.07l-1.85,1-6.18-3.18c1.69,1.09,2.89,2.26,5.06,3.66l-1.75.94-3.88-2c1,.65,2,1.35,3.42,2.12l-1.71,1.08-3.34-1.41a38.67,38.67,0,0,0,3.32,2l-1.68,1.06-7.92-3.27-.13.11c2.9,1.19,4.19,2.51,7.16,4.15l-1.69,1.06-7.71-3.29h0c2.9,1.18,4.19,2.51,7.16,4.14L296,254.47l-7.67-3.18-.23.23a47.22,47.22,0,0,1,7.29,3.64l-1.68,1.07-7.9-2.5-.42.42a40.35,40.35,0,0,1,7.81,2.49l-1.55,1.26-6.07-1.3a34.69,34.69,0,0,1,4.23,1.88l-1.31,1.34L281.63,258l-.43.46a47.31,47.31,0,0,1,8.19,2.78l-1.58,1.28-7.9-1.7a29.11,29.11,0,0,1,6.15,2.51l-1.3,1.33L277.6,263a30.2,30.2,0,0,1,6.47,2.6l-1.31,1.34-7.28-1.74-.27.33a30.26,30.26,0,0,1,6.59,2.64l-1.34,1.35-7-1.68-.07.1c2.77.91,3.41.79,6.08,2.42L278,271.59l-3.39-.78a11.68,11.68,0,0,1,2.61,1.45L276,273.43,270.45,272l.15-.24-.32.45c2.41.88,2.94.77,5.25,2.34l-1.2,1.18-5.46-1.41-.09.14c2.47.91,3,.79,5.32,2.38L272.91,278l-5.48-1.45c-.44.71-.89,1.43-1.33,2.18.81,1.28,1.63,2.6,2.44,4-.92.11-1.84.2-2.75.24-.35-.62-.7-1.26-1-1.88L263.68,283a25.56,25.56,0,0,1-2.9-.11c.86-1.41,1.75-2.82,2.62-4.18-.44-.74-.87-1.45-1.32-2.17L256.59,278l-1.19-1.17c2.33-1.6,2.85-1.47,5.31-2.38l-.09-.15-5.45,1.42L254,274.5c2.31-1.57,2.84-1.46,5.23-2.34l-.31-.45.15.24-5.58,1.45-1.2-1.17a11.68,11.68,0,0,1,2.61-1.45l-3.39.78-1.42-1.23c2.69-1.63,3.33-1.52,6.08-2.42l-.09-.1-7,1.71-1.26-1.36a30.26,30.26,0,0,1,6.59-2.64l-.28-.33-7.32,1.74-1.31-1.34a30.28,30.28,0,0,1,6.48-2.6l-7.2,1.66-1.31-1.33a29.41,29.41,0,0,1,6.16-2.51l-7.9,1.7-1.59-1.28a48.17,48.17,0,0,1,8.19-2.78l-.43-.46L241,259.81l-1.3-1.34a36.5,36.5,0,0,1,4.24-1.89l-6.08,1.31-1.54-1.26a40,40,0,0,1,7.82-2.49l-.42-.42-7.9,2.48-1.68-1.06a47.06,47.06,0,0,1,7.28-3.63l-.23-.23-7.62,3.22-1.68-1.06c3-1.63,4.26-3,7.15-4.14h0l-7.72,3.24-1.68-1.06c3-1.63,4.26-2.95,7.16-4.14l-.19-.1-7.9,3.31L227,249.49c1.34-.74,2.36-1.42,3.33-2L227,248.87l-1.69-1.06c1.4-.77,2.42-1.47,3.42-2.12l-3.87,2-1.77-.93c2.16-1.41,3.37-2.58,5.06-3.68L222,246.23l-1.85-1c3-2,4.31-3.56,7.5-5.07l-.11-.08-6.77,3.48-1.65-.87c2.66-1.74,3.42-3,6-4.34h0L218,241.85l-1.65-.87c2.63-1.72,3.75-3,6.32-4.34l-.29-.21-6.45,3.72-1.54-.91c2.45-1.74,3.41-2.91,5.84-4.2l-.57-.37L213,238.4l-1.52-.86c2.52-1.8,3.26-3,5.82-4.31h-.08l-5.67,3-1.3-.69c2.17-1.43,2.73-2.41,4.95-3.48l-.44-.27-5.26,2.91-1.34-.38c1.06-.89,2.07-1.83,3-2.82l-3.72,2-1.26-.42c1.95-1.44,2.45-2.6,4.44-3.8l-.14-.07h.07l-5.57,3-1.36-.38c2-1.5,2.5-2.7,4.7-3.94l-.32-.2-4.69,2.81-.91-1a12.59,12.59,0,0,1,3.54-3l-.36-.2-4.59,2.75-.9-1a12.93,12.93,0,0,1,3.4-2.89l-.4-.22-4,2.52-.74-.79a10.18,10.18,0,0,1,3-2.43l-.73-.39-3.21,1.93-.65-.7a9.12,9.12,0,0,1,2.4-2l-.24-.14-3,1.78-.59-.64a8.18,8.18,0,0,1,2.19-1.87l-.18-.1-2.3,1.43-.44-.48a5.89,5.89,0,0,1,1.78-1.48l-.68-.38-2.33,1.4-.46-.5a6.56,6.56,0,0,1,1.75-1.48l-.44-.24L192,221.77l-.46-.5a7.66,7.66,0,0,1,1.4-1.27l-1.38-1.12c.31.13.59.19.9.3Zm84.46,81.36,16.92,32.74-1.57,2.67L275,301.33a19.63,19.63,0,0,0,2-.8Zm113.13-93.36c7.81,18.23,9.72,26.88,31.32,19.57a38.77,38.77,0,0,0-8.62-4.05c-6.8-2.62-15-5.81-22.37-15.19h0l-.33-.26Zm54.6,151.36c-15.78,13.64-21.59,20.94-38.48,4.4a44.83,44.83,0,0,1,8.35.42h0c7.51.82,16.65,1.82,29.52-4.44l.1-.28.5-.1Zm-38.83,4.05-.32-.32c24.45-18.84,26.48-1.39,38.64-3.62-12.39,6-21.43,5.07-28.85,4.24h0a38.48,38.48,0,0,0-9.47-.3Zm44.71-38.94c-10.88,17.37-14.18,25.85-35,15,1.72-.43,3.56-.74,5.52-1.08,8.1-1.42,18-3.17,29.09-13.49v-.29a2.31,2.31,0,0,0,.35-.18ZM415.08,338.3c17.45-24.58,24.31-8.76,35.11-14.46-10.66,10-20.49,11.68-28.52,13.08a66.3,66.3,0,0,0-6.59,1.38ZM457,293.73l-.22.43-.08.15c-9.12,18.15-11.93,26.77-33.59,17.93,1.34-.43,2.77-.84,4.26-1.27,8.54-2.48,19.31-5.6,29.17-16.66V294ZM422.32,312h0c15.38-26.51,23.82-11.34,34.14-17.89-9.52,10.65-20.15,13.73-28.61,16.21-2,.58-3.82,1.11-5.52,1.71Zm37-51.22c-7.25,20.89-8.72,30.64-33.05,24.31,1.59-.8,3.34-1.59,5.22-2.43,8.35-3.74,19-8.5,27.55-21.18v-.31c-8.28,12.23-18.8,16.94-27.08,20.65-2.35,1-4.51,2-6.42,3h-.08c12.62-30.61,23.83-14.85,33.9-24.13Zm-.75-28.36c-6.91,19.88-8.27,29.11-31.7,22.94,1.64-.9,3.56-1.77,5.68-2.73,7.72-3.53,17.82-8.1,25.72-19.82v-.1l.32-.29Zm-32,22.57c11.61-27.92,22-14.51,31.29-22-7.58,10.84-17.41,15.28-24.94,18.76a66.33,66.33,0,0,0-6.38,3.16Zm28.22-51.48c-6.53,18.82-7.82,27.54-30,21.67a38.61,38.61,0,0,1,8.72-4.75c6.54-2.9,14.18-6.3,21-16.31v-.27l.38-.34ZM424.55,225c11.14-26.86,21-13.6,29.91-21.14-6.49,9.59-14.06,13-20.52,15.82C430.38,221.22,427.15,222.68,424.55,225Zm27.35-52-.07.2-.07.17c-6.07,17.6-7.67,26.21-26.64,22.08-1-.22-2.09-.48-3.2-.78,2.37-2.08,5.51-3.56,9-5.2,6.54-3,14.26-6.71,20.63-16.14h0l.12-.11a2.23,2.23,0,0,0,.24-.19Zm-30.32,21.52c10.94-26.48,20.71-14,29.51-20.84-6,8.57-13.45,12.06-19.77,15-3.79,1.77-7.19,3.37-9.74,5.8ZM369.42,338c6.16,18.1,7.31,26.44,28.86,20.81-.07-.17-.15-.33-.21-.49-2.31-3.16-5.65-4.37-9.52-5.76-5.64-2-12.34-4.46-18.87-14.28v-.06l-.27-.22Zm28.36,19.58c-10.13-23.93-19.42-12.39-27.67-19,6.15,9,12.62,11.29,18.09,13.26,3.77,1.36,7.09,2.56,9.58,5.76ZM380.1,317.5c7.42,17.37,9.25,25.61,29.63,18.8a27.05,27.05,0,0,0-6.21-2.72c-6.25-2.27-15-5.31-23.22-15.88h0c-.07-.06-.15-.11-.22-.18ZM410,336.21l.41-.14a152.82,152.82,0,0,1-37.75,58.74c2.26.42,4.49.86,6.72,1.34,55.8-60.61,50-130.89,38-231.77-.21-1.78-2.32-15.12-3-18a32.37,32.37,0,0,0-1.21-4.44c13.09-15.95,6.55-20.66-6.84-32.52,7.95,12.32,7.65,16,7,24-.18,2.19-.4,4.68-.47,7.77a2.62,2.62,0,0,0-.33-.53c.08-2.87.27-5.21.44-7.26.69-8.1,1-11.76-7.59-24.84l-.24-.21c3.86,10.89-12.66,14.18,7,34.09l.12.9c3.72,27.72,7.51,55.55,9.28,82.65-12.61-24.94-21.43-12.07-30.62-18.23,6.93,8.52,14.86,11.59,21.41,14.12,3.59,1.39,6.78,2.62,9.24,4.55,2.52,38.87.86,76.23-11.14,109.6-12.24-24.65-20.73-12-29.6-18,7.8,9.67,16.2,12.68,22.28,14.84,2.91,1,5.29,1.89,6.91,3.33Zm-170.7,91.44c-11.4,8.23-19.62,19.87-22.54,38.37,2.79,0,7.37,4.73,10.23,4.73,4.53-24.92,12.58-37.37,23.86-44.38q-5.78.48-11.55,1.28ZM385.36,289.13c7.82,18.23,9.72,26.87,31.31,19.58-1.79-3.5-5.42-4.71-9.88-6.21-5.62-1.88-12.52-4.2-19-11.88a11.18,11.18,0,0,1-2.42-1.49ZM417,308.59h.13c-11.86-23.9-20.37-14.3-28.94-17.75,6.08,6.93,12.72,9.12,18.14,11,4.8,1.61,8.7,2.92,10.67,6.82ZM388.65,262.9c7.85,18.35,9.74,27,31.64,19.46-2-2.91-5.53-4-9.72-5.27-6.07-1.85-13.53-4.15-20.5-13v-.17a12.86,12.86,0,0,1-1.44-1ZM420,281.33C407.8,257.59,399.16,268.94,390.3,264c6.6,8.33,13.91,10.57,19.86,12.38,4,1.26,7.52,2.31,9.79,5Zm-29.57-46.59c7.84,18.34,9.73,26.94,31.56,19.49a38.44,38.44,0,0,0-8.38-3.76c-6.89-2.51-15.36-5.6-22.85-15.19V235c7.19,9.18,15.58,12.23,22.38,14.72,3.45,1.26,6.52,2.36,8.88,4.1-13.09-26.09-22.09-11.48-31.61-19.1Zm-3.85-59.29c7.86,18.4,9.73,27,31.77,19.42l-.11-.2a53.11,53.11,0,0,0-6.84-2.86c-7.09-2.63-16.2-6-23.92-15.69-.29-.2-.6-.43-.9-.67ZM417.87,194c-12.29-24.09-21-12.35-29.92-17.59,7.36,8.88,16.09,12.1,23,14.65A51.7,51.7,0,0,1,417.87,194Zm-35.44-46.14c7.8,18.23,9.71,26.87,31.28,19.58l.49-.16c-.1-.19-.19-.4-.3-.58a107.4,107.4,0,0,0-10.62-6c-6.22-3.26-13.53-7.09-20.33-12.1h0l-.29-.58-.22-.17Zm31.16,18.23c-11.65-22.47-20-13.06-28.47-16.6a9.3,9.3,0,0,1-1.41-.71A157.68,157.68,0,0,0,402.82,160a104.67,104.67,0,0,1,10.72,6.07Zm32.19-20.56-.36,1.15-.08-.28-.11-.35.55-.52Zm-.53,1.73c-5,16.48-6.59,24.16-25.27,20l-1.33-.31c3.24-3.28,6.51-4.55,9.9-5.88,5.22-2,10.71-4.17,16.7-13.83ZM418.8,165.61c9.23-23.82,18.39-12.85,26.19-19.33-6,9.67-11.5,11.82-16.71,13.86-3.24,1.25-6.39,2.49-9.48,5.47ZM287.5,426.75c12.16,8,20.54,20,24.39,44,2.89,0,6.57-3.82,9.39-3.82-3.33-20.06-11.53-30.84-23-38.83-3.61-.54-7.21-1-10.82-1.36ZM107.88,193.56h-.45a2.69,2.69,0,0,0-1.56,2.19c0,1.56-.58,2.12-1.66,2a13,13,0,0,0-4.74-1.27,4.82,4.82,0,0,1-2.61-1.33c-.7-1.08-.74-3-1.24-4.13a5.08,5.08,0,0,0-2.51-2.84,29.21,29.21,0,0,0-6.79-1.42,3.48,3.48,0,0,1-3-2.43,33.35,33.35,0,0,1-.81-4.88,21.71,21.71,0,0,0-2.75-8.68c-.66-1.5-.25-2.15.55-1.9,11.46,4.73,16.9,11.62,21.85,17.9a80.9,80.9,0,0,0,5.64,6.63l.09.1ZM111.51,164a2.58,2.58,0,0,0-1.4,1.95c-.39.73-.51,1.85-1.53,1.82-1.28-.51-2.94-.65-4.36-1.17a7.73,7.73,0,0,1-2.39-1.18,4.08,4.08,0,0,1-1.13-3.78A3,3,0,0,0,98.39,159a38.73,38.73,0,0,1-6.23-1.3,4.79,4.79,0,0,1-2.79-2.22,10.94,10.94,0,0,1-.74-4.49,25.63,25.63,0,0,0-.87-4.05,24.55,24.55,0,0,0-1.66-4c-.49-1.33-.25-2.12.51-1.77,10,4.42,14.89,10.63,19.37,16.31,1.59,1.82,4.31,5.18,5.53,6.43Z"/><path class="cls-1" d="M225.49,430.36a3.38,3.38,0,0,1-3-3.35A2.67,2.67,0,0,1,225,424.2h.15l22.28-2.3a3.14,3.14,0,0,0,3-3.14,2.88,2.88,0,0,0-2.86-2.92h-.8l-29.41,1.7,4.51,11.32c1,1.93,2.29,1.48,3.51,1.51Z"/><path class="cls-1" d="M135.83,442.9c2.26-3.41-.79-6.15-3.34-5.24l-28.24,9.46a.75.75,0,0,1-.61.27,2.85,2.85,0,0,1-.59-5.63l30.6-9.5,3,6.2q.83,3.12-.83,4.44Z"/><path class="cls-1" d="M400.1,443.17c-2.26-3.4.78-6.13,3.34-5.22l28.24,9.45a.76.76,0,0,0,.6.26,2.86,2.86,0,0,0,.61-5.63l-30.62-9.44-3,6.2c-.55,2.07-.26,3.56.83,4.43Z"/><path class="cls-1" d="M310.08,430.36a3.39,3.39,0,0,0,3-3.35,2.68,2.68,0,0,0-2.55-2.81h-.15l-22.28-2.3a3.15,3.15,0,0,1-3-3.14,2.89,2.89,0,0,1,2.87-2.92h.8L318,417.51l-4.41,11.34c-1,1.93-2.3,1.48-3.51,1.51Z"/><path class="cls-9" d="M259.2,220.2a1.59,1.59,0,0,1,0,.49Q246.63,246.82,234,272.94c-.16.32-.87.38-1.32.56q-6.1-29.59-12.23-59.2l19.88-31.63Z"/><path class="cls-9" d="M255.27,490.77c-.67-28-1.63-56-1.9-84a330.9,330.9,0,0,1,2-35.31c1.74-17.73,3.59-35.47,6.33-53.06,2.89-18.56,6.85-37,10.43-55.43a32.6,32.6,0,0,1,2.06-5.37C282,285,290.24,312.3,297.53,339.84c3.14,11.85,4.32,24.22,6.39,36.36-.77,10-1.59,20-2.3,30.07-1,14.17-2.3,28.34-2.8,42.53-.48,13.7-.11,27.44-.11,41.16l-.94.81Z"/><path class="cls-9" d="M228.52,162.05,211,177.58c-6.9-22.33-13.81-44.66-21.14-68.36C204.71,126.18,216.82,144,228.52,162.05Z"/><path class="cls-10" d="M210.54,349.56c1.18,9.35,2.51,18.69,3.5,28.06,2,18.7,4.06,37.4,5.54,56.14.9,11.43.94,22.94,1,34.42.05,7.52-.5,15.06-.78,22.59l-49.52,0c-1.33-10.37-3.27-20.71-3.84-31.13-.88-15.9-1.16-31.85-1.09-47.78.15-37.1,6.3-73.34,16.68-108.9,1.89-6.46,3.88-12.9,6.14-19.23.7-2,2.45-3.54,3.72-5.29q7,26.37,14,52.74C207.47,337.31,209,343.44,210.54,349.56Z"/><path class="cls-10" d="M172.3,225c-3.61,6.55-7.42,13-10.78,19.67-5.65,11.24-11,22.63-16.52,33.92a16,16,0,0,1-2.25,2.81A1051.41,1051.41,0,0,0,97.3,102.5C128.91,139.24,153.55,180.3,172.3,225Z"/><path class="cls-11" d="M259.2,220.2c1-1.22,2.06-2.37,2.94-3.66q17.26-24.89,34.51-49.79a9.78,9.78,0,0,1,4.19-3.5c-3.83,11.63-8,23.16-11.41,34.91-5.25,18.12-10,36.38-14.91,54.6a25.23,25.23,0,0,0-.35,4.87,32.6,32.6,0,0,0-2.06,5.37c-3.58,18.46-7.54,36.87-10.43,55.43-2.74,17.59-4.59,35.33-6.33,53.06a330.9,330.9,0,0,0-2,35.31c.27,28,1.23,56,1.9,84H219.82c.28-7.53.83-15.07.78-22.59-.08-11.48-.12-23-1-34.42C218.1,415,216,396.32,214,377.62c-1-9.37-2.32-18.71-3.5-28.06q10.25-34,20.46-68c.78-2.61,1.16-5.35,1.72-8,.45-.18,1.16-.24,1.32-.56q12.61-26.1,25.14-52.25A1.59,1.59,0,0,0,259.2,220.2Z"/><path class="cls-12" d="M119.1,357.45c-1.11,7.86-2.32,15.71-3.33,23.59-2.63,20.42-5.31,40.83-7.68,61.28-.81,6.93-.76,13.95-1.11,20.93q-.48,13.77-1,27.54c-10.21,0-20.42.14-30.63,0-.75,0-2.15-1.83-2.14-2.8.31-27.21,1.19-54.42,1-81.62a484.77,484.77,0,0,0-3-48.46c-2-18.9-4.36-37.84-8-56.48q-7.68-39-17.68-77.55c-4.91-19-11.53-37.52-17.39-56.25-.43-1.37-.88-2.72-1.45-4.48,9.48,7.61,38.83,48.06,58.53,91.21A504.1,504.1,0,0,1,119.1,357.45Z"/><path class="cls-13" d="M396,185.39q6.66,11.66,13.29,23.32c2.65,4.68,5.23,9.39,7.84,14.09q7.49,16.44,15,32.87A579.81,579.81,0,0,1,460.23,352a656.34,656.34,0,0,1,12.62,110c.21,8.22.56,16.44.38,24.65,0,1.43-2.35,4-3.63,4-22.7.2-45.41.08-68.11,0,.06-1.48.08-3,.2-4.44,1.91-22.84,5.47-45.69,5.32-68.51-.17-26.8-2.53-53.71-5.91-80.32-2.31-18.24-8-36.05-12.16-54.06Q384.47,269.21,380,255q-11-25.83-21.95-51.67c-7.75-14.24-14.92-28.84-23.37-42.65a390.77,390.77,0,0,0-61.16-77,14,14,0,0,1-1.43-2l-.08.08c11.57,5.7,23.57,10.68,34.62,17.25,27.39,16.3,50.68,37.46,70.65,62.29a27.43,27.43,0,0,0,2.43,2.39Z"/><path class="cls-10" d="M356,490.76c.3-20.11-.21-40.27,1.14-60.31,1.27-19,4.47-37.93,6.86-56.88.55-4.35,1.29-8.67,1.94-13,.63-1.81,1.33-3.59,1.87-5.43q10.59-35.83,21.14-71.69c4.17,18,9.85,35.82,12.16,54.06,3.38,26.61,5.74,53.52,5.91,80.32.15,22.82-3.41,45.67-5.32,68.51-.12,1.47-.14,3-.2,4.44Z"/><path class="cls-10" d="M432.11,255.67q-7.5-16.44-15-32.87L456.4,163l2.4,1.25a32.37,32.37,0,0,1-.62,3.29q-12.63,43.2-25.3,86.37A15.12,15.12,0,0,1,432.11,255.67Z"/><path class="cls-12" d="M358.06,203.3Q369,229.13,380,255c-3.95,25.58-8.09,51.13-11.75,76.74-1.36,9.54-1.58,19.23-2.33,28.85-.65,4.34-1.39,8.66-1.94,13-2.39,18.95-5.59,37.85-6.86,56.88-1.35,20-.84,40.2-1.14,60.31l-57.23,0a7.55,7.55,0,0,0-.05-.83c0-13.72-.37-27.46.11-41.16.5-14.19,1.79-28.36,2.8-42.53.71-10,1.53-20,2.3-30.07,1.58-7.28,3.35-14.52,4.71-21.83,9.61-51.74,25-101.59,48.23-148.93C357.22,204.71,357.66,204,358.06,203.3Z"/><path class="cls-12" d="M396,185.39l-16.28-21.64q18.78-27,37.57-54l1.43,1Q407.36,148,396,185.39Z"/><path class="cls-13" d="M172.3,225c3.53-4.66,6.89-9.45,10.61-14,7.94-9.58,16.08-19,24.12-28.51,1.36-1.61,2.62-3.3,3.92-4.95l17.57-15.53c12.72-8.1,25.34-16.38,38.21-24.24,5.1-3.13,10.76-5.36,15-7.42-13.41,17-27.38,34.62-41.34,52.28L220.49,214.3c-.37.32-.89.56-1.08,1-9.21,19.48-18.43,39-27.5,58.52-.59,1.28,0,3.1,0,4.67-1.27,1.75-3,3.33-3.72,5.29-2.26,6.33-4.25,12.77-6.14,19.23-10.38,35.56-16.53,71.8-16.68,108.9-.07,15.93.21,31.88,1.09,47.78.57,10.42,2.51,20.76,3.84,31.13l-63.3,0q0-13.79,0-27.57c.35-7,.3-14,1.11-20.93,2.37-20.45,5-40.86,7.68-61.28,1-7.88,2.22-15.73,3.33-23.59a27.57,27.57,0,0,0,2.27-4.42q10.2-32.92,20.23-65.9a55.51,55.51,0,0,0,1.15-5.74,16,16,0,0,0,2.25-2.81c5.53-11.29,10.87-22.68,16.52-33.92C164.88,238,168.69,231.54,172.3,225Z"/></svg>