<svg id="Camada_1" data-name="Camada 1" xmlns="http://www.w3.org/2000/svg" viewBox="0 0 500 500"><defs><style>.cls-1,.cls-7{fill:#fff;}.cls-1,.cls-2,.cls-3,.cls-4,.cls-5,.cls-8{fill-rule:evenodd;}.cls-2{fill:#1e1e1c;}.cls-3{fill:#05519e;}.cls-4,.cls-6{fill:#e20e17;}.cls-5{fill:#ffe209;}.cls-8{fill:#009640;}</style></defs><path class="cls-1" d="M393,402.24l11.9,3.95c11.36,3.89,29.12,6.84,29.12,22.14l41.71,22.05-33.14,9.56,13.46,29.13-82.7-31.54c-4-3.14-7.8-12.11-11.54-13.9-16.5-7.88-26.72-8.79-56.1-9.8-6.74,13.15,6,34.67,8.36,49.51-10.67,0-18.55,3.7-29.38,3.7-2.52-15.93-4.85-34.29-19-44.68-1-.07-1.18,15.16-1.26,17,10.92,12.18,2.49,32.71-14.73,32.71s-25.59-20.31-14.88-32.53l-.62-15.25c-11,10.65-13.12,27.34-15.73,41.66-11.39,0-18.87-4.59-30-4.59,2-12.64,3.73-25.12,10.06-36.55,0-3.2-3.26-8.07-4.54-11.18-21.67.8-41.41,3.64-61.9,10.25a13,13,0,0,1-4.71,12.24L43.9,488.92l13.44-29.18-33.1-9.56,41.65-20.54c0-6.37,1.47-10.11,6.19-14.53,13-8.05,32.28-12.53,47.1-16.77-5.91-8.1-9.53-4.48-19.32-2.76-7.37-6.69-17.69-5.18-28.9-13.4-5.32-3.9-12-12-9-19.3,1.64-3.95,10.56.27,12.38-3.6,1.37-2.93-11.18-13.31-12.47-17.5-1-3.15-1.43-6.47-2.64-9.55-.93-2.39-2.77-4.37-3.74-6.74-1.11-2.68-1.63-5.57-2.5-8.34-.34-1.1-.72-2.2-1.17-3.27-.21-.49-.33-1.18-.82-1.41-1.09-.51-3,.4-3.57-.65-.74-1.27.45-2.92.67-4.38h0c.22-1.43.45-2.87.67-4.31.61-4,.94-8,1.83-11.92,2.37-11.1-8.26-12.34-2-29.35.44-1.21,3.27,1.73,3.85.58.93-1.91-.67-4.2-1.05-6.29-.21-1.15-.42-2.29-.74-3.4-.19-.65-.24-1.48-.79-1.88-.9-.66-2.76,0-3.19-1.07-.52-1.24.75-2.59,1.11-3.88v0c.41-1.43.84-2.86,1.24-4.29,1.1-3.82.95-8.27,3.3-11.49.86-1.19,11-.48,2.43-6.5-5.79-4.09-1.63-14.19,2.43-20.51,1.09-1.7,3.88,1.72,5.9,1.54,1-.09-2-.93-2.34-1.86-1-2.62-.88-5.52-1.37-8.26a25.35,25.35,0,0,0-.68-3.11,8.43,8.43,0,0,0-1.3-3.11c-.52-.6-2.25-.11-2.23-.91.08-3,1.67-5.7,2.5-8.55.95-3.29,1.18-6.89,2.83-9.89.37-.67,1.41.64,2.14.87,1.11.35,2.6,1.74,3.38.88s-.41-2.59-.65-3.87a25.74,25.74,0,0,0-.6-2.77,7.33,7.33,0,0,0-1.16-2.75c-.52-.58-1.85-.22-2.15-.94s.48-1.67.71-2.51c0,0,0,0,0,0l1.61-5.6,2.77-9.77h0l.21-.7,4.13,1.83,10.67,2.78,6-.19,1.32.59,1.1-7.37L91.81,133l3.12-6.11,4.2-5.88,5.49-2.93,11.23-11.12,14.4,13.88-2.05,2.78.18,1.38.92,2.84,2.91,7.63-3.58,9.12-.94.85,8.07-4.64V112.92h81.35c-11.73-5.67-15.45-22.84-4.29-29.51,4.07-11.1,7.33-21,4.8-35.48l11.79,2.33c-.71-9.92,5.07-18.34,6.93-20.94,12.34,4.09,23.36-11.58,32.06-21.41A84.33,84.33,0,0,1,279,40.07c7.44,14.39,12,23.4,7,39.83,0,9.65,19.15,20.54-1,32.52l-1,.49h80v38.25c4.95,3.76,5.91,3.15,12.09,3.44-10-15.13-4.62-32.45,10.8-41.61,12.8,11,29.12,23.08,18.11,41.81,9.83-4,15.9-2.93,26.06-8.07,1.32,10.59,2.17,17.72-.8,27.42l12-.49c-3,9.29-3.46,17-7.12,26.09,6.88-3.65,5.2,1.22,12.08-2.43-3.65,11.64-4.05,22.37-8.49,33.73,6.29-2.27,5.75-.56,12-2.84-6.54,23.41-20.4,49.9,1.08,30.2-5.62,16.12-6.15,18.41-12.54,34.24,9.41-1.93,5.71,4.66,15.12,2.74l-16,22.36c4.15,3.09,3.76,10.15,7.92,13.23-11,11.83-11.87,14.76-23.48,25.24,7.46,1.89,10.36,7.19,17.81,9.08C424,373.44,414,392.19,398,389.86l-15.36-.81c-8.4,12.38-3,8.9,10.4,13.19ZM268.34,389.68c-2.32,1.49,51.47-3.21,80.38,1.54a142.19,142.19,0,0,0,11.44-13.41c-9.54-2.19-14-10.13-18.4-22.2-20.75,16.47-50.49,21-73.42,34.07ZM159,357.4c-5,1.76-17.36,18.89-18.32,21.61-6.62,2.81,3.42,9.18,7,12.63q34.13-5.25,77.37-3.7A426.52,426.52,0,0,1,159,357.4Z"/><path class="cls-2" d="M238,108.58l-2.07,2.68-1.77,2.14h7.83l-1.76-2.13L238,108.58ZM254.15,467a9.86,9.86,0,1,1-9.34.1l-3.26-79.88c-12.87-10.28-37.62-17.09-61-28.16-22.41-10.62-35.85-23.8-36-38.56,0-67-.24-133.33-.24-200.3h86.37V107.31h-2.09l-.65-.08-.64-.24-.56-.37-.48-.48-.39-.57-.28-.63-.18-.7-.06-.7v-.12l.06-.7.18-.69.28-.64.08-.1h-3.1l-.53,0-.54-.08-.52-.13-.5-.18-.47-.23-.45-.27-.41-.3-.39-.35-.35-.38-.31-.41-.28-.45-.22-.46-.19-.5-.14-.51-.08-.53,0-.53V93.48l0-.52.08-.54.14-.51.19-.49.22-.48.28-.44.31-.41.35-.38.39-.34.41-.31.45-.26.47-.23.5-.18.52-.13.54-.08.53,0h2.5V84.08H274.1v4.07h3.8l.53,0,.54.08.52.13.5.18.47.23.45.26.41.31.39.34.35.38.31.41.27.44.24.48.18.49.13.51.09.54,0,.52V96l0,.53-.09.53-.13.51-.18.5-.24.46-.27.45-.31.41-.35.38-.39.35-.41.3-.45.27-.47.23-.5.18-.52.13-.54.08-.53,0h-4.17l.07.1.29.64.18.69.06.7v.12l-.06.71-.18.69-.29.64-.38.56-.48.48-.57.38-.64.24-.64.07h-1.42v12.85H355.1v91.53h0V320.34c-.28,14.42-16.59,31.08-38.69,40.12-24.4,10-47.12,16.88-58.64,25.48l-3.63,81Zm-4.48-358.54-2.24,2.85-1.77,2.14h8l-1.77-2.14-2.25-2.85Zm12.21,0-2.25,2.71-1.83,2.32h7.86l-1.56-2.35-2.22-2.68Z"/><polygon class="cls-3" points="145.96 121.81 353.45 121.81 353.45 213.32 145.96 213.32 145.96 121.81"/><path class="cls-4" d="M264,84.45l-28.61.13c-2-5.65-1.86-8.48,1-11.79,0,5.12,1.59,5.95,2.29,5,1.5-10.73,9-16.76,9-19l1.31,7.9c5.16-2.28,6.86-8.48,6.79-11.91a21.39,21.39,0,0,0,.58-6.39c0,7.68,5.87,18.89-1.14,26a10.88,10.88,0,0,0,6.42-6.6c-1.13,4.13-5,8.77-9.54,8.77,6.58-6.66,3.83-14.48,3.67-21.71-.81,3.24-2.48,6.57-5.66,8l-1.37-8.19c0,2.28-8.73,9.11-10.29,20.23-.73,1-1.24-.07-1.24-5.37-3.76,5.31-5.05,7.68-3,15h-3c-9.14-13.88,2.1-20.11-1.9-27.85l4.76,2.58c2.17-.35,9-.17,6.26-19l7.3,4.12c2.6-13,14.41-17.15,19.69-23.15-6.76,8.35,3.14,21.66-3.18,29.25,2.39,1.14,3.85,1.43,5.59-3.84,2.91,4,5.65,9,.41,16.51,2.39.57,5.18-2.73,6.73-5.59-1.3,9.69.1,16.48-9.33,26.77h-1.39c5.21-7.45,3.25-14,3.15-13.8a10.3,10.3,0,0,1-2,3.29c.33,1,.77,4.59-3.37,10.51Zm-1.74-18.57c3,4.31.4,7.54.4,11.94a7.44,7.44,0,0,0,4.24-3.41,7.26,7.26,0,0,1-2.25,1.46c1.89-5,1.49-9.58-2-14.22a20,20,0,0,1-.42,4.23Z"/><path class="cls-1" d="M212.49,188l-2.68,8.67,7.23,5.57-9.08.21-3.1,8.47-3.1-8.47-9.08-.41,7.22-5.36-2.47-8.89,7.43,5.37,7.63-5.16ZM208,155.36l36.05,0c.65.12,2.17.12,2.05,2.54V158a2.06,2.06,0,0,1-1.85,1.65h-13.3a2.06,2.06,0,0,0-2.06,2.8v-.07a2.37,2.37,0,0,0,1.27,1.06,1.7,1.7,0,0,0,.4,0h.05c2.83-.05,15.13,0,15.48,0H353.44v25.8h-123a2,2,0,0,1-1.57-2.14v-8.65H204.7l10.67-10.59L208,155.36Zm.28-26-3.72,8.26,6.61,6.4-9.09-.83-4.12,8.26-1.86-9.09L187,141.14l7.84-4.55-1.44-9.08,6.81,6,8-4.12Zm-34.49-1.69-3.72,8.25,6.6,6.4-9.08-.82-4.12,8.25-1.87-9.08-9.08-1.24,7.84-4.54-1.44-9.09,6.81,6,8.06-4.12Zm-9,35.49-1.24,8.47,7.23,4.12L162.49,177l-1.86,8.26-3.71-7.43-8.46.82,6-6-3.3-7.64,7.43,3.71,6.19-5.57Zm35.18-3.92-3.1,7,5.37,5.16-7.43-.62-3.3,6.81-1.65-7.43L182.19,169l6.61-3.72-1.24-7.43,5.57,5,6.81-3.51Z"/><path class="cls-5" d="M146,215.07H353.25c0,35.6.21,69.48.21,105.09-5,44.21-94.22,46.53-103.64,74.59-11-28.06-101.08-32.42-103.63-74.48l-.2-105.2Zm91.93-107.81,2.89,3.48,2.89,3.48H232.34l2.89-3.48,2.69-3.48ZM226.19,85.15h47.1v3.11h-47.1V85.15ZM223,88.92h55a4.58,4.58,0,0,1,4.6,4.53v2.42a4.58,4.58,0,0,1-4.6,4.53H223a4.58,4.58,0,0,1-4.6-4.53V93.45a4.58,4.58,0,0,1,4.6-4.53Zm5.71,12.26h42.4a2.62,2.62,0,0,1,2.46,2.75v0a2.61,2.61,0,0,1-2.46,2.74h-2.22v13.43H231.5V106.72h-2.84a2.62,2.62,0,0,1-2.47-2.74v0a2.63,2.63,0,0,1,2.47-2.75Zm28.23,286.29-3.59,80a9,9,0,1,1-7.64.08l-3.27-80.06c3.69,3.34,5.34,6.76,7.53,11.24,1.68-3.88,3-6.83,5.66-10l1.31-1.22Zm-7.22-280.4,2.89,3.67,2.89,3.48H243.91l2.88-3.48,2.88-3.67Zm12.21,0,2.88,3.48,2.44,3.67H256.1l2.89-3.67,2.89-3.48Z"/><path class="cls-4" d="M237,290.36c1.39-.86,4.91-1.42,8.85-1.42,5.22,0,9.46,1,9.46,2.2s-4.24,2.18-9.46,2.18-9.45-1-9.45-2.18q0-.4.6-.78Z"/><path class="cls-2" d="M244.23,159.67h-13.3c-2.78,0-3,3.86-.36,3.82,2.82,0,15.51,0,15.51,0l0-5.86a2,2,0,0,1-1.89,2Z"/><path class="cls-4" d="M231.88,183.29l3.66-13.39h1.38l3.93,13.39h-1.44l-1.11-4h-4.07l-1,4Zm2.77-5.53,3.24.07-1-3.72c-.28-1.18-.49-2.07-.69-2.83a15.77,15.77,0,0,1-.48,2.55l-1,3.93Zm7.38,5.53V169.9h4.28a3.64,3.64,0,0,1,1.93.34,2.44,2.44,0,0,1,1.1,1.25,5,5,0,0,1,.42,2.07,4,4,0,0,1-.69,2.41,3.18,3.18,0,0,1-2,1.25,3.83,3.83,0,0,1,.76.69,9.06,9.06,0,0,1,1,1.73l1.66,3.66h-1.59l-1.24-2.76a20.9,20.9,0,0,0-1-1.87,3.75,3.75,0,0,0-.62-.9c-.21-.13-.42-.27-.55-.34a2.33,2.33,0,0,0-.76-.07h-1.45v5.94H242Zm1.31-7.46H246a3.66,3.66,0,0,0,1.39-.27,1.3,1.3,0,0,0,.75-.83,2.23,2.23,0,0,0,.28-1.17A2.91,2.91,0,0,0,248,172a2,2,0,0,0-1.59-.62h-3v4.48Zm8.15,3.18,1.17-.13a4.83,4.83,0,0,0,.42,1.65,2.77,2.77,0,0,0,2.48,1.45,2.38,2.38,0,0,0,1.25-.34,1.93,1.93,0,0,0,.82-.83,2,2,0,0,0,.28-1.1,1.82,1.82,0,0,0-.28-1.1,1.59,1.59,0,0,0-.82-.84,14.14,14.14,0,0,0-1.73-.61,8.34,8.34,0,0,1-1.87-.9,2.6,2.6,0,0,1-1-1.24,4.17,4.17,0,0,1-.34-1.66,4.55,4.55,0,0,1,.41-1.93,2.91,2.91,0,0,1,1.24-1.31,3.58,3.58,0,0,1,1.73-.48,4.14,4.14,0,0,1,1.93.48,3.17,3.17,0,0,1,1.25,1.45,6.68,6.68,0,0,1,.48,2.14l-1.24.07a2.93,2.93,0,0,0-.69-1.87,1.9,1.9,0,0,0-1.66-.68,2.06,2.06,0,0,0-1.66.62,1.94,1.94,0,0,0-.55,1.38,1.9,1.9,0,0,0,.42,1.24,3.78,3.78,0,0,0,1.86.9,8.13,8.13,0,0,1,2.14.9,3.43,3.43,0,0,1,1.25,1.37,4.24,4.24,0,0,1,.41,1.87,4.16,4.16,0,0,1-.49,2.07,3.2,3.2,0,0,1-1.24,1.45,4.21,4.21,0,0,1-1.87.48,5,5,0,0,1-2.14-.48,3.54,3.54,0,0,1-1.38-1.59,5.43,5.43,0,0,1-.55-2.43Zm15,4.28V169.9h7v1.59h-5.65v4.07h5.31v1.59h-5.31v4.62h5.86v1.52Zm11.59,0v-11.8h-3.17V169.9h7.59v1.59H279.3v11.8ZM289,179l1.18-.13a4.62,4.62,0,0,0,.41,1.65A2.77,2.77,0,0,0,293,182a2.6,2.6,0,0,0,1.31-.34,2.53,2.53,0,0,0,.83-.83,2,2,0,0,0,.27-1.1,1.89,1.89,0,0,0-.27-1.1,2,2,0,0,0-.83-.84,14.14,14.14,0,0,0-1.73-.61,8.44,8.44,0,0,1-1.86-.9,2.62,2.62,0,0,1-1-1.24,4.17,4.17,0,0,1-.34-1.66,4.42,4.42,0,0,1,.42-1.93,2.81,2.81,0,0,1,1.24-1.31,3.51,3.51,0,0,1,1.72-.48,4.18,4.18,0,0,1,1.94.48,4.36,4.36,0,0,1,1.24,1.45,6.41,6.41,0,0,1,.49,2.14l-1.25.07a2.88,2.88,0,0,0-.69-1.87,1.88,1.88,0,0,0-1.65-.68,2.06,2.06,0,0,0-1.66.62,1.94,1.94,0,0,0-.55,1.38,2.34,2.34,0,0,0,.35,1.24,4.43,4.43,0,0,0,1.93.9,9.39,9.39,0,0,1,2.14.9,3.4,3.4,0,0,1,1.24,1.37,4.11,4.11,0,0,1,.41,1.87,4.16,4.16,0,0,1-.48,2.07,3.2,3.2,0,0,1-1.24,1.45,4.2,4.2,0,0,1-1.86.48,5,5,0,0,1-2.14-.48,3.17,3.17,0,0,1-1.38-1.59A5.31,5.31,0,0,1,289,179Zm16.43-.41,1.23.48a6.64,6.64,0,0,1-1.44,3.31,3.22,3.22,0,0,1-2.49,1.11,3.47,3.47,0,0,1-2.55-.83,6.11,6.11,0,0,1-1.45-2.56,12.3,12.3,0,0,1-.55-3.58,9.76,9.76,0,0,1,.62-3.66,4.81,4.81,0,0,1,1.59-2.42,3.75,3.75,0,0,1,2.34-.82,3.13,3.13,0,0,1,2.42,1,5.71,5.71,0,0,1,1.38,2.9l-1.24.41a4.7,4.7,0,0,0-1-2.13,2.25,2.25,0,0,0-1.59-.7,2.59,2.59,0,0,0-1.86.76,4.27,4.27,0,0,0-1,2,10.58,10.58,0,0,0-.35,2.55,12.58,12.58,0,0,0,.35,3,3.87,3.87,0,0,0,1.17,1.93,2.42,2.42,0,0,0,1.59.62,2.18,2.18,0,0,0,1.79-.9,4.64,4.64,0,0,0,1-2.55Zm3.24,4.69V169.9h1.24v13.39Zm3.72,0V169.9h6.9v1.59H313.6v4.07h5.31v1.59H313.6v4.62h5.93v1.52Zm9.11,0V169.9h1.25l5.1,10.56V169.9H329v13.39h-1.31l-5-10.55v10.55Zm12.29,0v-11.8h-3.18V169.9h7.66v1.59h-3.17v11.8Zm6.21,0-.07-13.39h1.31v13.39Zm2.62,0,3.66-13.39h1.38l3.94,13.39h-1.45l-1.11-4h-4l-1.1,4Zm2.76-5.53,3.25.07-1-3.72c-.34-1.18-.55-2.07-.69-2.83-.14.9-.35,1.73-.55,2.55l-1,3.93Z"/><path class="cls-4" d="M309.5,290.06a19.43,19.43,0,0,1,7.9,11.47,31.43,31.43,0,0,0-2.22-10.68,21.08,21.08,0,0,0-5.43-7.7l-.24,6.69v.22Z"/><polygon class="cls-4" points="274.56 300.7 309.07 290.1 309.02 290.1 309.02 290.02 309.02 290.02 309.02 289.81 309.21 283.04 264.51 296.7 274.16 300.56 274.16 300.56 274.56 300.7"/><path class="cls-4" d="M331.69,285.61l0,12.55-3,3.52c0-.24,0-.49-.05-.73,0-.41-.09-.86-.15-1.31A36.79,36.79,0,0,0,327,293l4.71-7.36Z"/><path class="cls-4" d="M325.62,315l.07,10.77v.55c-1.45,3.75-5,7.48-9.94,11.39l-1.93-10a46.93,46.93,0,0,0,6.81-6.11,42.94,42.94,0,0,0,5-6.62Z"/><polygon class="cls-4" points="336.86 311.43 336.86 322.24 326.18 325.31 326.1 314.28 336.86 311.43"/><polygon class="cls-4" points="336.82 311.15 336.86 311.16 336.86 311.25 336.82 311.15"/><polygon class="cls-4" points="294.96 351.16 286.31 344.62 285.6 332.17 294.74 338.23 294.96 350.87 294.96 350.87 294.96 351.16"/><polygon class="cls-4" points="304.26 345.79 304.31 333.88 315.47 338.1 315.47 338.1 315.47 350.26 304.26 345.95 304.26 345.79"/><polygon class="cls-4" points="295.23 338.27 303.82 334.03 303.78 345.57 303.77 345.57 303.77 345.87 295.45 351.2 295.44 350.98 295.44 350.87 295.44 350.87 295.23 338.27"/><path class="cls-4" d="M261,309.38c-7.3,4.31-18.19,5.12-27.87,2.17h.1l.12-7.88v-.12h0l-3.47-2.77.15-7.4c2.81,4.27,11.91,4.93,16.2,5.09,5.24.26,14-.6,16.93-4.55l.16,5.77-2.19,1.53-.1.07v.13l0,7.69v.28Z"/><path class="cls-4" d="M297.57,326.69l-36-17.33v-7.22l42.84,19.72a30.51,30.51,0,0,1-6.81,4.83Z"/><path class="cls-4" d="M292.75,281.38c-20.91-11.1-45.85-13.68-77.46-2.19l-10-4.29a103.16,103.16,0,0,1,13.5-5.3,101.35,101.35,0,0,1,14.26-3.37c24.37-4,49,1,68.34,12.52-2.87.89-5.8,1.83-8.64,2.63Z"/><path class="cls-4" d="M198.22,287.05c-7.35,6.44-10.26,13.88-9.12,22.23h0c-3.16-5.77-3.93-11.19-2.41-16.29s5.42-10,11.53-14.48v8.54Z"/><path class="cls-4" d="M229.48,291.23a4.42,4.42,0,0,0,0,.63l-.22,6.26-1.35.4-29.18-11.64v-8.49l30.78,12.7v.14Z"/><path class="cls-4" d="M232.71,311.32v.1h-.07l-32.22,10.28c-.1-.07-.26-.1-.36-.18-.38-.23-3-2.19-3.33-2.49-1.09-.89-2.15-1.84-3.2-2.83L232.81,304l-.12,7.29h0Z"/><path class="cls-4" d="M163.08,312.61V301.94l7.73,5.25v10.88l-7.73-5.46Zm8.22-4.71.14.3a79.82,79.82,0,0,0,5.27,9.05,43.55,43.55,0,0,0,7,7.85l-3.95,6.56a31.43,31.43,0,0,1-8.43-12.86h0V307.9Z"/><polygon class="cls-4" points="191.7 345.1 180.17 345.34 179.93 332.03 191.79 331.9 191.7 344.16 191.7 344.16 191.7 345.1"/><polygon class="cls-4" points="202.47 338.21 202.21 351.03 192.19 345.23 192.19 344.27 192.27 332.08 202.47 338.21"/><polygon class="cls-4" points="212.63 329.19 211.7 341.73 202.71 350.93 202.71 349.93 202.95 338.28 212.63 329.19"/><rect class="cls-6" x="212.62" y="328.73" width="0.04" height="0.02"/><path class="cls-4" d="M234.17,287.39a14.08,14.08,0,0,0-2.92,1.69,7.91,7.91,0,0,0-1.54,1.58l-31.16-12.84-.12-.06-.11.08c-6.42,4.66-10.48,9.66-12.09,15s-.77,10.85,2.51,16.79l.07.12.14.25a.36.36,0,0,0,.27.1l38.46-11.06,1.7-.47,0,2.3V301l.09.07,3.17,2.53L193,315.85l-.39.12.3.29c1.15,1.09,2.33,2.15,3.52,3.13s2.19,1.74,3.31,2.51a64.14,64.14,0,0,0,12.76,6.76l-9.7,9.1-10.64-6.33-.12,0-11.67.14,3.83-6.37.11-.18-.15-.13a43.25,43.25,0,0,1-7.05-7.9,65.18,65.18,0,0,1-5.6-9.78l-.2-.42,0,0,0-.07-.06,0-7.91-5.14,9.67-2.12c1.93-6.52,7.09-13.85,14.23-21.5l0-6.65,9.38,1.92c28-16.57,60.41-19.88,99.58-5.26l7.29-1v4.77A49.33,49.33,0,0,1,320.89,285l10.51.13-4.88,7.65-.06.1,0,.1a42.9,42.9,0,0,1,1.94,13.1l8.15,4.88-10.77,2.87-.1,0,0,.09a43.76,43.76,0,0,1-5.38,7.28,45.25,45.25,0,0,1-6.85,6.13l-.12.09,0,.15,1.91,9.87-10.95-4.22-.33.15L295,337.83l-9.17-6.08L297.77,327a28.47,28.47,0,0,0,7.2-5.08l.19-.23-.28-.13-43.43-20v0l2.19-1.54.11-.07v-.13l-.07-2.9h0L273.88,301c12.79,4.93,25.54,10,38.28,15.12a25.34,25.34,0,0,0,5.75-13.52c.25-7.29-2.54-15.27-8.17-20.09a1.06,1.06,0,0,0-.45-.22l-45.58,14.14h0c-.05-1.92-.1-3.84-.16-5.77v-.06l28.84-8.7,9.7-2.87.52-.15-.46-.28c-19.5-11.8-44.45-16.86-69.13-12.85a103.74,103.74,0,0,0-14.33,3.38,101.16,101.16,0,0,0-14,5.54h0l-.48.24.49.2c9.81,4.19,19.71,8.15,29.56,12.25Z"/><path class="cls-4" d="M229,407.51c.21-4.88-2.07-7.51-4.78-7.68-65.92-2.88-92.81,4.59-147.47,24.9a4.78,4.78,0,0,0-3.09,5.87l2.68,7L44.43,451.52l28,2.89L55.88,479.6l62.54-27.78a3.74,3.74,0,0,0,1.3-5.38l-2.59-5.78c28.08-10.65,53.47-14.24,83.05-14.74L204.56,437c1.09,1.59,1.29,1.59,3,1.69a200.71,200.71,0,0,1,84.49.15c1.7-.1,1.9-.1,3-1.7l4.39-11c29.62.45,55,4.09,83.09,14.74l-2.64,5.72c-.64,1.2-1.39,3.84,1.35,5.43l62.49,27.73L427.18,454.6l28-2.89-31.86-13.94,2.63-7c.9-2.4-1.12-5.23-3.08-5.92-54.68-20.27-81.51-27.74-147.48-24.85-2.29,0-5,2.9-4.78,7.67-17.34-1-24.46-1.15-41.69-.19Z"/><path class="cls-4" d="M246.93,297.9c9.67.29,16.55-2.69,16.31-6.07s-7.7-5.93-16.89-5.93-16.19,2.81-16.37,5.93,7.28,5.79,17,6.07Z"/><path class="cls-2" d="M237,290.36c1.39-.86,4.91-1.42,8.85-1.42,5.22,0,9.46,1,9.46,2.2s-4.24,2.18-9.46,2.18-9.45-1-9.45-2.18q0-.4.6-.78Z"/><path class="cls-7" d="M285.4,407.51h3.09a8.61,8.61,0,0,1,.94.05,3.34,3.34,0,0,1,.71.13h0l.22.08.2.09h0a2.83,2.83,0,0,1,.88.74h0a.86.86,0,0,1,.14.18c0,.07.09.14.12.2a3.84,3.84,0,0,1,.45,1.16h0v.05h0l.06.26h0c0,.1,0,.2,0,.28h0a8.63,8.63,0,0,1,0,1.61v0l0,.31c0,.09,0,.18,0,.3h0a5.93,5.93,0,0,1-.36,1.34,4.49,4.49,0,0,1-.47.93,4.15,4.15,0,0,1-.61.75,2.77,2.77,0,0,1-.6.45,5.67,5.67,0,0,1-.74.33,3.27,3.27,0,0,1-.71.15,7.75,7.75,0,0,1-.88.05h-3.43l0-.26.76-9v-.21Zm3.49,7.34Zm-1.71-5.34-.46,5.49h1a5.47,5.47,0,0,0,.6,0h0a2.56,2.56,0,0,0,.37-.05h0l.11,0,.09,0a1.41,1.41,0,0,0,.41-.25h0a1,1,0,0,0,.23-.29h0a2.72,2.72,0,0,0,.22-.48h0v0h0l.05-.17h0l.06-.19a7.85,7.85,0,0,0,.18-1.21v-.15h0l0-.26v-.25a3.65,3.65,0,0,0-.06-.87h0l0-.14a.65.65,0,0,0,0-.13h0a1.52,1.52,0,0,0-.27-.49h0a1.14,1.14,0,0,0-.62-.34h0a2.07,2.07,0,0,0-.47-.06l-.85,0Zm5.65,7.12.75-9,0-.22h6.69l0,.26-.12,1.53,0,.22h-4.51l-.12,1.52h4.19l0,.26-.13,1.51v.23h-4.2l-.17,2h4.67l0,.25-.12,1.53,0,.22h-6.85l0-.26Zm14.54-3,1.66-.09h.25v.25a2.59,2.59,0,0,0,.11.72h0a1.21,1.21,0,0,0,.26.46h0l0,0h0l.1.09h0l.1.07h0a1.48,1.48,0,0,0,.76.21h.44a1.38,1.38,0,0,0,.68-.25h0l.1-.09.08-.08h0a.89.89,0,0,0,.23-.72.58.58,0,0,0-.06-.17h0a.54.54,0,0,0-.15-.15,1.4,1.4,0,0,0-.3-.18h0a2.91,2.91,0,0,0-.44-.17l-.82-.29h0l-.35-.13h0l-.33-.13h0a3.28,3.28,0,0,1-1.19-.81,2.5,2.5,0,0,1-.52-.94h0a2.46,2.46,0,0,1-.06-1.09,2.55,2.55,0,0,1,.19-.72h0a3,3,0,0,1,.39-.66h0a1.15,1.15,0,0,1,.14-.17l.16-.16a2.89,2.89,0,0,1,1-.6h0a3.48,3.48,0,0,1,.83-.21,5.76,5.76,0,0,1,.94,0,4.77,4.77,0,0,1,1.42.28,2.5,2.5,0,0,1,1,.68h0a2.38,2.38,0,0,1,.54,1,3.23,3.23,0,0,1,.09,1.22l0,.21h-2.14v-.35c0-.06,0-.11,0-.16a.59.59,0,0,0,0-.14h0a1,1,0,0,0-.22-.44h0a.88.88,0,0,0-.32-.2,2,2,0,0,0-.54-.09h-.4a1.32,1.32,0,0,0-.65.21h0l0,0,0,0h0a.45.45,0,0,0-.12.27h0v.1a.28.28,0,0,0,0,.09h0a.34.34,0,0,0,.11.19h0l.06.05.11.08a6.92,6.92,0,0,0,1.18.48h0q.6.19,1.05.39a5.14,5.14,0,0,1,.75.39h0a3.35,3.35,0,0,1,.52.47h0a2.58,2.58,0,0,1,.36.6h0v0h0a1.59,1.59,0,0,1,.07.2h0a1.94,1.94,0,0,1,0,.2h0a3.68,3.68,0,0,1,0,1.16v0h0a2.23,2.23,0,0,0,0,.23l-.06.22a3.23,3.23,0,0,1-.54,1.06h0l-.15.19h0l-.17.17h0a2.89,2.89,0,0,1-1,.66h0l-.24.08-.25.06a5.9,5.9,0,0,1-1.43.09,4.64,4.64,0,0,1-1.44-.3,2.57,2.57,0,0,1-1-.71h0l0-.07h0a2.83,2.83,0,0,1-.2-.28,2.91,2.91,0,0,1-.17-.3h0a4.28,4.28,0,0,1-.34-1.87v-.22l.22,0Zm15.17,4.44-1.82-.13-.19,0,0-.18-.38-1.92-3-.21-.92,1.84-.07.15-.16,0-1.77-.13-.37,0,.17-.33,4.57-8.76.07-.14h.16l1.77.14h.18l0,.18,2,9.24.07.32-.32,0Zm-2.84-4.29-.45-2.41-1.13,2.29,1.58.12Zm3.55,4,1.49-9,0-.22H325l1.63.15.15,0,.06.14,2.07,5.48.85-5.12,0-.21.22,0,1.55.14.26,0,0,.26-1.48,9,0,.22-.22,0-1.68-.16h-.15l-.05-.14-2-5.34-.82,5,0,.22-.22,0-1.55-.14-.26,0,0-.25Zm10.14,1.07,1.42-7.19-2.18-.28-.25,0,.05-.25.3-1.51,0-.23.22,0,6.53.86.25,0,0,.26-.3,1.51,0,.22-.23,0L337,412l-1.42,7.21,0,.22-.22,0-1.65-.22-.26,0,0-.26Zm11.92,1.9-1.8-.27-.18,0,0-.18-.26-1.95-2.92-.45-1,1.78-.09.15-.16,0-1.75-.27-.36,0,.19-.32,5.09-8.44.09-.14.16,0,1.75.27.17,0,0,.18,1.36,9.43.05.32-.32-.05Zm-2.53-4.52-.29-2.45L341.22,416l1.56.24Zm15.47,3.06,1.43.88.19.12-.1.2a6.34,6.34,0,0,1-.86,1.21h0a3.79,3.79,0,0,1-1,.79h0a2.69,2.69,0,0,1-.32.13l-.33.11h0a4,4,0,0,1-1.82,0h0a4,4,0,0,1-.46-.13l-.42-.17a3.43,3.43,0,0,1-1.59-1.6h0l0-.05h0c-.07-.14-.12-.29-.18-.43h0c0-.14-.09-.31-.13-.46a6,6,0,0,1,.16-2.73h0a4.87,4.87,0,0,1,.18-.61,5.42,5.42,0,0,1,.22-.56,5.12,5.12,0,0,1,1.63-2.16,4,4,0,0,1,1.54-.71,4.12,4.12,0,0,1,1.71,0h0a3.31,3.31,0,0,1,.42.12h0a3.54,3.54,0,0,1,.39.14,3.15,3.15,0,0,1,1.49,1.32h0a2.85,2.85,0,0,1,.33.86,5,5,0,0,1,.1,1.06v.23h-.23l-1.73.08-.26,0v-.49s0-.11,0-.16h0a1.33,1.33,0,0,0-.26-.67h0a1.13,1.13,0,0,0-.35-.34h0a1.53,1.53,0,0,0-.49-.2h0l-.22,0H357a1.63,1.63,0,0,0-1,.39h0l-.18.16-.17.21a5,5,0,0,0-.73,1.67,6.41,6.41,0,0,0-.23,1.41,2.33,2.33,0,0,0,.14.94h0a1.14,1.14,0,0,0,.1.19h0a1.63,1.63,0,0,0,.11.17,1.46,1.46,0,0,0,.85.51,1.64,1.64,0,0,0,.54,0,1.51,1.51,0,0,0,.52-.2h0l.13-.1.14-.12h0a3.16,3.16,0,0,0,.67-1l.12-.23.23.14Zm9.18,6.18-1.75-.45-.17-.05v-.18l-.1-2-2.85-.72-1.16,1.69-.1.14-.16,0-1.71-.44-.35-.08.21-.29,5.73-8,.1-.12.16,0,1.7.43.17.05v.18l.58,9.6,0,.32-.32-.07Zm-2.12-4.78-.1-2.49-1.44,2.1,1.54.39Zm3.85,4.82,2.22-7-2.12-.57-.24-.07.08-.24.47-1.48.06-.22.23.06,6.3,1.72.24.07-.07.24-.47,1.48-.07.23-.22-.06-2.13-.58-2.22,7-.07.22-.22-.06-1.6-.44-.25-.07.08-.24ZM380.51,429l-1.73-.51-.18,0v-.19l0-2-2.82-.82-1.2,1.64-.1.14-.16-.05-1.69-.49-.33-.1.21-.28,6-7.81.1-.12.16,0,1.68.5.16.05v.18l.26,9.64v.33l-.31-.11Zm-2-4.86v-2.5L377,423.73l1.52.44ZM381.2,429l3.18-8.63.08-.21.22.07,3.31,1.12h0l.34.12h0l.31.12a4.07,4.07,0,0,1,1.15.65h0a2.78,2.78,0,0,1,.27.29,2.21,2.21,0,0,1,.39,1,2.56,2.56,0,0,1,0,.78,3.31,3.31,0,0,1-.2.81h0c0,.09-.08.18-.12.28l-.13.26h0a2.64,2.64,0,0,1-1,1h0l-.24.13h0l-.26.1a2.91,2.91,0,0,1-.95.13,5.22,5.22,0,0,1,.31.63h0a5.73,5.73,0,0,1,.19.71c.07.29.13.64.2,1l.33,2,.07.4-.38-.13-1.88-.63-.13,0,0-.13-.44-2.26c-.08-.42-.15-.74-.21-1a4.49,4.49,0,0,0-.15-.53h0a.83.83,0,0,0-.12-.25.46.46,0,0,0-.15-.16.76.76,0,0,0-.24-.15l-.43-.18-.1,0-1.24,3.38-.08.22-.23-.08-1.57-.53-.23-.08.08-.23Zm6.67-4Zm-2.73-.51.93.31c.37.13.68.22.91.28h0a1.91,1.91,0,0,0,.45.09h.19a.56.56,0,0,0,.24-.13h0l.07-.06,0-.05a1.66,1.66,0,0,0,.22-.38h0a1.67,1.67,0,0,0,.07-.35.61.61,0,0,0,0-.27.45.45,0,0,0-.12-.21h0a1.15,1.15,0,0,0-.23-.18l-.05,0-.1,0c-.19-.07-.51-.19-1-.33l-1-.34-.64,1.72Zm3.89,7.06,3.18-8.63.08-.22.22.08,1.57.53.24.07-.09.24-3.17,8.63-.08.22-.22-.07-1.57-.53-.23-.09.07-.23Zm3.06,1.11,3.31-8.58.08-.21.22.08,1.52.54.13.05,0,.14.83,5.94,1.87-4.85.09-.22.21.08,1.46.52.22.08-.08.23L398.66,435l-.08.22-.22-.08-1.57-.56-.13,0,0-.15-.83-5.79L394,433.33l-.08.22-.22-.08-1.45-.52-.23-.09.09-.23Zm14.82,5.77-1.68-.64-.17-.06v-.19l.1-2-2.74-1.05-1.3,1.57-.11.13-.16-.07-1.64-.62-.32-.13.22-.26,6.43-7.38.11-.13.16.06,1.63.62.17.06v.18l-.37,9.69v.34l-.32-.11Zm-1.62-5,.15-2.5-1.62,1.94,1.47.56Z"/><path class="cls-7" d="M172.23,417.33l-.71-9.12,0-.24h.24l5.65-.44.24,0,0,.25.12,1.53,0,.25h-.24l-3.75.3.13,1.67,3.2-.24.24,0,0,.24.12,1.55,0,.24h-.24l-3.2.26.29,3.63,0,.24h-.24l-1.66.12-.24,0,0-.24Zm7-.49-.58-9.13v-.25h.24l6.12-.35.24,0,0,.24.1,1.55v.24h-.24l-4.21.25.09,1.54,3.91-.23h.24v.24l.1,1.54v.24l-.24,0-3.9.22.12,2,4.38-.25.24,0v.24l.1,1.54v.24h-.24l-6.29.37h-.23v-.23Zm7.66-10,3-.06a9.19,9.19,0,0,1,.94,0h0a4.06,4.06,0,0,1,.72.13h0l.21.08h0l.22.09h0a3.07,3.07,0,0,1,.94.72h0l.15.19.15.19h0a5.32,5.32,0,0,1,.58,1.17h0a5.46,5.46,0,0,1,.24,1,8.61,8.61,0,0,1,.11,1.2h0v.09a1.61,1.61,0,0,1,0,.31v.3h0a7.06,7.06,0,0,1-.2,1.32h0c0,.11-.06.2-.09.29l-.1.27h0a4,4,0,0,1-.7,1.16,2.83,2.83,0,0,1-.55.47h0a3.05,3.05,0,0,1-.7.35h0l-.1,0h0l-.18,0-.19,0a6.54,6.54,0,0,1-1.08.11l-3.14.06h-.24v-.24l-.29-9.14v-.24l.26,0Zm2,2,.17,5.56h1l.58,0a2.6,2.6,0,0,0,.37-.06h0a1.09,1.09,0,0,0,.31-.14,1.12,1.12,0,0,0,.24-.19h0a1,1,0,0,0,.19-.3,2.07,2.07,0,0,0,.16-.48h0v-.05h0l0-.17,0-.19a8.87,8.87,0,0,0,0-1.2v-.36h0l0-.26h0a4.48,4.48,0,0,0-.18-.94h0a1.94,1.94,0,0,0-.2-.46h0a1.67,1.67,0,0,0-.24-.32A1.16,1.16,0,0,0,191,409a1.69,1.69,0,0,0-.36-.13h0a3.54,3.54,0,0,0-.48-.05h-1.34Zm6.44,7.18-.15-9.14v-.25h6.62v.23l0,1.55v.24h-4.47l0,1.55h4.16v.25l0,1.53v.25h-4.14l0,2H202v.23l0,1.54v.24h-6.78V416Zm12.41-5.69h0Zm-2.54.11,1,0h1a1.64,1.64,0,0,0,.45-.06h0l.07,0,0,0a.61.61,0,0,0,.23-.22h0a1.6,1.6,0,0,0,.1-.23,1.69,1.69,0,0,0,0-.33,1.18,1.18,0,0,0,0-.34.73.73,0,0,0-.13-.25.54.54,0,0,0-.2-.17h0a.77.77,0,0,0-.28-.1h-.22l-1,0h-1.06v1.82Zm13.9,6.18-1.82-.07H217l-.06-.16-.64-1.94-3-.12-.66,1.88-.05.17h-.18l-1.77-.06h-.07l-2,0h-.14l-.07-.11-1.2-2-.54-.87a4.46,4.46,0,0,0-.32-.46h0a1.29,1.29,0,0,0-.21-.2.63.63,0,0,0-.21-.12.9.9,0,0,0-.28-.06h0a2.17,2.17,0,0,0-.47,0h-.09v3.81h-.24l-1.68,0H203v-9.64h.24l3.52.07h.51l.32,0h0a3.58,3.58,0,0,1,1.19.26h0l.18.09a1.2,1.2,0,0,1,.17.11h0a2.18,2.18,0,0,1,.71.79,3.19,3.19,0,0,1,.3.74h0a3.2,3.2,0,0,1,.1.83h0a3.18,3.18,0,0,1-.15,1l-.06.15h0a2.76,2.76,0,0,1-.4.68h0l-.18.19h0l-.21.17a2.86,2.86,0,0,1-.84.41,3.51,3.51,0,0,1,.51.51,7,7,0,0,1,.43.6c.15.25.34.57.54.93h0l.79,1.41,3.22-8.59.06-.17h.17l1.77.07H216l.05.16,3.17,9.27.12.33Zm-3.35-4.23-.76-2.41-.83,2.35,1.59.06Zm4,4.11.14-9.06v-.25h.24l1.67.06H222v.23l-.12,7.29,3.92.14.24,0v.23l0,1.54V417h-.24l-5.83-.21h-.23v-.24ZM85.79,436.74Zm-3.94-5.63,1.57-.6.24-.09.08.24,1.53,4.68v0h0l.1.28h0l.09.26h0a6.29,6.29,0,0,0,.32.81h0a.41.41,0,0,0,.07.11l.07.11h0a1.1,1.1,0,0,0,.49.33h0a1,1,0,0,0,.43.05h0a1.63,1.63,0,0,0,.54-.13h0l.16-.06.14-.08a1.12,1.12,0,0,0,.47-.44h0a.37.37,0,0,0,0-.11l0-.09h0a1.07,1.07,0,0,0,0-.53c0-.15-.08-.34-.14-.58s-.16-.53-.27-.88l-1.56-4.78-.08-.22.22-.09,1.57-.59.24-.1.07.24,1.5,4.54c.16.52.3,1,.4,1.35a8.23,8.23,0,0,1,.2,1,4.22,4.22,0,0,1,0,.71,2.87,2.87,0,0,1-.14.66h0a.59.59,0,0,1-.07.16l-.08.18h0a2.91,2.91,0,0,1-.59.79h0a3.27,3.27,0,0,1-.64.49,5.76,5.76,0,0,1-.86.41h0l-.32.12h0c-.1,0-.19.07-.29.09a3.26,3.26,0,0,1-1.25.15h0a2.42,2.42,0,0,1-.67-.14h0a2.16,2.16,0,0,1-.59-.29h0a.56.56,0,0,1-.14-.1h0l-.12-.1h0a2.61,2.61,0,0,1-.55-.65h0a5.88,5.88,0,0,1-.43-.9h0c-.15-.37-.3-.79-.46-1.27l-1.51-4.62-.08-.21.22-.08Zm10.5,5.9-2.7-8.69-.07-.22.22-.08,1.54-.56.13,0,.11.1,4.34,4-1.53-4.94-.06-.21.22-.08,1.47-.54.24-.08.07.24,2.7,8.69.07.22-.22.08-1.59.57-.14.05-.11-.1-4.25-3.92,1.5,4.82.06.22-.22.07-1.47.53-.24.1-.07-.25Zm7.83-2.9-2.7-8.69-.06-.21.21-.08,1.58-.57.24-.09.08.24,2.7,8.7.07.21-.22.09-1.58.56-.23.09-.09-.25Zm5.08-1.83-5.38-7.79-.18-.26.31-.11,1.72-.58.18-.06.1.16,3.45,5.13,0-6.34v-.18l.16-.06,1.69-.57.32-.11v.35l-.26,9.7v.17l-.16.06-1.69.58-.18.05-.11-.14Zm5.33-1.92-2.28-8.83-.06-.22.23-.07,5.9-1.76.24-.07.06.25.38,1.49.07.22-.23.07-4.07,1.21.39,1.49L115,423l.24-.07.07.24.38,1.49.06.22-.22.07-3.77,1.12.49,1.94,4.21-1.25.25-.07,0,.24.39,1.49.06.22-.22.07-6.06,1.81-.24.06-.07-.24Zm7.37-2.27-2.14-8.87,0-.23.22-.06,3.4-.95h0l.35-.09.33-.07h0a4.54,4.54,0,0,1,1.29-.11h0l.2,0a1.52,1.52,0,0,1,.2.06h0a2.24,2.24,0,0,1,.86.56,3.25,3.25,0,0,1,.46.64,3.81,3.81,0,0,1,.29.78h0v.05h0a2.93,2.93,0,0,1,0,.29l0,.28a2.68,2.68,0,0,1-.24,1.33h0a1.36,1.36,0,0,1-.13.24h0a1.88,1.88,0,0,1-.16.23,2.9,2.9,0,0,1-.73.65l.09,0a3.72,3.72,0,0,1,.52.3,5.86,5.86,0,0,1,.55.47h0c.22.2.47.44.75.73l1.4,1.47.27.29-.39.11-1.94.53-.13,0-.1-.1-1.64-1.61q-.44-.44-.72-.69a3.7,3.7,0,0,0-.41-.35h0a1.15,1.15,0,0,0-.24-.13h0l-.22-.05a1,1,0,0,0-.29,0h0a3.42,3.42,0,0,0-.45.1l-.11,0,.84,3.47.06.23-.23.06-1.61.44-.24.07-.07-.23Zm.8-5.93.95-.26c.38-.11.69-.2.93-.29h0a1.94,1.94,0,0,0,.42-.19h0l.05,0h0l0-.05h0a.73.73,0,0,0,.17-.28h0a1,1,0,0,0,0-.17h0v-.15h0a1.47,1.47,0,0,0-.05-.26,1.33,1.33,0,0,0-.12-.32.7.7,0,0,0-.18-.2.51.51,0,0,0-.22-.11,1,1,0,0,0-.3,0h-.09l-.1,0h0l-1,.26-1,.28.44,1.78Zm6.42.6,1.54-.59.22-.07.09.21a2.79,2.79,0,0,0,.35.65h0a1.32,1.32,0,0,0,.41.38h0a.27.27,0,0,0,.12.06h0l.13,0a1.6,1.6,0,0,0,.81,0h0l.2-.07.17-.06h0a1.28,1.28,0,0,0,.58-.44h0a.85.85,0,0,0,.17-.39.81.81,0,0,0,0-.38h0V422l0-.09a.65.65,0,0,0-.16-.21h0a.79.79,0,0,0-.19-.11h0l-.35-.07h0l-.47,0-.88,0h-.17l-.37,0-.34,0a3.46,3.46,0,0,1-1.27-.39h0l-.26-.18-.23-.2a2.75,2.75,0,0,1-.75-1.37h0a2.83,2.83,0,0,1,.06-1.49h0l.08-.2h0a1.2,1.2,0,0,1,.09-.21,2.89,2.89,0,0,1,.71-.86h0a3.22,3.22,0,0,1,.72-.44,5,5,0,0,1,.88-.32,4.44,4.44,0,0,1,1.44-.16,2.75,2.75,0,0,1,1.18.33h0a2.79,2.79,0,0,1,.86.78h0a3.44,3.44,0,0,1,.5,1.13l.06.22-.22.07-1.61.49-.21.07-.08-.21h0a.69.69,0,0,0-.07-.15h0a1,1,0,0,0-.07-.15h0a1.14,1.14,0,0,0-.41-.43h0a1,1,0,0,0-.37-.09,1.88,1.88,0,0,0-.55.07h0l-.18.05-.15.07a1.21,1.21,0,0,0-.56.41h0l0,0,0,.06a.6.6,0,0,0,0,.3.51.51,0,0,0,.25.33,1.75,1.75,0,0,0,.36.11h0l.3,0h.19c.19,0,.41,0,.65,0h0c.43,0,.8,0,1.12.05a4.66,4.66,0,0,1,.84.16h0a2.51,2.51,0,0,1,.65.28,2.69,2.69,0,0,1,.55.46h0s.09.1.13.16h0l.12.18h0a3.56,3.56,0,0,1,.43,1.1h0l0,.08h0a2.23,2.23,0,0,0,0,.23c0,.06,0,.14,0,.22h0a3.11,3.11,0,0,1-.5,1.88h0a3.12,3.12,0,0,1-.58.63,3.37,3.37,0,0,1-.79.47,5.59,5.59,0,0,1-1,.35h0a4.54,4.54,0,0,1-1.47.15,3,3,0,0,1-1.23-.35h0a2.2,2.2,0,0,1-.3-.19l-.27-.23a4.23,4.23,0,0,1-1-1.73l-.08-.22.22-.06Zm8.35,1.19L131.67,415l0-.23.23,0,1.63-.39.23-.06,0,.25,1.86,8.94,0,.23-.23.05-1.63.38-.23.07-.05-.24Zm1.61-10,3-.65a7.58,7.58,0,0,1,.92-.15h0a3,3,0,0,1,.73,0h0l.23,0h0l.22.06a2.75,2.75,0,0,1,1,.52h0l.18.15a1.29,1.29,0,0,0,.18.16,4.61,4.61,0,0,1,.75,1.05h0l.12.25c0,.09.08.18.11.26a9.35,9.35,0,0,1,.45,1.62v.05h0a2.19,2.19,0,0,1,0,.31c0,.1,0,.2,0,.3a6.34,6.34,0,0,1,0,1.37h0a5,5,0,0,1-.21,1,3.76,3.76,0,0,1-.39.86,3,3,0,0,1-.46.57,4.53,4.53,0,0,1-.63.48,3.59,3.59,0,0,1-.65.3,7.19,7.19,0,0,1-.84.23l-3.08.67-.24.05,0-.25-1.72-9-.05-.23.25,0Zm2.26,1.59,1,5.47,1-.22c.22,0,.42-.1.57-.14a2,2,0,0,0,.34-.13h0a1.61,1.61,0,0,0,.5-.44h0a1.26,1.26,0,0,0,.14-.33h0a3,3,0,0,0,.08-.51h0v0h0c0-.06,0-.12,0-.18h0c0-.08,0-.18,0-.29a8.7,8.7,0,0,0-.14-1.1v0h0l-.06-.27h0l-.06-.25h0a4.28,4.28,0,0,0-.33-.95h0l-.08-.14-.07-.12h0a1.64,1.64,0,0,0-.41-.42,1.37,1.37,0,0,0-.32-.16,1.23,1.23,0,0,0-.39-.06h0a3.5,3.5,0,0,0-.47,0h0c-.22,0-.5.09-.82.16l-.51.11Zm15,4.7-1.79.31-.17,0-.08-.15-1-1.77-2.92.52-.32,2,0,.17-.17,0-1.75.32-.34,0,.06-.33,1.74-9.59,0-.16.16,0,1.74-.31.17,0,.08.14,4.71,8.46.17.3-.33,0Zm-4-3.46-1.17-2.22-.4,2.49,1.57-.27Zm3.67-6.27,3-.41a5.58,5.58,0,0,1,.93-.09,3.31,3.31,0,0,1,.73,0h0l.22.06h0l.22.06a3,3,0,0,1,1,.61h0l.17.17h0l.17.18h0a4.47,4.47,0,0,1,.69,1.1h0c0,.09.07.17.1.26h0l.1.27h0a9.26,9.26,0,0,1,.35,1.63h0a8.48,8.48,0,0,1,.07,1.08h0a1.7,1.7,0,0,1,0,.22h0v.2h0a4.35,4.35,0,0,1-.06.52,5,5,0,0,1-.27,1,2.92,2.92,0,0,1-.44.82h0a2.84,2.84,0,0,1-.5.54,4.7,4.7,0,0,1-.66.43h0a.65.65,0,0,1-.17.08.75.75,0,0,1-.18.07h0a5.4,5.4,0,0,1-1.16.26l-3.11.43-.24,0,0-.24-1.16-9.08,0-.23.24,0Zm5.49,3.81Zm-3.34-2.06.71,5.54,1-.14.57-.1h0a1.11,1.11,0,0,0,.35-.11h0a2.25,2.25,0,0,0,.31-.16,1.2,1.2,0,0,0,.22-.23h0a1.11,1.11,0,0,0,.16-.31h0a4,4,0,0,0,.11-.51h0v-.09h0l0-.17v-.2h0a7.09,7.09,0,0,0-.07-1.16v0h0l0-.27,0-.26h0a4.85,4.85,0,0,0-.27-1h0l-.07-.14h0l-.07-.12h0a1.62,1.62,0,0,0-.37-.46h0a1.57,1.57,0,0,0-.31-.18h0a2.34,2.34,0,0,0-.38-.09h0a2.7,2.7,0,0,0-.48,0c-.22,0-.5.05-.83.09l-.5.06Zm7,6.23-.86-9.1,0-.24.24,0,6.11-.6.24,0,0,.25.14,1.53,0,.24-.24,0-4.21.41.14,1.54,3.9-.38.24,0,0,.25.14,1.53,0,.25-.24,0-3.9.38.19,2,4.37-.42.24,0,0,.23.14,1.54,0,.23-.24,0-6.24.61-.24,0,0-.24Z"/><path class="cls-8" d="M103.94,159.28c-1.28,5-3,12.05-3.69,16.35a2.69,2.69,0,0,1-.45-.37c-.59-.58.36-1.52-1.5-1.4.9-2.07,1-5.79-.22-7.87a16,16,0,0,0-3.26-4.09,32.29,32.29,0,0,1-3.53-3.48,7.84,7.84,0,0,0-4.17-2.71,11.19,11.19,0,0,1-3.7-1.68c-1.8-1-3.52-.64-5.2.17-1.61.5-4.7-1.23-7-1.84-.28,0-.18.14-.06.2,10.08,4.44,15,10.68,19.51,16.38.65,1.08,5.3,6.07,5.5,6.71l.85-.08a1.08,1.08,0,0,1-.18.24c-.6.6-1.91.52-1.83,1.31s1.47.75,2,1.39.36,2.46,1.23,2.46,1.09-1.66,1.64-2.31q-1.39,11.67-2.63,22.79c-.18,0-.39,0-.65,0-1.26.11-1,2-2.06,2.57-1.27-.92,1.87-7.69-.26-9.61A13.08,13.08,0,0,0,90.7,190a27,27,0,0,1-3.84-3.79,13.31,13.31,0,0,0-4.54-3,27.64,27.64,0,0,1-4-1.82,6.77,6.77,0,0,0-5.67.19c-1.38.64-4.85-1-7.67-2-.25,0-.24.21-.08.27,11.57,4.76,17,11.67,22,18a78,78,0,0,0,5.49,6.48,1,1,0,0,1,.35.6l.14,0a.59.59,0,0,0-.11.44c.1.94,1.73.89,2.38,1.64s.47,2.5,1.19,2.84c-1,9.3-1.84,18.32-2.53,27.08a3.69,3.69,0,0,1-.53-.43c-.7-.7.47-1.82-1.87-1.64a1,1,0,0,0-.25,0c1.27-3.08.92-4.85-.16-6a43.56,43.56,0,0,1-3.56-4.45,8.25,8.25,0,0,0-3.84-3.79,14,14,0,0,1-4.54-3,5.53,5.53,0,0,0-4-1.83,16.89,16.89,0,0,1-5.67.19,52.1,52.1,0,0,1-7.68-2c-1,.13-1,.47-.29,1,11.66,4,17.5,10.48,22.83,16.39,1.81,2,3.56,3.95,5.45,5.7.21.52-.14.73-.74.43-1.84-1.72-3.56-3.61-5.32-5.57-5.25-5.83-11-12.22-22.46-16.15-.64-.05-.74.33-.32,1.12a35,35,0,0,1,1.78,4.26,15.14,15.14,0,0,1,.93,4.31,36,36,0,0,1,.8,4.81,5.65,5.65,0,0,0,3,2.38L74,234.13a3.61,3.61,0,0,1,2.48,2.81c-.12,1.81.12,3.56,1.22,4.07a8.37,8.37,0,0,1,2.58,1.27A9.75,9.75,0,0,0,85,243.54a3.5,3.5,0,0,0,1.63-2,7.7,7.7,0,0,1,1.55-2.15c.74-.53,1.45-.57,1.76.85.7.71.42,2.91,1.45,2.91s1.31-2.11,2-2.81a.74.74,0,0,1,.13-.12c-.67,9.08-1.14,17.88-1.36,26.43-1.57-.78-.06-2.33-2.39-2.06a.78.78,0,0,0-.23.05c-1.09-.33-1.68-2.81-1.48-7.35.21-2.68-1-4.27-3.8-4.75a7.39,7.39,0,0,1-4.1-4,6.3,6.3,0,0,0-4.85-3.14,9.23,9.23,0,0,1-4.3-1.95,6.8,6.8,0,0,0-6,.2c-2.17.23-5.1-.66-8.27-2.15-.74-.21-.85.61-.35,1.23C69.3,247,75.69,254.13,81.52,260.59A83.8,83.8,0,0,0,87.9,267c.61,1.05-.2.88-1,.53-2.12-1.94-4.07-4.1-6.07-6.33-5.75-6.37-12.05-13.37-24.7-17.62-.55-.11-.66.24-.3,1.06a32.51,32.51,0,0,1,1.9,4.54,13.36,13.36,0,0,1,1,4.6,16.9,16.9,0,0,0,.85,5.16,5.61,5.61,0,0,0,3.2,2.54A49.24,49.24,0,0,0,70,263a3.24,3.24,0,0,1,2.65,3,4.14,4.14,0,0,0,1.3,4.34,4.42,4.42,0,0,1,2.75,1.35,5.33,5.33,0,0,0,5,1.36,5.61,5.61,0,0,0,1.75-2.1,4.62,4.62,0,0,1,1.65-2.3c1.31-.11,3.16.77,3.26,1.47.7.71.42,2.91,1.45,2.91s1.31-2.11,2-2.81a1.79,1.79,0,0,1,.31-.25c-.14,8.08,0,15.93.34,23.58a4.87,4.87,0,0,1-.74-.58c-.71-.7.47-1.82-1.88-1.64-1.16.09-1,1.58-1.67,2.29,1-4.68.28-7.11-1.1-8.19a9.61,9.61,0,0,1-4.28-4.32,8.82,8.82,0,0,0-4.5-3.59,12.4,12.4,0,0,1-5.16-2.62,5.61,5.61,0,0,0-4.48-1.48,22,22,0,0,1-6,.84A65.71,65.71,0,0,1,54.25,273c-.93-.17-1,1.34-.27,1.59C67.1,277,74.39,283,81,288.48c2.3,1.89,4.52,3.72,6.88,5.31.45.76.11.84-1,.44-2.21-1.54-4.31-3.27-6.48-5.06-6.56-5.41-13.75-11.34-26.66-13.73-.54-.05-.38.31-.13.76a40.28,40.28,0,0,0,2.37,4.32A12,12,0,0,1,57.54,285a14.54,14.54,0,0,0,1.39,5,5.77,5.77,0,0,0,3.46,2.2,32,32,0,0,0,7.26.74c2,.11,3,1,2.95,2.7-.3,2.6.47,3.83,1.76,4.19a8.86,8.86,0,0,1,2.88,1,9,9,0,0,0,5.11.81c.88-.19,1.38-1,1.52-2.27A5.44,5.44,0,0,1,85.26,297a2.22,2.22,0,0,1,2.66-.53,1.43,1.43,0,0,1,.45.35c.71.7.42,2.9,1.45,2.9s1.31-2.1,2-2.81a3.16,3.16,0,0,1,.76-.51,236.24,236.24,0,0,0,3.05,26.67c-.49-.23-.66-.31-.88-.68-.43-.6.1-1.52-1.6-1.4s-.83,1.36-1.43,1.95a2.4,2.4,0,0,1-.83.46c.37-3.19.26-7.14-1.39-8.95a16.4,16.4,0,0,1-4.37-4.24,8.89,8.89,0,0,0-4.57-3.5,13.87,13.87,0,0,1-5.21-2.51,5.84,5.84,0,0,0-4.51-1.4,23.55,23.55,0,0,1-6,1,69.42,69.42,0,0,1-8.41-1.1c-.91-.26-.89,1.35-.22,1.47,13.31,2.39,20.66,8.46,27.36,14,2.33,1.92,4.38,4,6.78,5.6.67.56.14,1.15-.69.68-2.35-1.6-4.36-3.7-6.65-5.59-6.61-5.45-13.86-11.43-26.94-13.78-.52-.08-.65.17-.13.88a21.91,21.91,0,0,1,2.46,4.27A38,38,0,0,1,60,314.6c.66,1.92.86,3.6,1.43,5a4.13,4.13,0,0,0,3.49,2.13,30.71,30.71,0,0,1,7.36.61c1.95.52,2.94,1.41,3,2.65-.23,1.77.27,3.67,1.84,4.15a7.47,7.47,0,0,1,2.9,1,8.57,8.57,0,0,0,5.13.71,4.91,4.91,0,0,0,1.47-2.3A6.56,6.56,0,0,1,88.06,326a6.09,6.09,0,0,1,3.21-.85,1.74,1.74,0,0,1,.68.46c.6.61.36,2.48,1.23,2.48s1.17-1.75,1.72-2.39A1.64,1.64,0,0,1,96,325a182.39,182.39,0,0,0,4.61,19.15h.1c-.16-.17-.34-.33-.54-.51a11.51,11.51,0,0,1-4.37-4.23,10.9,10.9,0,0,0-4.58-3.5,11.36,11.36,0,0,1-5.2-2.52A6.25,6.25,0,0,0,81.53,332a22.28,22.28,0,0,1-6,1,57.48,57.48,0,0,1-8.41-1.1c-1.08-.25-1.16,1.84-.3,1.94,13.6,2.32,21.34,8.24,27.74,14.06a30.51,30.51,0,0,0,6,3.8c.32.54-.17,1.22-.72.87a28.37,28.37,0,0,1-5.88-4c-6.44-5.62-14-11.59-27.31-13.88-.26,0-.29.15-.07.41a19.22,19.22,0,0,1,2.46,4.28l1.57,4.44a21.15,21.15,0,0,1,1.5,5A6.13,6.13,0,0,0,75.66,351c2.54,1.13,4.88-.2,7.28.59,1.2.43,2.74,1.54,2.59,3.06.24,1.93.77,3.46,2.26,3.73a4.07,4.07,0,0,1,2.9,1,8.19,8.19,0,0,0,5.13.71c1,.08,1.07-1.37,1.48-2.3a13.87,13.87,0,0,1,1.34-2.5c.67-.73,2.53-2,3-.67.51.68.33,2.4,1.16,2.4s1-1.25,1.45-2a155.89,155.89,0,0,0,7.8,17.46c-.65.64-.52,1.75-1.37,2.27a7.12,7.12,0,0,0-3.88-6.08,24.81,24.81,0,0,1-5.71-2.11,11,11,0,0,0-5.6-1.36,15,15,0,0,1-5.78-.2,5.71,5.71,0,0,0-4.69.55A12.51,12.51,0,0,1,80,368.79c-2.82.79-5.56,1.59-8.13,2.38a.76.76,0,0,0,.35,1.3c13.08-3.48,22.31-1.1,30.73,1.07,2.29.58,4.53,1.16,6.77,1.59.54.48.24.9-.82.75-2-.42-4.08-.95-6.17-1.49-8.3-2.14-17.42-4.48-30.28-1.05-.51.19-.38.57.27,1l4,2.92a11.83,11.83,0,0,1,3.23,3.43,13.4,13.4,0,0,0,3.39,4,8.79,8.79,0,0,0,4,.54,28,28,0,0,0,6.9-2.4A3.42,3.42,0,0,1,98,384q1.11,2.92,3.35,3.06a5.12,5.12,0,0,1,3.06-.26,7.79,7.79,0,0,0,5-1.42,2.73,2.73,0,0,0,.41-2.71,3.4,3.4,0,0,1,.23-2.82l1.63-1.19c.21.87.31,1.89,1,1.89,1.13,0,1.42-2.34,2.18-3,6.18,10.85,11.76,19.24,20.07,28.35,2.67-.63,5.34-1.21,8-1.75A107.41,107.41,0,0,1,120.33,377c.59-.59.88-2,1.44-2.55s1.62-.66,1.79-1.48c.39.69,1.33.75,1.41,1.9-.08.78,2.77.2,3.94-.85a6.59,6.59,0,0,1,2.2-1c.83-.82,1.69-1.61,1.65-2.91a2.5,2.5,0,0,1,1.72-2.65,35.76,35.76,0,0,0,5.63-.88,5.55,5.55,0,0,0,2.59-1.85,7.29,7.29,0,0,0,.87-4,7.09,7.09,0,0,1,1-3.54,22.66,22.66,0,0,0,1.66-3.47c.42-.47.53-.87-.2-.86-9.61,3.46-14.59,8.95-19.16,14-1.39,1.52-2.73,3-4.16,4.4-.52.54-1,.05-.66-.48,1.46-1.39,2.82-2.9,4.24-4.45,4.64-5.13,9.72-10.72,19.56-14.23.56-.26.49-1.2-.2-.86a16.67,16.67,0,0,1-6.47,1.34,14.76,14.76,0,0,0-4.7-.4,22.56,22.56,0,0,1-3.42,1.35,10.63,10.63,0,0,0-3.91,2.26,11.28,11.28,0,0,1-3.35,3,8,8,0,0,0-3.15,3.54,17.43,17.43,0,0,0-.51,6.47l-.35,0c-1.17.1-1,1.59-1.69,2.3a2.45,2.45,0,0,1-.82.47,157.55,157.55,0,0,1-8.77-18.84.64.64,0,0,0,.38.13c1,0,1.3-2.12,2-2.82s1.5-.65,1.75-1.32c.43,1.68,1,2.87,2.1,3a6.76,6.76,0,0,0,4-.85,6.48,6.48,0,0,1,2.19-.94c.92-.64,1.31-1.75,1.19-3.33,0-1,.72-1.7,2.18-2.24,1.76-.63,3.66-.37,5.63-.87a3.68,3.68,0,0,0,2.6-1.86,51.79,51.79,0,0,1,1.83-7.52,14.74,14.74,0,0,1,1.66-3.47c.14-.16.17-.28-.07-.31-9.54,2.42-15,7.21-20,11.6-1.7,1.51-3.36,3-5.11,4.27-.42.29-.67-.49-.35-.73,1.69-1.27,3.29-2.68,4.94-4.13,5.07-4.46,10.58-9.32,20.31-11.78.62-.47.48-1.18-.33-1.41-2.07-.13-4.55,1.4-6.48,1.34a21.33,21.33,0,0,1-4.7-.4,4,4,0,0,0-3.42,1.35,10.27,10.27,0,0,1-3.9,2.26,7.65,7.65,0,0,0-3.36,3,14.08,14.08,0,0,1-3.15,3.54c-1.13,1.2-.92,3.57-.41,5.3-2.22-.51-1.93,1.34-2.78,2.25a2.22,2.22,0,0,1-.73.44A185.28,185.28,0,0,1,100.24,325a16.39,16.39,0,0,1,1-1.84c.55-.55,1.13-.27,1.84-.17a3.49,3.49,0,0,1,1.31,2,2.17,2.17,0,0,0,1.4,1.87,5.88,5.88,0,0,0,4.34-.93,6,6,0,0,1,2.41-1c1-.19,1.64-1.11,1.3-3.66a2.73,2.73,0,0,1,2.4-2.44l6.18-1a3.11,3.11,0,0,0,2.84-2,27.13,27.13,0,0,1,1-4.37l1.06-3.89a14.74,14.74,0,0,1,1.83-3.81c.29-.4.24-.62-.16-.66-9.74,2.89-15.24,8-20.29,12.74a76.28,76.28,0,0,1-6.09,5.29l0,0c-.76.32-.87-.28-.57-.53,2-1.63,4.2-3.36,6.19-5.35,5.12-4.79,10.7-10,20.63-12.94a.74.74,0,0,0-.3-1.31c-.64-.05-4.67,1.95-7.1,1.52-1.68,0-3.4-1-5.17-.48a21.51,21.51,0,0,1-3.76,1.49,16.44,16.44,0,0,0-4.29,2.47,25.25,25.25,0,0,1-3.68,3.28,14.86,14.86,0,0,0-3.46,3.9,8.63,8.63,0,0,0-.43,5.52,2.36,2.36,0,0,0-1-.07A.82.82,0,0,0,99,319c-1.17-6.33-2.06-12.76-2.72-19.28a.63.63,0,0,0,.55.33c1,0,1.31-2.11,2-2.81.41-1,1.33-1,1.76-1.33a4,4,0,0,1,2.49.35,2.8,2.8,0,0,1,1.3,2.13,2.61,2.61,0,0,0,1.47,2,8.06,8.06,0,0,0,4.6-1,4.68,4.68,0,0,1,2.51-1.08c1.39-.34,1.64-1.82,1.37-3.82a2.67,2.67,0,0,1,2.5-2.56,10.07,10.07,0,0,0,6.46-1,11.14,11.14,0,0,0,3-2.14,10.17,10.17,0,0,0,1-4.56,11.13,11.13,0,0,1,1.11-4.07,19.87,19.87,0,0,1,1.89-4c-11.24,2.72-17.21,8.3-22.65,13.37a76.44,76.44,0,0,1-6.09,5.3c-.95.6-1.18-.13-.46-.63a78.27,78.27,0,0,0,6-5.23c5.52-5.15,11.57-10.81,23-13.58,1.13-.77.89-2.3-.49-2.1a15.41,15.41,0,0,1-7.42,1.54c-1.64-.61-3.51-1.25-5.4-.46a9.59,9.59,0,0,1-3.93,1.54,6.64,6.64,0,0,0-4.48,2.6,8.54,8.54,0,0,1-3.84,3.43c-2.23.8-3.41,2.16-3.62,4.06a36.39,36.39,0,0,1-.67,7.77c-.71.23-1.22.32-1.56-.48s.47-1.82-1.87-1.64c-.72.06-.93.66-1.14,1.27-.67-8.79-.93-17.73-.87-26.79.46.53,1.67.6,2.2,1.22.7.71.43,2.9,1.45,2.9s1.86-1.83,2-2.8c.13-.82.93-.82,1.52-1a2.61,2.61,0,0,0-.21,2.58,3.18,3.18,0,0,0,2.93.42,1.69,1.69,0,0,1,1.37,2.13c.07,1.21.29,2.23,1.47,2a5.86,5.86,0,0,1,4.53-1,2.16,2.16,0,0,0,2.52-1.08c.45-1.28.9-2.55,1.36-3.82a4.86,4.86,0,0,1,2.51-2.57,38.93,38.93,0,0,1,6.45-1,4.33,4.33,0,0,0,3-2.13,20,20,0,0,0,1-4.56,16.58,16.58,0,0,1,1.1-4.06,19.28,19.28,0,0,1,1.91-4l-.11-.44c-10.59,2.81-16.35,8.19-21.63,13.11a72.94,72.94,0,0,1-6.1,5.3c-.94.61-1.17-.12-.44-.62a72.53,72.53,0,0,0,6-5.24c5.35-5,11.2-10.45,22-13.31,1.08-.47,1-1.92-.38-1.66a14.6,14.6,0,0,1-7.43,1.55,9.43,9.43,0,0,0-5.4-.46,24.74,24.74,0,0,1-3.93,1.55,10.53,10.53,0,0,0-4.47,2.59,31.8,31.8,0,0,1-3.85,3.43,18.08,18.08,0,0,0-3.55,4.07,7,7,0,0,0-.45,5.8c-.52-.27-1.54-.41-1.85-1.52-.7-.71.47-1.83-1.87-1.63-1.17.09-1,1.59-1.68,2.29-.53.53-1.54.6-2,1q.12-12.06.9-24.39a2.64,2.64,0,0,1,1,.61c.7.7.42,2.9,1.45,2.9s1.33-2.08,2-2.81a2.1,2.1,0,0,1,1.37-.85,3.51,3.51,0,0,1,2.88.41,6.29,6.29,0,0,1,1.38,2.14,3.06,3.06,0,0,0,1.46,1.95,5.51,5.51,0,0,0,4.54-1,4.54,4.54,0,0,1,2.51-1.08c1.12-.68,1.5-2,1.36-3.83a3.83,3.83,0,0,1,2.51-2.55c2.22-.46,4.43-.25,6.46-1a5.14,5.14,0,0,0,3-2.13c.54-1.37.56-3.05,1-4.56s.66-2.71,1.1-4.07a25.77,25.77,0,0,1,1.91-4c.37-.34.32-.54-.14-.61-10.49,2.82-16.23,8.18-21.47,13.08a76.28,76.28,0,0,1-6.09,5.29c-1,.61-1.18-.12-.45-.62a72.53,72.53,0,0,0,6-5.24c5.32-5,11.14-10.4,21.81-13.27.57-.44.19-1.56-.34-1.48a27.45,27.45,0,0,1-7.43,1.54c-1.8,0-3.6-.51-5.4-.46a7.83,7.83,0,0,0-3.93,1.55,23.32,23.32,0,0,1-4.47,2.59,9.94,9.94,0,0,0-3.85,3.43,12.58,12.58,0,0,0-3.62,4.07c-1,2.05.16,7.08-.63,8-.53-.28-1.3-.48-1.6-1.29-.7-.7.47-1.83-1.87-1.64-1.17.1-1,1.59-1.68,2.3a2.1,2.1,0,0,1-.66.41c.63-9.57,1.51-19.23,2.55-28.94a4.59,4.59,0,0,1,1.63.84c.7.7.42,2.91,1.45,2.91s1.43-2,2-2.81a1.1,1.1,0,0,1,.87-.57,3,3,0,0,1,2.84.41,7.28,7.28,0,0,1,1.37,2.13,3.71,3.71,0,0,0,1.46,2,6.51,6.51,0,0,0,4.54-1,5.14,5.14,0,0,1,2.51-1.08c1-.42,1.47-1.73,1.37-3.83,0-1.12.73-2,2.5-2.56,2.15-.49,4.31-.21,6.46-1a5.45,5.45,0,0,0,3-2.13,14.93,14.93,0,0,0,1-4.56,13.41,13.41,0,0,1,1.1-4.07c.72-1.33,1.33-2.65,1.91-4,.25-.36.21-.54-.13-.53-10.6,2.8-16.37,8.2-21.65,13.12a76,76,0,0,1-6.09,5.29c-1,.61-1.18-.12-.45-.62a74,74,0,0,0,6-5.23c5.35-5,11.21-10.47,22-13.32a.83.83,0,0,0-.36-1.56,18.1,18.1,0,0,1-7.42,1.54,10.31,10.31,0,0,0-5.4-.46c-6.15,2.24-12.39,5.81-15.87,11.64-1.67,2.28.22,6.87-.58,7.31-.48-.17-1-.36-1.11-.85-.27-.95.47-1.83-1.87-1.63-1.17.09-1,1.59-1.69,2.28a3.21,3.21,0,0,1-1.2.63l.11-1c.7-.59,1.7-.6,1.7-1.62,0-.79-.69-1.23-1.33-1.69q1.39-12.28,3-24.65a3.22,3.22,0,0,1,1.23.65c.57.56.34,2.32,1.16,2.32s1-1.68,1.61-2.25a6.56,6.56,0,0,1,1.09-.67c.16.77-1,2.18-.18,2.31a7.8,7.8,0,0,1,2.93.41,2.29,2.29,0,0,1,1.37,2.13c-.06,1.55.36,2.32,1.46,2a9.44,9.44,0,0,1,4.53-1,2.38,2.38,0,0,0,2.52-1.08l1.36-3.82a3.83,3.83,0,0,1,2.51-2.56l6.45-1c1.69-.25,2.69-1,3-2.14l1-4.56,1.1-4.06a9.11,9.11,0,0,1,1.91-4c.12-.19.05-.21,0-.22-10.67,2.8-16.46,8.21-21.76,13.15a78.52,78.52,0,0,1-6.09,5.3c-1,.6-1.17-.13-.45-.63a74.29,74.29,0,0,0,6-5.23c5.37-5,11.25-10.5,22.1-13.35,1.18-.51.73-2.18-.43-1.87a12.72,12.72,0,0,1-7.43,1.54,15.71,15.71,0,0,0-5.4-.46,20,20,0,0,0-3.93,1.55,29.41,29.41,0,0,0-11.93,10.08c-.81,1.34-1.31,3.19-.49,6.11-.34-.41-.92-.68-1.3-1.06-.57-.56.37-1.46-1.5-1.31-.94.07-.79,1.27-1.35,1.83a2.45,2.45,0,0,1-.86.46q1.13-8.58,2.28-17.17a.64.64,0,0,0,.2,0c1,0,1.31-2.1,2-2.81s1.83-.65,1.83-1.73-1.27-1.49-2-2.2a1.36,1.36,0,0,1-.29-1c1,.14,1.24,1.71,2.66,1a13.76,13.76,0,0,0,3.26-3.29c.55-.82,1-1.54,1.52-2.28.75-1.31.14-2.64-1-4-.74-.66-.39-1.89.7-3.51a26.7,26.7,0,0,1,4.86-4.36,2.93,2.93,0,0,0,1.33-3.41,18.85,18.85,0,0,0-1.65-4.37,22.42,22.42,0,0,1-1.29-4c-.27-1.46-.45-2.92-.58-4.37,0-.47-.13-.6-.42-.41-6.67,9.14-7.68,17.13-8.6,24.42a75.59,75.59,0,0,1-1.29,7.94,2.32,2.32,0,0,0-.78-.08s0-.06,0-.08a75.53,75.53,0,0,0,1.29-7.87c.93-7.41,2-15.54,8.8-24.87.55-1-.28-1.5-1.13-1.09a45.93,45.93,0,0,0-5.37,5.35A9.9,9.9,0,0,1,104,126a3.54,3.54,0,0,0-2.45,3.44,9.91,9.91,0,0,1-2.34,4.62,7.19,7.19,0,0,0-1.35,5,11,11,0,0,1-.81,5.38c-1,4,.46,6.89,4.71,8.65.79.17,1.69-.25,2.69-1.25.14-.12.29,0,.43.2h-.08c-1.17.1-1,1.6-1.68,2.29s-2.25.61-2.15,1.55c.09.65.84.84,1.54,1.12a2.07,2.07,0,0,1,.84.52,4.42,4.42,0,0,1,.59,1.75Zm-1.89,189.4c.13.41.27.82.41,1.23-2.11,1.13-.76.45-.26-1.23Zm131.89-37-21.66,42.22,1.55,2.45,22.49-44c-.82-.2-1.61-.43-2.38-.68Zm-58.55-81.4c-.1-.59-.2-1.08-.31-1.49h1.64a12.51,12.51,0,0,1,.81,2.64l1.17.55a12.39,12.39,0,0,1-.56-3.29h1.05a15.68,15.68,0,0,1,1.62,4.3l1,.48a12.86,12.86,0,0,1-.59-3.38h1.06a15.82,15.82,0,0,1,1.63,4.32l.39.2a12.32,12.32,0,0,1-.54-3.28h1.09a16.63,16.63,0,0,1,1.67,4.4l.39.2a12.88,12.88,0,0,1-.56-3.4h1.12a16.21,16.21,0,0,1,1.74,4.57l.33.17-.32-4.14c.38,0,.38-.56.73-.56a14.54,14.54,0,0,1,1.94,5.81l.62.4-1.14-4.67h1.23c1.2,1.38,1.66,4.06,1.94,5.61l.23.24-1.19-5.48h1.34c1.26,1.63,1.77,4.75,2.07,6.65l.2.1-1-5.06h1.18c1,1.49,1.48,4.22,1.75,6.13l.43.24-1.11-5.81h1.18c1.14,1.68,1.58,4.92,1.84,6.8l-1.89-1,2.49,1.4L201,238.23h1.21c1.15,1.68,1.62,4.88,1.9,6.86l.25.15-1.24-6.43h1.39c1.3,1.91,1.84,5.57,2.15,7.81l.61.38-1.32-6.89h1.45c1.41,2.07,2,6.09,2.28,8.42l.12.07-.11-7.58,1.48.25c1.08,2.31,1,6.4.91,8.85l.16.1,1.16-7.81,1.41.48c.67,2.41-.06,6.33-.53,8.74l.23.17,1.14-7.7,1.41.48c.67,2.4-.05,6.28-.52,8.69l.26.19,1.09-7.4,1.42.48c.65,2.33,0,6.05-.48,8.47l.55.43,1-7.13,1.41.48c.64,2.32,0,5.86-.49,8.25l.5.42,1.11-7.19,1.42.49c.63,2.32,0,6-.48,8.46l.25.22,1.06-6.93,1.42.49c.62,2.27,0,5.87-.45,8.3l.25.24.89-5.84,1.31.44c.54,2,.08,5-.33,7.22l.1.1.89-5.79,1.3.44c.54,2,.08,5-.33,7.25l.35.37.93-5.82,1.31.45c.55,2,0,5.18-.37,7.4l.13.15.9-5.47,1.3.45c.52,1.89.12,5-.27,7.24l.19.22.75-5.1,1.3.45c.51,1.84.12,4.65-.26,6.83l.36.44.84-5.19,1.31.45c.5,1.83,0,4.72-.44,6.93l.06.08.76-4.65,1.3.45c.48,1.71.06,4.35-.35,6.49l.24.33.77-4.74c.46.16,1,1.2,1.44,1.35.48,1.73,0,3.91-.49,5.82l.18.26L244,276c.43.22.58.69,1,.89a14.59,14.59,0,0,1-1,5.82l.33.49.72-4.43c.82.58,1.25,2.11,1.67,2.25,0,.12.06.23.09.35,0-.12.05-.23.08-.35.43-.14.86-1.67,1.68-2.25l.72,4.43.33-.49a14.4,14.4,0,0,1-1-5.82c.4-.2.54-.67,1-.89l1.49,4.58.18-.26c-.46-1.91-1-4.09-.48-5.82.42-.15,1-1.19,1.43-1.35l.78,4.74.24-.33c-.42-2.14-.83-4.78-.36-6.49l1.31-.45.76,4.65.06-.08c-.44-2.21-1-5.11-.44-6.93l1.3-.45.85,5.19.35-.44c-.39-2.17-.76-5-.26-6.83l1.3-.45.75,5.1.2-.22c-.4-2.26-.8-5.34-.28-7.24l1.31-.45.89,5.47.13-.15c-.41-2.23-.92-5.39-.36-7.4.42-.15.84-.3,1.31-.45l.92,5.82.36-.37c-.42-2.22-.88-5.28-.34-7.25l1.3-.44.89,5.79.1-.1c-.41-2.22-.87-5.26-.33-7.22l1.3-.44.9,5.84.25-.24c-.47-2.43-1.08-6-.45-8.3l1.42-.49,1.06,6.93.25-.22c-.46-2.43-1.12-6.14-.48-8.46l1.42-.49,1.1,7.19.5-.42c-.47-2.39-1.13-5.94-.49-8.25l1.41-.48,1,7.13.54-.43c-.46-2.42-1.12-6.15-.48-8.47l1.42-.48,1.1,7.4.26-.19c-.47-2.41-1.19-6.29-.53-8.69l1.42-.48,1.14,7.7.22-.17c-.46-2.41-1.19-6.32-.53-8.74l1.42-.48,1.16,7.81.15-.1c-.07-2.45-.17-6.54.91-8.85l1.48-.25-.11,7.58.12-.07c.33-2.33.87-6.35,2.29-8.42h1.45L286.26,247l.61-.38c.31-2.24.84-5.9,2.15-7.81h1.38l-1.24,6.43.26-.15c.28-2,.75-5.18,1.9-6.86h1.21l-1.08,5.69.59-.42c.26-1.87.71-5.12,1.85-6.8h1.17L294,242.51l.43-.24c.28-1.91.74-4.64,1.76-6.13h1.17l-1,5.06.2-.1c.3-1.9.81-5,2.07-6.65h1.33l-1.19,5.48.24-.24c.28-1.55.74-4.23,1.94-5.61h1.23L301,238.75c.84-.49,1.2-.63,1.22-.73q.66-2.73,1.33-5.48c.36,0,.36.56.74.56l-.33,4.14.35-.18a17.66,17.66,0,0,1,1.82-4.76h1.19a14.8,14.8,0,0,1-.84,3.72l.85-.39a16.57,16.57,0,0,1,1.36-4.44h1.05a15.47,15.47,0,0,1-.77,3.63,2.2,2.2,0,0,0,.86-.7c.45-.69-.23-1.61,1.4-4.05h1.05a12.75,12.75,0,0,1-.58,3.37l1-.47a15.63,15.63,0,0,1,1.63-4.31h1.05a12.3,12.3,0,0,1-.57,3.29l1.17-.55a12,12,0,0,1,.82-2.64h1.63c-.08.33-.16.71-.25,1.15a3.16,3.16,0,0,1,1-.4l.12.31-.54.35,2,1.47-.46.49-2.4-1.44-.55.3a6.93,6.93,0,0,1,1.71,1.45l-.46.49-2.28-1.36-.49.27a6.34,6.34,0,0,1,1.77,1.48l-.46.5-2.34-1.41-.56.31a6.13,6.13,0,0,1,1.76,1.47l-.44.47-2.36-1.42-.33.18a8.2,8.2,0,0,1,2.17,1.84l-.59.63-2.93-1.76-.4.21a8.65,8.65,0,0,1,2.38,2l-.6.65-3.15-1.89-.53.28,3,2.42-.72.78-3.88-2.33-.75.4a15.76,15.76,0,0,1,4,2.91l-.9,1-4.67-3-.46.25a12.52,12.52,0,0,1,3.5,2.92l-.9,1-4.62-2.78-.34.19c2.18,1.23,2.64,2.41,4.65,3.9l-1.34.38-5.5-3,.06,0-.14.08c2,1.18,2.47,2.32,4.39,3.74l-1.34.38-3.67-2c1,.85,1.65,1.74,3,2.77l-1.33.38-5.19-2.87-.43.26c2.2,1.06,2.74,2,4.88,3.44l-1.27.68-5.61-2.91-.08.05c2.53,1.32,3.26,2.47,5.75,4.24l-1.49.86-6.52-3.69-.57.36c2.4,1.29,3.35,2.43,5.77,4.15L295,251l-6.34-3.66-.3.2c2.54,1.29,3.65,2.59,6.24,4.29l-1.63.86-7.07-3.47h0c2.55,1.3,3.29,2.57,5.92,4.29l-1.63.86-6.69-3.44-.11.08c3.15,1.52,4.36,3,7.41,5l-1.83,1-6.1-3.14c1.67,1.08,2.86,2.23,5,3.62l-1.73.92-3.83-2c1,.64,2,1.33,3.38,2.09L284,259.57l-3.3-1.39c.95.63,1.95,1.29,3.28,2l-1.66,1.05L274.5,258l-.13.11c2.86,1.17,4.14,2.48,7.07,4.09l-1.67,1.05L272.16,260l0,0c2.86,1.17,4.14,2.48,7.07,4.09l-1.66,1.05L270,262l-.23.22a46.06,46.06,0,0,1,7.2,3.6l-1.66,1.05-7.8-2.46-.42.41a39.94,39.94,0,0,1,7.72,2.46l-1.53,1.24-6-1.28a33.7,33.7,0,0,1,4.18,1.86l-1.29,1.32-6.74-1.8-.42.46a46.38,46.38,0,0,1,8.08,2.74l-1.56,1.27-7.8-1.68a29.33,29.33,0,0,1,6.08,2.47l-1.29,1.32-7.07-1.64a29.57,29.57,0,0,1,6.39,2.57l-1.29,1.32-7.19-1.72-.27.33a30.09,30.09,0,0,1,6.51,2.6L262.28,280l-6.95-1.66-.07.1c2.73.89,3.36.78,6,2.39l-1.4,1.21-3.35-.77a11.52,11.52,0,0,1,2.58,1.43l-1.18,1.16-5.52-1.43.15-.24-.31.44c2.37.87,2.9.76,5.18,2.31l-1.19,1.17-5.39-1.39-.09.13c2.44.9,3,.78,5.26,2.35l-1.18,1.16-5.41-1.43c-.43.7-.88,1.41-1.31,2.15q1.2,1.89,2.41,3.92c-.91.11-1.82.2-2.72.24-.34-.62-.69-1.25-1-1.86l-1.08,1.92a27.45,27.45,0,0,1-2.86-.11c.84-1.4,1.72-2.79,2.58-4.13-.43-.73-.86-1.43-1.3-2.14l-5.42,1.41-1.18-1.16c2.3-1.58,2.82-1.45,5.25-2.35l-.09-.14-5.38,1.4-1.19-1.17c2.28-1.55,2.81-1.44,5.17-2.31l-.31-.44.15.24-5.51,1.43-1.19-1.16a11.74,11.74,0,0,1,2.58-1.43l-3.35.77-1.4-1.21c2.66-1.61,3.29-1.5,6-2.39l-.08-.1L231.24,280,230,278.65a29.89,29.89,0,0,1,6.51-2.6l-.28-.33L229,277.44l-1.29-1.32a29.44,29.44,0,0,1,6.4-2.57L227,275.19l-1.29-1.32a29.33,29.33,0,0,1,6.08-2.47l-7.8,1.68-1.57-1.27a46.66,46.66,0,0,1,8.08-2.74l-.42-.46-6.74,1.8-1.29-1.32a34.89,34.89,0,0,1,4.19-1.87l-6,1.29-1.52-1.24a39.51,39.51,0,0,1,7.72-2.46l-.42-.41-7.8,2.45-1.66-1.05a46.78,46.78,0,0,1,7.19-3.59l-.23-.22L216,265.17l-1.66-1.05c2.92-1.61,4.21-2.92,7.06-4.09l0,0-7.62,3.2-1.66-1.05c2.93-1.6,4.21-2.91,7.07-4.08L219,258l-7.8,3.27-1.67-1.05c1.33-.73,2.33-1.4,3.29-2l-3.31,1.39-1.67-1.05c1.39-.76,2.39-1.45,3.38-2.09l-3.82,2-1.75-.92c2.14-1.39,3.33-2.54,5-3.63L204.58,257l-1.83-1c3-2,4.26-3.51,7.41-5l-.11-.08-6.69,3.44-1.63-.86c2.63-1.72,3.38-3,5.91-4.29h0l-7.07,3.47-1.63-.86c2.6-1.7,3.7-3,6.24-4.29l-.29-.2L198.52,251,197,250.1c2.42-1.72,3.37-2.87,5.77-4.15l-.56-.36-6.52,3.68-1.5-.85c2.49-1.78,3.22-2.93,5.75-4.25l-.08,0-5.6,2.91-1.28-.68c2.14-1.41,2.69-2.38,4.88-3.44l-.43-.26-5.19,2.87-1.33-.38a38.64,38.64,0,0,0,3-2.78l-3.67,2L189,244c1.92-1.42,2.42-2.57,4.38-3.75l-.14-.07.07,0-5.5,3-1.34-.38c2-1.48,2.47-2.66,4.64-3.89l-.32-.19-4.63,2.77-.9-1a12.66,12.66,0,0,1,3.5-2.92l-.36-.2-4.53,2.72-.89-1a12.79,12.79,0,0,1,3.36-2.85l-.39-.22L182,238.51l-.73-.78a10,10,0,0,1,2.91-2.4l-.72-.39-3.17,1.91-.64-.69a9.07,9.07,0,0,1,2.37-2l-.24-.13-2.91,1.75-.59-.63a8.2,8.2,0,0,1,2.17-1.84l-.18-.1L178,234.62l-.44-.48a6.12,6.12,0,0,1,1.76-1.46l-.67-.37-2.3,1.38-.46-.49a6.51,6.51,0,0,1,1.73-1.46l-.43-.24-2.25,1.35-.46-.49a7.84,7.84,0,0,1,1.39-1.26L174.5,230c.31.13.59.19.89.29Zm83.39,80.33,16.71,32.33-1.55,2.63-17.09-34.17a17.68,17.68,0,0,0,1.93-.79Zm111.7-92.17c7.71,18,9.59,26.54,30.92,19.32a38.36,38.36,0,0,0-8.51-4c-6.71-2.59-14.84-5.74-22.09-15v0l-.32-.25Zm53.91,149.44c-15.58,13.47-21.32,20.67-38,4.34a44,44,0,0,1,8.25.42h0c7.41.81,16.44,1.79,29.14-4.39l.1-.27.5-.1Zm-38.34,4-.32-.32c24.14-18.6,26.15-1.37,38.15-3.57-12.23,5.95-21.16,5-28.48,4.18h0a38.18,38.18,0,0,0-9.35-.29Zm44.14-38.45c-10.74,17.15-14,25.52-34.53,14.85,1.7-.42,3.52-.73,5.45-1.07,8-1.4,17.81-3.13,28.73-13.32v-.28a3.65,3.65,0,0,0,.34-.18Zm-35,14.47c17.23-24.26,24-8.64,34.67-14.27-10.53,9.82-20.23,11.53-28.16,12.91-2.32.41-4.49.79-6.51,1.36Zm41.35-44-.22.42-.08.15c-9,17.92-11.78,26.43-33.16,17.71,1.32-.43,2.73-.83,4.21-1.26,8.43-2.45,19.06-5.53,28.8-16.45v-.27l.45-.3Zm-34.2,18h0c15.18-26.18,23.52-11.2,33.71-17.66-9.4,10.51-19.9,13.55-28.25,16-1.94.57-3.77,1.1-5.45,1.69Zm36.57-50.57c-7.16,20.62-8.61,30.25-32.63,24,1.57-.79,3.3-1.57,5.15-2.4,8.25-3.69,18.74-8.39,27.2-20.91l0-.31c-8.17,12.08-18.56,16.73-26.73,20.39-2.32,1-4.46,2-6.34,3h-.08c12.46-30.22,23.53-14.66,33.47-23.82Zm-.74-28c-6.82,19.63-8.17,28.74-31.3,22.65,1.62-.89,3.52-1.75,5.61-2.7,7.62-3.48,17.59-8,25.39-19.57l0-.1c.11-.09.22-.18.32-.28Zm-31.58,22.28c11.47-27.57,21.7-14.33,30.9-21.7C430,254.61,420.3,259,412.86,262.43a67.36,67.36,0,0,0-6.3,3.12Zm27.87-50.83c-6.45,18.58-7.72,27.19-29.64,21.4a37.7,37.7,0,0,1,8.61-4.69c6.45-2.86,14-6.22,20.69-16.1l0-.27.38-.34Zm-29.92,21.22c11-26.52,20.74-13.43,29.53-20.87-6.41,9.47-13.88,12.79-20.26,15.62-3.51,1.56-6.7,3-9.27,5.25Zm27-51.37-.07.2-.06.17c-6,17.37-7.58,25.87-26.31,21.8-1-.22-2.06-.48-3.16-.77,2.34-2.06,5.44-3.52,8.89-5.14,6.46-3,14.08-6.62,20.37-15.93v0l.12-.11a2.11,2.11,0,0,0,.23-.19Zm-29.93,21.25c10.8-26.15,20.45-13.87,29.13-20.58-5.95,8.46-13.28,11.91-19.52,14.85-3.74,1.75-7.09,3.33-9.61,5.73ZM350.11,347.6c6.08,17.87,7.22,26.1,28.49,20.55-.07-.17-.14-.33-.2-.49-2.28-3.12-5.58-4.31-9.4-5.69-5.57-2-12.19-4.4-18.63-14.09v-.06l-.27-.22Zm28,19.33c-10-23.63-19.17-12.23-27.32-18.78,6.07,8.85,12.46,11.15,17.86,13.09,3.72,1.35,7,2.53,9.46,5.69Zm-17.46-39.56c7.33,17.15,9.14,25.28,29.26,18.56a26.89,26.89,0,0,0-6.13-2.69C377.61,341,369,338,360.85,327.57v0c-.07-.06-.15-.11-.22-.18Zm29.53,18.47.41-.14a151,151,0,0,1-37.27,58c2.23.41,4.43.85,6.63,1.32,55.1-59.84,49.39-129.23,37.5-228.83-.21-1.76-2.29-14.93-2.93-17.82a31.81,31.81,0,0,0-1.2-4.39c12.93-15.74,6.47-20.39-6.75-32.1,7.85,12.16,7.55,15.81,6.89,23.68-.18,2.16-.39,4.62-.46,7.67a2.35,2.35,0,0,0-.33-.52c.08-2.83.27-5.14.44-7.17.68-8,1-11.61-7.5-24.52l-.23-.21c3.81,10.75-12.5,14,6.91,33.66l.12.89c3.67,27.36,7.41,54.84,9.16,81.6-12.45-24.63-21.16-11.92-30.23-18,6.84,8.41,14.67,11.44,21.14,13.94,3.54,1.37,6.69,2.59,9.12,4.49,2.49,38.38.85,75.27-11,108.21-12.09-24.33-20.47-11.8-29.23-17.76,7.71,9.55,16,12.52,22,14.65,2.88,1,5.23,1.87,6.82,3.29ZM221.65,436.12c-11.26,8.13-19.37,19.62-22.26,37.89,2.76,0,7.28,4.67,10.1,4.67,4.48-24.61,12.42-36.9,23.56-43.82q-5.7.47-11.4,1.26Zm144.2-136.76c7.72,18,9.59,26.53,30.91,19.33-1.77-3.46-5.35-4.65-9.75-6.13-5.55-1.86-12.37-4.15-18.77-11.73a11.19,11.19,0,0,1-2.39-1.47Zm31.25,19.21.12,0c-11.71-23.6-20.11-14.12-28.57-17.52,6,6.84,12.56,9,17.91,10.83,4.74,1.59,8.59,2.88,10.54,6.73Zm-28-45.11c7.75,18.12,9.61,26.62,31.23,19.21-2-2.87-5.46-3.93-9.59-5.2-6-1.83-13.36-4.1-20.24-12.87l0-.17a11.58,11.58,0,0,1-1.42-1ZM400,291.66c-12-23.44-20.53-12.24-29.28-17.13,6.52,8.22,13.74,10.43,19.61,12.22,4,1.24,7.43,2.28,9.67,4.91Zm-29.2-46c7.74,18.1,9.61,26.6,31.16,19.24a37.73,37.73,0,0,0-8.27-3.71c-6.8-2.48-15.17-5.53-22.56-15l0-.28c7.1,9.07,15.38,12.08,22.1,14.54,3.4,1.24,6.43,2.33,8.76,4.05-12.92-25.76-21.81-11.34-31.21-18.86ZM367,187.12c7.76,18.17,9.61,26.66,31.37,19.17l-.11-.2a52.8,52.8,0,0,0-6.75-2.82c-7-2.6-16-5.91-23.62-15.49-.29-.2-.59-.42-.89-.66Zm30.95,18.33c-12.14-23.78-20.72-12.19-29.55-17.36,7.27,8.76,15.89,11.94,22.68,14.46a52.25,52.25,0,0,1,6.87,2.9Zm-35-45.55c7.71,18,9.59,26.53,30.89,19.33l.48-.16c-.1-.19-.19-.39-.29-.57a109.29,109.29,0,0,0-10.49-5.91c-6.14-3.21-13.36-7-20.07-11.94h0l-.29-.57-.22-.17Zm30.77,18C382.22,155.71,374,165,365.61,161.51a10.06,10.06,0,0,1-1.39-.7,154.61,154.61,0,0,0,18.87,11.07,103.19,103.19,0,0,1,10.58,6Zm31.78-20.3-.35,1.13-.08-.27-.11-.35.54-.51Zm-.52,1.71c-4.93,16.27-6.51,23.85-24.95,19.76l-1.31-.3c3.19-3.24,6.42-4.5,9.77-5.81,5.15-2,10.57-4.12,16.49-13.65Zm-26.12,18.09c9.12-23.52,18.16-12.68,25.86-19.08-5.92,9.55-11.35,11.67-16.5,13.68-3.2,1.24-6.31,2.46-9.36,5.4ZM269.23,435.23c12,7.91,20.28,19.71,24.08,43.46,2.85,0,6.48-3.78,9.27-3.78-3.29-19.8-11.38-30.44-22.67-38.33-3.56-.54-7.12-1-10.68-1.35ZM91.88,205l-.44,0a2.66,2.66,0,0,0-1.54,2.16c0,1.54-.57,2.09-1.64,2a12.78,12.78,0,0,0-4.68-1.26A4.76,4.76,0,0,1,81,206.59c-.69-1.07-.73-3-1.22-4.08a5,5,0,0,0-2.48-2.8,28.61,28.61,0,0,0-6.7-1.41,3.45,3.45,0,0,1-3-2.39,34.4,34.4,0,0,1-.8-4.82,21.27,21.27,0,0,0-2.71-8.57c-.65-1.48-.25-2.13.54-1.88,11.32,4.67,16.69,11.47,21.58,17.67a79.81,79.81,0,0,0,5.56,6.55l.09.1Zm3.59-29.2a2.58,2.58,0,0,0-1.39,1.93c-.38.72-.5,1.83-1.51,1.8-1.26-.51-2.9-.65-4.3-1.16a7.83,7.83,0,0,1-2.36-1.16,4.06,4.06,0,0,1-1.12-3.74,3,3,0,0,0-2.28-2.59,38.49,38.49,0,0,1-6.15-1.29,4.68,4.68,0,0,1-2.75-2.19,10.56,10.56,0,0,1-.73-4.43,25.5,25.5,0,0,0-.86-4,24.46,24.46,0,0,0-1.64-3.91c-.48-1.31-.25-2.09.5-1.75,9.86,4.37,14.7,10.5,19.13,16.11,1.57,1.79,4.25,5.11,5.46,6.34Z"/><path class="cls-2" d="M208,438.8a3.34,3.34,0,0,1-3-3.31,2.64,2.64,0,0,1,2.65-2.78l22-2.27a3.11,3.11,0,0,0,3-3.1,2.86,2.86,0,0,0-2.89-2.89l-.73,0L200,426.13l4.45,11.18c1,1.9,2.26,1.46,3.46,1.49Z"/><path class="cls-2" d="M119.48,451.18c2.23-3.37-.78-6.07-3.3-5.17L88.3,455.35a.75.75,0,0,1-.6.26,2.82,2.82,0,0,1-.59-5.56l30.22-9.38,3,6.13q.81,3.07-.82,4.38Z"/><path class="cls-2" d="M380.4,451.45c-2.23-3.36.77-6.06,3.3-5.16l27.88,9.33a.74.74,0,0,0,.59.26,2.82,2.82,0,0,0,.6-5.56L382.54,441l-3,6.12c-.54,2.05-.26,3.52.82,4.38Z"/><path class="cls-2" d="M291.52,438.8a3.35,3.35,0,0,0,3-3.31,2.65,2.65,0,0,0-2.66-2.78l-22-2.27a3.11,3.11,0,0,1-3-3.1,2.86,2.86,0,0,1,2.89-2.89l.73,0,28.87,1.66L295,437.31c-1,1.9-2.27,1.46-3.47,1.49Z"/></svg>